<?xml version="1.0" encoding="utf-8" standalone="no"?>
<svg xmlns="http://www.w3.org/2000/svg" xmlns:xlink="http://www.w3.org/1999/xlink" width="500" height="135">
	<!-- Created by: InfluxDBWindSVG Version 2.20231205.6 Built on: Dec  5 2023 at 10:23:51 -->
	<clipPath id="GraphRegion"><polygon points="58,14 486,14 486,121 58,121" /></clipPath>
	<style>
		text { font-family: sans-serif; font-size: 12px; fill: black; }
		line { stroke: black; }
		polygon { fill-opacity: 0.5; }
	</style>
	<rect style="fill-opacity:0;stroke:grey;stroke-width:2" width="500" height="135" />
	<text x="58" y="12">Sola Apparent Wind Speed</text>
	<text style="text-anchor:end" x="486" y="12">2023-12-05 11:39:59</text>
	<text style="fill:blue;text-anchor:middle" x="12" y="50%" transform="rotate(270 12,67)">Wind Speed (0.0 kn)</text>
	<line x1="56" y1="14" x2="488" y2="14"/>
	<text style="fill:blue;text-anchor:end;dominant-baseline:middle" x="56" y="14">29.6</text>
	<line x1="56" y1="121" x2="488" y2="121"/>
	<text style="fill:blue;text-anchor:end;dominant-baseline:middle" x="56" y="121">0.0</text>
	<line x1="58" y1="14" x2="58" y2="121"/>
	<line x1="486" y1="14" x2="486" y2="121"/>
	<line style="stroke-dasharray:1" x1="56" y1="40" x2="488" y2="40" />
	<text style="fill:blue;text-anchor:end;dominant-baseline:middle" x="56" y="40">22.2</text>
	<line style="stroke-dasharray:1" x1="56" y1="66" x2="488" y2="66" />
	<text style="fill:blue;text-anchor:end;dominant-baseline:middle" x="56" y="66">14.8</text>
	<line style="stroke-dasharray:1" x1="56" y1="92" x2="488" y2="92" />
	<text style="fill:blue;text-anchor:end;dominant-baseline:middle" x="56" y="92">7.4</text>
	<line style="stroke-dasharray:1" x1="65" y1="14" x2="65" y2="123" />
	<line style="stroke-dasharray:1" x1="77" y1="14" x2="77" y2="123" />
	<text style="text-anchor:middle" x="77" y="133">10</text>
	<line style="stroke-dasharray:1" x1="89" y1="14" x2="89" y2="123" />
	<line style="stroke-dasharray:1" x1="101" y1="14" x2="101" y2="123" />
	<text style="text-anchor:middle" x="101" y="133">8</text>
	<line style="stroke-dasharray:1" x1="113" y1="14" x2="113" y2="123" />
	<line style="stroke-dasharray:1" x1="125" y1="14" x2="125" y2="123" />
	<text style="text-anchor:middle" x="125" y="133">6</text>
	<line style="stroke-dasharray:1" x1="137" y1="14" x2="137" y2="123" />
	<line style="stroke-dasharray:1" x1="149" y1="14" x2="149" y2="123" />
	<text style="text-anchor:middle" x="149" y="133">4</text>
	<line style="stroke-dasharray:1" x1="161" y1="14" x2="161" y2="123" />
	<line style="stroke-dasharray:1" x1="173" y1="14" x2="173" y2="123" />
	<text style="text-anchor:middle" x="173" y="133">2</text>
	<line style="stroke-dasharray:1" x1="185" y1="14" x2="185" y2="123" />
	<line style="stroke:red" x1="197" y1="14" x2="197" y2="123" />
	<text style="text-anchor:middle" x="197" y="133">0</text>
	<line style="stroke-dasharray:1" x1="209" y1="14" x2="209" y2="123" />
	<line style="stroke-dasharray:1" x1="221" y1="14" x2="221" y2="123" />
	<text style="text-anchor:middle" x="221" y="133">22</text>
	<line style="stroke-dasharray:1" x1="233" y1="14" x2="233" y2="123" />
	<line style="stroke-dasharray:1" x1="245" y1="14" x2="245" y2="123" />
	<text style="text-anchor:middle" x="245" y="133">20</text>
	<line style="stroke-dasharray:1" x1="257" y1="14" x2="257" y2="123" />
	<line style="stroke-dasharray:1" x1="269" y1="14" x2="269" y2="123" />
	<text style="text-anchor:middle" x="269" y="133">18</text>
	<line style="stroke-dasharray:1" x1="281" y1="14" x2="281" y2="123" />
	<line style="stroke-dasharray:1" x1="293" y1="14" x2="293" y2="123" />
	<text style="text-anchor:middle" x="293" y="133">16</text>
	<line style="stroke-dasharray:1" x1="305" y1="14" x2="305" y2="123" />
	<line style="stroke-dasharray:1" x1="317" y1="14" x2="317" y2="123" />
	<text style="text-anchor:middle" x="317" y="133">14</text>
	<line style="stroke-dasharray:1" x1="329" y1="14" x2="329" y2="123" />
	<line style="stroke-dasharray:1" x1="341" y1="14" x2="341" y2="123" />
	<text style="text-anchor:middle" x="341" y="133">12</text>
	<line style="stroke-dasharray:1" x1="353" y1="14" x2="353" y2="123" />
	<line style="stroke-dasharray:1" x1="365" y1="14" x2="365" y2="123" />
	<text style="text-anchor:middle" x="365" y="133">10</text>
	<line style="stroke-dasharray:1" x1="377" y1="14" x2="377" y2="123" />
	<line style="stroke-dasharray:1" x1="389" y1="14" x2="389" y2="123" />
	<text style="text-anchor:middle" x="389" y="133">8</text>
	<line style="stroke-dasharray:1" x1="401" y1="14" x2="401" y2="123" />
	<line style="stroke-dasharray:1" x1="413" y1="14" x2="413" y2="123" />
	<text style="text-anchor:middle" x="413" y="133">6</text>
	<line style="stroke-dasharray:1" x1="425" y1="14" x2="425" y2="123" />
	<line style="stroke-dasharray:1" x1="437" y1="14" x2="437" y2="123" />
	<text style="text-anchor:middle" x="437" y="133">4</text>
	<line style="stroke-dasharray:1" x1="449" y1="14" x2="449" y2="123" />
	<line style="stroke-dasharray:1" x1="461" y1="14" x2="461" y2="123" />
	<text style="text-anchor:middle" x="461" y="133">2</text>
	<line style="stroke-dasharray:1" x1="473" y1="14" x2="473" y2="123" />
	<line style="stroke:red" x1="485" y1="14" x2="485" y2="123" />
	<text style="text-anchor:middle" x="485" y="133">0</text>
	<polygon style="fill:red;stroke:red;fill-opacity:1;" points="55,121 61,118 61,124" />
	<!-- ApparentWindSpeed MinMax -->
	<polygon style="fill:blue;stroke:blue;clip-path:url(#GraphRegion)" points="59,119 60,117 61,114 62,113 63,115 64,113 65,113 66,111 67,114 68,110 69,110 70,107 71,104 72,109 73,106 74,109 75,106 76,106 77,108 78,106 79,115 80,112 81,104 82,102 83,104 84,104 85,102 86,96 87,96 88,97 89,92 90,91 91,93 92,100 93,97 94,103 95,111 96,109 97,109 98,105 99,87 100,84 101,85 102,82 103,80 104,75 105,74 106,57 107,65 108,79 109,80 110,79 111,68 112,78 113,77 114,71 115,78 116,74 117,78 118,75 119,61 120,63 121,68 122,71 123,96 124,77 125,72 126,66 127,71 128,58 129,68 130,71 131,81 132,58 133,62 134,66 135,56 136,62 137,62 138,66 139,64 140,59 141,68 142,74 143,66 144,67 145,66 146,60 147,67 148,69 149,65 150,71 151,67 152,80 153,65 154,65 155,60 156,53 157,63 158,72 159,60 160,55 161,60 162,54 163,41 164,55 165,55 166,55 167,48 168,50 169,59 170,53 171,42 172,57 173,33 174,46 175,35 176,21 177,45 178,37 179,36 180,46 181,28 182,34 183,14 184,31 185,26 186,47 187,38 188,34 189,36 190,42 191,32 192,42 193,57 194,47 195,52 196,58 197,44 198,49 199,44 200,46 201,47 202,49 203,60 204,58 205,68 206,77 207,77 208,72 209,74 210,73 211,77 212,65 213,72 214,67 215,42 216,70 217,62 218,62 219,49 220,48 221,51 222,54 223,63 224,62 225,56 226,68 227,58 228,62 229,61 230,67 231,77 232,81 233,69 234,68 235,66 236,57 237,53 238,63 239,64 240,69 241,68 242,62 243,66 244,63 245,65 246,75 247,70 248,71 249,70 250,72 251,60 252,67 253,75 254,72 255,74 256,84 257,111 258,100 259,101 260,95 261,98 262,107 263,113 264,116 265,114 266,109 267,108 268,97 269,105 270,108 271,108 272,110 273,101 274,95 275,96 276,87 277,92 278,84 279,80 280,68 281,79 282,70 283,72 284,76 285,79 286,79 287,77 288,76 289,79 290,74 291,70 292,74 293,74 294,83 295,88 296,89 297,81 298,78 299,71 300,68 301,60 302,55 303,59 304,57 305,53 306,62 307,61 308,72 309,66 310,68 311,82 312,82 313,89 314,87 315,88 316,85 317,83 318,79 319,83 320,77 321,79 322,65 323,79 324,77 325,76 326,88 327,87 328,93 329,99 330,87 331,91 332,91 333,81 334,93 335,92 336,88 337,86 338,83 339,97 340,88 341,91 342,88 343,91 344,93 345,96 346,96 347,96 348,94 349,94 350,94 351,93 352,91 353,90 354,89 355,90 356,97 357,93 358,100 359,105 360,106 361,103 362,101 363,104 364,101 365,101 366,106 367,102 368,109 369,111 370,108 371,106 372,105 373,106 374,103 375,102 376,108 377,109 378,105 379,108 380,115 381,118 382,114 383,114 384,114 385,115 386,116 387,115 388,114 389,112 390,112 391,116 392,114 393,113 394,117 395,115 396,112 397,113 398,117 399,113 400,114 401,114 402,112 403,113 404,121 405,121 406,121 407,117 408,108 409,99 410,94 411,90 412,89 413,91 414,89 415,113 416,98 417,99 418,100 419,107 420,110 421,110 422,113 423,110 424,108 425,104 426,97 427,99 428,94 429,91 430,93 431,89 432,94 433,100 434,93 435,97 436,91 437,96 438,98 439,98 440,94 441,87 442,87 443,91 444,90 445,89 446,88 447,86 448,84 449,86 450,94 451,94 452,94 453,98 454,93 455,93 456,94 457,96 458,99 459,99 460,99 461,93 462,90 463,92 464,92 465,89 466,93 467,94 468,97 469,103 470,98 471,94 472,94 473,89 474,85 475,87 476,88 477,94 478,89 479,86 480,101 481,97 482,105 483,105 484,92 485,102 485,114 484,114 483,115 482,116 481,113 480,115 479,112 478,114 477,114 476,111 475,111 474,107 473,114 472,110 471,110 470,113 469,115 468,116 467,111 466,110 465,110 464,113 463,114 462,113 461,113 460,115 459,118 458,116 457,117 456,113 455,115 454,114 453,116 452,118 451,111 450,110 449,107 448,105 447,110 446,107 445,108 444,109 443,106 442,107 441,109 440,114 439,116 438,116 437,115 436,113 435,116 434,114 433,114 432,112 431,112 430,115 429,111 428,114 427,118 426,114 425,116 424,117 423,118 422,121 421,121 420,116 419,114 418,112 417,110 416,116 415,121 414,115 413,102 412,100 411,102 410,110 409,116 408,118 407,121 406,121 405,121 404,121 403,121 402,116 401,121 400,116 399,121 398,121 397,121 396,121 395,118 394,121 393,121 392,118 391,121 390,121 389,121 388,121 387,121 386,121 385,117 384,117 383,121 382,121 381,121 380,121 379,115 378,115 377,117 376,117 375,117 374,118 373,115 372,114 371,115 370,117 369,118 368,118 367,121 366,116 365,117 364,115 363,121 362,117 361,115 360,114 359,114 358,115 357,114 356,113 355,115 354,115 353,116 352,113 351,116 350,114 349,115 348,113 347,115 346,116 345,117 344,114 343,111 342,115 341,115 340,111 339,118 338,115 337,113 336,114 335,118 334,115 333,118 332,115 331,110 330,115 329,116 328,115 327,113 326,115 325,114 324,116 323,114 322,109 321,118 320,111 319,113 318,115 317,116 316,113 315,115 314,115 313,112 312,113 311,109 310,108 309,102 308,101 307,101 306,101 305,91 304,94 303,92 302,89 301,93 300,101 299,104 298,108 297,111 296,109 295,109 294,112 293,113 292,111 291,112 290,110 289,113 288,110 287,115 286,114 285,117 284,111 283,115 282,112 281,112 280,115 279,111 278,108 277,110 276,112 275,115 274,116 273,117 272,117 271,116 270,115 269,114 268,114 267,117 266,115 265,121 264,121 263,121 262,118 261,114 260,112 259,114 258,118 257,121 256,115 255,103 254,111 253,110 252,103 251,105 250,108 249,105 248,103 247,102 246,102 245,101 244,102 243,109 242,104 241,105 240,103 239,106 238,103 237,101 236,97 235,105 234,103 233,106 232,107 231,106 230,102 229,102 228,105 227,103 226,102 225,104 224,104 223,106 222,100 221,97 220,95 219,100 218,96 217,103 216,98 215,102 214,108 213,105 212,102 211,109 210,106 209,110 208,103 207,106 206,107 205,102 204,98 203,102 202,93 201,88 200,101 199,102 198,95 197,106 196,98 195,99 194,97 193,99 192,97 191,100 190,92 189,93 188,95 187,96 186,102 185,92 184,95 183,92 182,119 181,94 180,100 179,98 178,94 177,100 176,88 175,96 174,96 173,96 172,94 171,92 170,100 169,95 168,95 167,119 166,101 165,96 164,102 163,91 162,96 161,99 160,97 159,96 158,104 157,101 156,100 155,103 154,101 153,100 152,105 151,106 150,104 149,104 148,102 147,99 146,96 145,105 144,109 143,104 142,105 141,98 140,94 139,97 138,104 137,100 136,104 135,101 134,104 133,100 132,108 131,113 130,105 129,106 128,99 127,103 126,100 125,114 124,112 123,115 122,111 121,106 120,102 119,108 118,107 117,107 116,106 115,107 114,103 113,107 112,106 111,109 110,105 109,103 108,110 107,108 106,105 105,102 104,103 103,105 102,103 101,107 100,111 99,115 98,116 97,118 96,118 95,117 94,114 93,112 92,114 91,109 90,107 89,112 88,111 87,112 86,109 85,114 84,112 83,113 82,113 81,116 80,118 79,121 78,121 77,115 76,115 75,114 74,117 73,116 72,121 71,114 70,115 69,116 68,121 67,121 66,116 65,121 64,121 63,118 62,116 61,121 60,121 59,121 " />
	<!-- ApparentWindSpeed -->
	<polyline style="fill:none;stroke:blue;clip-path:url(#GraphRegion)" points="59,120 60,120 61,116 62,115 63,117 64,117 65,118 66,114 67,117 68,115 69,113 70,111 71,109 72,114 73,112 74,113 75,110 76,110 77,112 78,113 79,118 80,116 81,111 82,107 83,108 84,110 85,109 86,103 87,106 88,106 89,102 90,98 91,103 92,107 93,105 94,110 95,115 96,114 97,114 98,111 99,103 100,100 101,97 102,95 103,93 104,91 105,89 106,86 107,91 108,94 109,93 110,94 111,93 112,94 113,94 114,90 115,96 116,93 117,97 118,94 119,91 120,87 121,88 122,94 123,106 124,97 125,92 126,84 127,85 128,81 129,88 130,91 131,95 132,84 133,83 134,86 135,84 136,82 137,82 138,84 139,84 140,79 141,85 142,87 143,85 144,88 145,89 146,83 147,86 148,85 149,90 150,91 151,88 152,93 153,83 154,85 155,81 156,81 157,83 158,87 159,82 160,78 161,82 162,76 163,75 164,78 165,73 166,75 167,75 168,77 169,79 170,83 171,72 172,77 173,71 174,73 175,69 176,65 177,70 178,70 179,73 180,72 181,67 182,67 183,67 184,67 185,65 186,75 187,72 188,74 189,68 190,72 191,71 192,74 193,76 194,76 195,73 196,79 197,79 198,76 199,77 200,75 201,73 202,74 203,81 204,84 205,86 206,93 207,94 208,89 209,95 210,94 211,95 212,89 213,91 214,90 215,85 216,86 217,85 218,82 219,77 220,76 221,79 222,80 223,84 224,80 225,85 226,87 227,83 228,82 229,85 230,89 231,93 232,96 233,93 234,90 235,88 236,83 237,81 238,87 239,84 240,88 241,89 242,86 243,91 244,88 245,86 246,89 247,87 248,90 249,90 250,89 251,89 252,89 253,94 254,92 255,90 256,106 257,115 258,108 259,108 260,106 261,107 262,113 263,117 264,119 265,118 266,112 267,113 268,105 269,111 270,112 271,114 272,114 273,107 274,105 275,106 276,100 277,102 278,96 279,95 280,93 281,97 282,97 283,96 284,98 285,102 286,100 287,101 288,96 289,99 290,94 291,92 292,93 293,97 294,96 295,99 296,99 297,97 298,93 299,91 300,85 301,81 302,76 303,77 304,77 305,73 306,77 307,82 308,90 309,87 310,92 311,100 312,100 313,101 314,104 315,103 316,100 317,102 318,100 319,100 320,94 321,96 322,94 323,98 324,101 325,99 326,103 327,103 328,105 329,108 330,103 331,103 332,105 333,106 334,107 335,106 336,105 337,103 338,105 339,107 340,102 341,103 342,103 343,103 344,103 345,108 346,107 347,105 348,105 349,106 350,104 351,105 352,104 353,104 354,105 355,105 356,106 357,104 358,109 359,110 360,111 361,110 362,111 363,113 364,108 365,111 366,112 367,114 368,114 369,115 370,114 371,110 372,110 373,111 374,110 375,110 376,113 377,113 378,111 379,112 380,117 381,120 382,117 383,118 384,116 385,116 386,119 387,117 388,116 389,116 390,117 391,119 392,116 393,117 394,119 395,116 396,115 397,118 398,118 399,116 400,115 401,116 402,115 403,117 404,121 405,121 406,121 407,120 408,113 409,111 410,102 411,95 412,93 413,94 414,101 415,117 416,109 417,105 418,107 419,111 420,114 421,116 422,117 423,116 424,114 425,111 426,108 427,109 428,104 429,103 430,105 431,103 432,104 433,108 434,105 435,109 436,105 437,109 438,107 439,109 440,104 441,97 442,97 443,101 444,100 445,100 446,99 447,97 448,94 449,96 450,100 451,103 452,107 453,110 454,105 455,105 456,104 457,106 458,108 459,111 460,108 461,105 462,102 463,104 464,101 465,99 466,103 467,102 468,105 469,110 470,107 471,103 472,102 473,102 474,97 475,98 476,102 477,102 478,104 479,104 480,109 481,108 482,112 483,110 484,106 485,109 " />
</svg>
