<?xml version="1.0" encoding="utf-8" standalone="no"?>
<svg xmlns="http://www.w3.org/2000/svg" xmlns:xlink="http://www.w3.org/1999/xlink" width="500" height="135">
	<!-- Created by: InfluxDBWindSVG Version 2.20231016.1 Built on: Oct 16 2023 at 21:02:31 -->
	<style>
		text { font-family: sans-serif; font-size: 12px; fill: black; }
		line { stroke: black; }
		polygon { fill-opacity: 0.5; }
	</style>
	<rect style="fill-opacity:0;stroke:grey;stroke-width:2" width="500" height="135" />
	<text x="58" y="12">Sola Air Pressure</text>
	<text style="text-anchor:end" x="486" y="12">2023-10-17 05:13:32</text>
	<text style="fill:blue;text-anchor:middle" x="12" y="67" transform="rotate(270 12,67)">Pressure (1021.0 hPa)</text>
	<line x1="56" y1="14" x2="488" y2="14"/>
	<text style="fill:blue;text-anchor:end" x="56" y="19">1022.0</text>
	<line x1="56" y1="121" x2="488" y2="121"/>
	<text style="fill:blue;text-anchor:end" x="56" y="126">1008.0</text>
	<line x1="58" y1="14" x2="58" y2="121"/>
	<line x1="486" y1="14" x2="486" y2="121"/>
	<line style="stroke-dasharray:1" x1="56" y1="40" x2="488" y2="40" />
	<text style="fill:blue;text-anchor:end" x="56" y="44">1018.5</text>
	<line style="stroke-dasharray:1" x1="56" y1="66" x2="488" y2="66" />
	<text style="fill:blue;text-anchor:end" x="56" y="70">1015.0</text>
	<line style="stroke-dasharray:1" x1="56" y1="92" x2="488" y2="92" />
	<text style="fill:blue;text-anchor:end" x="56" y="96">1011.5</text>
	<line style="stroke-dasharray:1" x1="60" y1="14" x2="60" y2="123" />
	<line style="stroke-dasharray:1" x1="72" y1="14" x2="72" y2="123" />
	<text style="text-anchor:middle" x="72" y="133">4</text>
	<line style="stroke-dasharray:1" x1="84" y1="14" x2="84" y2="123" />
	<line style="stroke-dasharray:1" x1="96" y1="14" x2="96" y2="123" />
	<text style="text-anchor:middle" x="96" y="133">2</text>
	<line style="stroke-dasharray:1" x1="108" y1="14" x2="108" y2="123" />
	<line style="stroke:red" x1="120" y1="14" x2="120" y2="123" />
	<text style="text-anchor:middle" x="120" y="133">0</text>
	<line style="stroke-dasharray:1" x1="132" y1="14" x2="132" y2="123" />
	<line style="stroke-dasharray:1" x1="144" y1="14" x2="144" y2="123" />
	<text style="text-anchor:middle" x="144" y="133">22</text>
	<line style="stroke-dasharray:1" x1="156" y1="14" x2="156" y2="123" />
	<line style="stroke-dasharray:1" x1="168" y1="14" x2="168" y2="123" />
	<text style="text-anchor:middle" x="168" y="133">20</text>
	<line style="stroke-dasharray:1" x1="180" y1="14" x2="180" y2="123" />
	<line style="stroke-dasharray:1" x1="192" y1="14" x2="192" y2="123" />
	<text style="text-anchor:middle" x="192" y="133">18</text>
	<line style="stroke-dasharray:1" x1="204" y1="14" x2="204" y2="123" />
	<line style="stroke-dasharray:1" x1="216" y1="14" x2="216" y2="123" />
	<text style="text-anchor:middle" x="216" y="133">16</text>
	<line style="stroke-dasharray:1" x1="228" y1="14" x2="228" y2="123" />
	<line style="stroke-dasharray:1" x1="240" y1="14" x2="240" y2="123" />
	<text style="text-anchor:middle" x="240" y="133">14</text>
	<line style="stroke-dasharray:1" x1="252" y1="14" x2="252" y2="123" />
	<line style="stroke-dasharray:1" x1="264" y1="14" x2="264" y2="123" />
	<text style="text-anchor:middle" x="264" y="133">12</text>
	<line style="stroke-dasharray:1" x1="276" y1="14" x2="276" y2="123" />
	<line style="stroke-dasharray:1" x1="288" y1="14" x2="288" y2="123" />
	<text style="text-anchor:middle" x="288" y="133">10</text>
	<line style="stroke-dasharray:1" x1="300" y1="14" x2="300" y2="123" />
	<line style="stroke-dasharray:1" x1="312" y1="14" x2="312" y2="123" />
	<text style="text-anchor:middle" x="312" y="133">8</text>
	<line style="stroke-dasharray:1" x1="324" y1="14" x2="324" y2="123" />
	<line style="stroke-dasharray:1" x1="336" y1="14" x2="336" y2="123" />
	<text style="text-anchor:middle" x="336" y="133">6</text>
	<line style="stroke-dasharray:1" x1="348" y1="14" x2="348" y2="123" />
	<line style="stroke-dasharray:1" x1="360" y1="14" x2="360" y2="123" />
	<text style="text-anchor:middle" x="360" y="133">4</text>
	<line style="stroke-dasharray:1" x1="372" y1="14" x2="372" y2="123" />
	<line style="stroke-dasharray:1" x1="384" y1="14" x2="384" y2="123" />
	<text style="text-anchor:middle" x="384" y="133">2</text>
	<line style="stroke-dasharray:1" x1="396" y1="14" x2="396" y2="123" />
	<line style="stroke:red" x1="408" y1="14" x2="408" y2="123" />
	<text style="text-anchor:middle" x="408" y="133">0</text>
	<line style="stroke-dasharray:1" x1="420" y1="14" x2="420" y2="123" />
	<line style="stroke-dasharray:1" x1="432" y1="14" x2="432" y2="123" />
	<text style="text-anchor:middle" x="432" y="133">22</text>
	<line style="stroke-dasharray:1" x1="444" y1="14" x2="444" y2="123" />
	<line style="stroke-dasharray:1" x1="456" y1="14" x2="456" y2="123" />
	<text style="text-anchor:middle" x="456" y="133">20</text>
	<line style="stroke-dasharray:1" x1="468" y1="14" x2="468" y2="123" />
	<line style="stroke-dasharray:1" x1="480" y1="14" x2="480" y2="123" />
	<text style="text-anchor:middle" x="480" y="133">18</text>
	<polygon style="fill:red;stroke:red;fill-opacity:1;" points="55,121 61,118 61,124" />
	<!-- OutsidePressure MinMax -->
	<polygon style="fill:blue;stroke:blue" points="59,14 60,14 61,14 62,14 63,14 64,14 65,14 66,14 67,14 68,14 69,14 70,21 71,14 72,21 73,21 74,21 75,21 76,21 77,21 78,21 79,21 80,21 81,21 82,21 83,21 84,21 85,21 86,21 87,21 88,21 89,29 90,29 91,29 92,29 93,29 94,29 95,29 96,29 97,29 98,29 99,29 100,29 101,29 102,29 103,29 104,29 105,29 106,29 107,29 108,29 109,29 110,29 111,36 112,36 113,29 114,29 115,29 116,36 117,36 118,36 119,36 120,36 121,36 122,36 123,36 124,36 125,36 126,36 127,36 128,36 129,36 130,36 131,36 132,36 133,36 134,36 135,44 136,44 137,44 138,44 139,44 140,44 141,44 142,44 143,44 144,44 145,44 146,44 147,44 148,44 149,44 150,44 151,52 152,52 153,52 154,52 155,52 156,52 157,52 158,52 159,52 160,52 161,52 162,52 163,52 164,52 165,52 166,52 167,52 168,59 169,59 170,59 171,59 172,59 173,59 174,59 175,59 176,59 177,67 178,67 179,67 180,67 181,67 182,67 183,67 184,67 185,75 186,75 187,75 188,75 189,75 190,75 191,82 192,82 193,82 194,82 195,82 196,82 197,82 198,82 199,82 200,82 201,82 202,82 203,82 204,82 205,90 206,90 207,90 208,90 209,90 210,90 211,90 212,90 213,90 214,90 215,90 216,90 217,90 218,90 219,90 220,90 221,90 222,90 223,90 224,90 225,90 226,90 227,90 228,90 229,90 230,90 231,90 232,90 233,90 234,90 235,90 236,90 237,90 238,90 239,90 240,90 241,90 242,90 243,90 244,90 245,90 246,90 247,90 248,90 249,90 250,90 251,90 252,90 253,90 254,90 255,90 256,90 257,90 258,90 259,90 260,90 261,90 262,90 263,90 264,90 265,90 266,90 267,82 268,90 269,90 270,90 271,90 272,90 273,90 274,90 275,90 276,90 277,90 278,90 279,90 280,90 281,90 282,90 283,90 284,90 285,90 286,90 287,90 288,90 289,90 290,90 291,90 292,90 293,90 294,90 295,90 296,90 297,90 298,98 299,98 300,98 301,98 302,90 303,98 304,98 305,98 306,98 307,98 308,98 309,98 310,105 311,105 312,105 313,105 314,105 315,105 316,105 317,105 318,105 319,105 320,105 321,105 322,113 323,113 324,113 325,113 326,113 327,113 328,113 329,113 330,113 331,113 332,113 333,113 334,105 335,105 336,105 337,105 338,105 339,105 340,105 341,98 342,98 343,98 344,98 345,98 346,98 347,98 348,98 349,98 350,98 351,98 352,98 353,98 354,98 355,98 356,98 357,98 358,98 359,98 360,98 361,98 362,98 363,90 364,98 365,98 366,98 367,90 368,90 369,98 370,90 371,90 372,90 373,90 374,90 375,90 376,90 377,90 378,90 379,90 380,90 381,90 382,90 383,90 384,90 385,82 386,82 387,82 388,82 389,82 390,82 391,82 392,82 393,82 394,82 395,82 396,82 397,82 398,82 399,82 400,82 401,75 402,82 403,75 404,75 405,75 406,75 407,75 408,75 409,75 410,75 411,75 412,75 413,75 414,67 415,67 416,67 417,67 418,67 419,67 420,67 421,67 422,67 423,67 424,67 425,67 426,67 427,67 428,67 429,67 430,67 431,67 432,67 433,67 434,67 435,67 436,67 437,67 438,67 439,67 440,67 441,67 442,67 443,67 444,67 445,67 446,67 447,67 448,67 449,67 450,67 451,67 452,67 453,67 454,67 455,67 456,67 457,67 458,67 459,67 460,59 461,67 462,67 463,67 464,59 465,59 466,59 467,59 468,59 469,59 470,59 471,59 472,59 473,59 474,59 475,59 476,59 477,59 478,59 479,59 480,59 481,52 482,59 483,59 484,52 485,52 485,52 484,59 483,59 482,59 481,59 480,59 479,59 478,59 477,59 476,59 475,59 474,59 473,59 472,59 471,59 470,59 469,59 468,59 467,59 466,59 465,67 464,67 463,67 462,67 461,67 460,67 459,67 458,67 457,67 456,67 455,67 454,67 453,67 452,67 451,67 450,67 449,67 448,67 447,67 446,67 445,67 444,67 443,67 442,67 441,67 440,67 439,67 438,67 437,67 436,67 435,67 434,67 433,67 432,67 431,67 430,67 429,67 428,67 427,67 426,67 425,67 424,67 423,67 422,67 421,67 420,67 419,75 418,75 417,75 416,75 415,75 414,75 413,75 412,75 411,75 410,75 409,75 408,75 407,75 406,75 405,75 404,82 403,82 402,82 401,82 400,82 399,82 398,82 397,82 396,82 395,82 394,82 393,82 392,82 391,82 390,82 389,82 388,82 387,82 386,82 385,90 384,90 383,90 382,90 381,90 380,90 379,90 378,90 377,90 376,90 375,90 374,90 373,90 372,98 371,98 370,98 369,98 368,98 367,98 366,98 365,98 364,98 363,98 362,98 361,98 360,98 359,98 358,98 357,98 356,98 355,98 354,98 353,98 352,105 351,105 350,105 349,105 348,105 347,105 346,105 345,105 344,105 343,105 342,105 341,105 340,105 339,105 338,105 337,105 336,105 335,113 334,113 333,113 332,113 331,113 330,113 329,113 328,113 327,113 326,121 325,121 324,121 323,121 322,113 321,113 320,113 319,113 318,105 317,105 316,105 315,105 314,105 313,105 312,105 311,105 310,105 309,105 308,98 307,98 306,98 305,98 304,98 303,98 302,98 301,98 300,98 299,98 298,98 297,98 296,98 295,98 294,90 293,90 292,90 291,90 290,90 289,90 288,90 287,90 286,90 285,90 284,90 283,90 282,90 281,90 280,90 279,90 278,90 277,90 276,90 275,90 274,90 273,90 272,90 271,90 270,90 269,90 268,90 267,90 266,90 265,90 264,90 263,90 262,90 261,90 260,90 259,90 258,90 257,90 256,90 255,90 254,90 253,90 252,90 251,90 250,90 249,90 248,90 247,90 246,90 245,90 244,90 243,90 242,90 241,90 240,90 239,90 238,90 237,98 236,98 235,90 234,90 233,90 232,90 231,90 230,90 229,98 228,90 227,90 226,90 225,90 224,90 223,90 222,90 221,90 220,90 219,90 218,90 217,90 216,90 215,90 214,90 213,90 212,90 211,90 210,90 209,90 208,90 207,90 206,90 205,90 204,90 203,90 202,82 201,82 200,82 199,82 198,82 197,82 196,82 195,82 194,82 193,82 192,82 191,82 190,82 189,75 188,75 187,75 186,75 185,75 184,75 183,75 182,67 181,67 180,67 179,67 178,67 177,67 176,67 175,67 174,67 173,67 172,59 171,59 170,59 169,59 168,59 167,59 166,59 165,52 164,52 163,52 162,52 161,52 160,52 159,52 158,52 157,52 156,52 155,52 154,52 153,52 152,52 151,52 150,52 149,52 148,44 147,44 146,44 145,44 144,44 143,44 142,44 141,44 140,44 139,44 138,44 137,44 136,44 135,44 134,44 133,44 132,44 131,44 130,44 129,36 128,36 127,36 126,36 125,36 124,36 123,36 122,36 121,36 120,36 119,36 118,36 117,36 116,36 115,36 114,36 113,36 112,36 111,36 110,36 109,36 108,36 107,36 106,36 105,36 104,36 103,29 102,36 101,29 100,29 99,29 98,29 97,29 96,29 95,29 94,29 93,29 92,29 91,29 90,29 89,29 88,29 87,21 86,29 85,29 84,21 83,21 82,21 81,21 80,21 79,21 78,21 77,21 76,21 75,21 74,21 73,21 72,21 71,21 70,21 69,21 68,21 67,21 66,21 65,21 64,21 63,21 62,14 61,14 60,21 59,21 " />
	<!-- OutsidePressure -->
	<polyline style="fill:none;stroke:blue" points="59,21 60,14 61,14 62,14 63,14 64,20 65,20 66,15 67,14 68,21 69,21 70,21 71,21 72,21 73,21 74,21 75,21 76,21 77,21 78,21 79,21 80,21 81,21 82,21 83,21 84,21 85,21 86,21 87,21 88,26 89,29 90,29 91,29 92,29 93,29 94,29 95,29 96,29 97,29 98,29 99,29 100,29 101,29 102,29 103,29 104,31 105,34 106,32 107,35 108,31 109,30 110,36 111,36 112,36 113,36 114,36 115,36 116,36 117,36 118,36 119,36 120,36 121,36 122,36 123,36 124,36 125,36 126,36 127,36 128,36 129,36 130,37 131,38 132,38 133,40 134,44 135,44 136,44 137,44 138,44 139,44 140,44 141,44 142,44 143,44 144,44 145,44 146,44 147,44 148,44 149,44 150,49 151,52 152,52 153,52 154,52 155,52 156,52 157,52 158,52 159,52 160,52 161,52 162,52 163,52 164,52 165,52 166,52 167,59 168,59 169,59 170,59 171,59 172,59 173,60 174,64 175,67 176,67 177,67 178,67 179,67 180,67 181,67 182,67 183,67 184,73 185,75 186,75 187,75 188,75 189,75 190,78 191,82 192,82 193,82 194,82 195,82 196,82 197,82 198,82 199,82 200,82 201,82 202,82 203,83 204,89 205,90 206,90 207,90 208,90 209,90 210,90 211,90 212,90 213,90 214,90 215,90 216,90 217,90 218,90 219,90 220,90 221,90 222,90 223,90 224,90 225,90 226,90 227,90 228,90 229,90 230,90 231,90 232,90 233,90 234,90 235,90 236,90 237,91 238,90 239,90 240,90 241,90 242,90 243,90 244,90 245,90 246,90 247,90 248,90 249,90 250,90 251,90 252,90 253,90 254,90 255,90 256,90 257,90 258,90 259,90 260,90 261,90 262,90 263,90 264,90 265,90 266,90 267,90 268,90 269,90 270,90 271,90 272,90 273,90 274,90 275,90 276,90 277,90 278,90 279,90 280,90 281,90 282,90 283,90 284,90 285,90 286,90 287,90 288,90 289,90 290,90 291,90 292,90 293,90 294,90 295,90 296,90 297,97 298,98 299,98 300,98 301,98 302,98 303,98 304,98 305,98 306,98 307,98 308,98 309,102 310,105 311,105 312,105 313,105 314,105 315,105 316,105 317,105 318,105 319,106 320,105 321,113 322,113 323,114 324,118 325,113 326,115 327,113 328,113 329,113 330,113 331,113 332,113 333,113 334,110 335,105 336,105 337,105 338,105 339,105 340,105 341,105 342,105 343,103 344,99 345,101 346,105 347,105 348,104 349,100 350,104 351,105 352,99 353,98 354,98 355,98 356,98 357,98 358,98 359,98 360,98 361,98 362,98 363,96 364,98 365,98 366,98 367,94 368,93 369,98 370,95 371,96 372,91 373,90 374,90 375,90 376,90 377,90 378,90 379,90 380,90 381,90 382,90 383,90 384,90 385,87 386,82 387,82 388,82 389,82 390,82 391,82 392,82 393,82 394,82 395,82 396,82 397,82 398,82 399,82 400,82 401,82 402,82 403,82 404,77 405,75 406,75 407,75 408,75 409,75 410,75 411,75 412,75 413,75 414,75 415,74 416,69 417,67 418,68 419,72 420,67 421,67 422,67 423,67 424,67 425,67 426,67 427,67 428,67 429,67 430,67 431,67 432,67 433,67 434,67 435,67 436,67 437,67 438,67 439,67 440,67 441,67 442,67 443,67 444,67 445,67 446,67 447,67 448,67 449,67 450,67 451,67 452,67 453,67 454,67 455,67 456,67 457,67 458,67 459,67 460,67 461,67 462,67 463,67 464,62 465,60 466,59 467,59 468,59 469,59 470,59 471,59 472,59 473,59 474,59 475,59 476,59 477,59 478,59 479,59 480,59 481,59 482,59 483,59 484,57 485,52 " />
</svg>
