<?xml version="1.0" encoding="utf-8" standalone="no"?>
<svg xmlns="http://www.w3.org/2000/svg" xmlns:xlink="http://www.w3.org/1999/xlink" width="500" height="135">
	<!-- Created by: InfluxDBWindSVG Version 2.20231205.6 Built on: Dec  5 2023 at 10:23:51 -->
	<clipPath id="GraphRegion"><polygon points="58,14 486,14 486,121 58,121" /></clipPath>
	<style>
		text { font-family: sans-serif; font-size: 12px; fill: black; }
		line { stroke: black; }
		polygon { fill-opacity: 0.5; }
		.barometer-label { font-family: Georgia, serif; font-style: italic; font-size: 118px; opacity: 0.5; clip-path: url(#GraphRegion); text-anchor: middle; dominant-baseline: middle; }
	</style>
	<rect style="fill-opacity:0;stroke:grey;stroke-width:2" width="500" height="135" />
	<text x="58" y="12">Sola Air Pressure</text>
	<text style="text-anchor:end" x="486" y="12">2023-12-05 11:45:00</text>
	<text style="fill:blue;text-anchor:middle" x="12" y="50%" transform="rotate(270 12,67)">Pressure (1014.0 hPa)</text>
	<line x1="56" y1="14" x2="488" y2="14"/>
	<text style="fill:blue;text-anchor:end;dominant-baseline:middle" x="56" y="14">1019.0</text>
	<line x1="56" y1="121" x2="488" y2="121"/>
	<text style="fill:blue;text-anchor:end;dominant-baseline:middle" x="56" y="121">1010.0</text>
	<line x1="58" y1="14" x2="58" y2="121"/>
	<line x1="486" y1="14" x2="486" y2="121"/>
	<line style="stroke-dasharray:1" x1="56" y1="40" x2="488" y2="40" />
	<text style="fill:blue;text-anchor:end;dominant-baseline:middle" x="56" y="40">1016.8</text>
	<line style="stroke-dasharray:1" x1="56" y1="66" x2="488" y2="66" />
	<text style="fill:blue;text-anchor:end;dominant-baseline:middle" x="56" y="66">1014.5</text>
	<line style="stroke-dasharray:1" x1="56" y1="92" x2="488" y2="92" />
	<text style="fill:blue;text-anchor:end;dominant-baseline:middle" x="56" y="92">1012.2</text>
	<line style="stroke-dasharray:1" x1="66" y1="14" x2="66" y2="123" />
	<line style="stroke-dasharray:1" x1="78" y1="14" x2="78" y2="123" />
	<text style="text-anchor:middle" x="78" y="133">10</text>
	<line style="stroke-dasharray:1" x1="90" y1="14" x2="90" y2="123" />
	<line style="stroke-dasharray:1" x1="102" y1="14" x2="102" y2="123" />
	<text style="text-anchor:middle" x="102" y="133">8</text>
	<line style="stroke-dasharray:1" x1="114" y1="14" x2="114" y2="123" />
	<line style="stroke-dasharray:1" x1="126" y1="14" x2="126" y2="123" />
	<text style="text-anchor:middle" x="126" y="133">6</text>
	<line style="stroke-dasharray:1" x1="138" y1="14" x2="138" y2="123" />
	<line style="stroke-dasharray:1" x1="150" y1="14" x2="150" y2="123" />
	<text style="text-anchor:middle" x="150" y="133">4</text>
	<line style="stroke-dasharray:1" x1="162" y1="14" x2="162" y2="123" />
	<line style="stroke-dasharray:1" x1="174" y1="14" x2="174" y2="123" />
	<text style="text-anchor:middle" x="174" y="133">2</text>
	<line style="stroke-dasharray:1" x1="186" y1="14" x2="186" y2="123" />
	<line style="stroke:red" x1="198" y1="14" x2="198" y2="123" />
	<text style="text-anchor:middle" x="198" y="133">0</text>
	<line style="stroke-dasharray:1" x1="210" y1="14" x2="210" y2="123" />
	<line style="stroke-dasharray:1" x1="222" y1="14" x2="222" y2="123" />
	<text style="text-anchor:middle" x="222" y="133">22</text>
	<line style="stroke-dasharray:1" x1="234" y1="14" x2="234" y2="123" />
	<line style="stroke-dasharray:1" x1="246" y1="14" x2="246" y2="123" />
	<text style="text-anchor:middle" x="246" y="133">20</text>
	<line style="stroke-dasharray:1" x1="258" y1="14" x2="258" y2="123" />
	<line style="stroke-dasharray:1" x1="270" y1="14" x2="270" y2="123" />
	<text style="text-anchor:middle" x="270" y="133">18</text>
	<line style="stroke-dasharray:1" x1="282" y1="14" x2="282" y2="123" />
	<line style="stroke-dasharray:1" x1="294" y1="14" x2="294" y2="123" />
	<text style="text-anchor:middle" x="294" y="133">16</text>
	<line style="stroke-dasharray:1" x1="306" y1="14" x2="306" y2="123" />
	<line style="stroke-dasharray:1" x1="318" y1="14" x2="318" y2="123" />
	<text style="text-anchor:middle" x="318" y="133">14</text>
	<line style="stroke-dasharray:1" x1="330" y1="14" x2="330" y2="123" />
	<line style="stroke-dasharray:1" x1="342" y1="14" x2="342" y2="123" />
	<text style="text-anchor:middle" x="342" y="133">12</text>
	<line style="stroke-dasharray:1" x1="354" y1="14" x2="354" y2="123" />
	<line style="stroke-dasharray:1" x1="366" y1="14" x2="366" y2="123" />
	<text style="text-anchor:middle" x="366" y="133">10</text>
	<line style="stroke-dasharray:1" x1="378" y1="14" x2="378" y2="123" />
	<line style="stroke-dasharray:1" x1="390" y1="14" x2="390" y2="123" />
	<text style="text-anchor:middle" x="390" y="133">8</text>
	<line style="stroke-dasharray:1" x1="402" y1="14" x2="402" y2="123" />
	<line style="stroke-dasharray:1" x1="414" y1="14" x2="414" y2="123" />
	<text style="text-anchor:middle" x="414" y="133">6</text>
	<line style="stroke-dasharray:1" x1="426" y1="14" x2="426" y2="123" />
	<line style="stroke-dasharray:1" x1="438" y1="14" x2="438" y2="123" />
	<text style="text-anchor:middle" x="438" y="133">4</text>
	<line style="stroke-dasharray:1" x1="450" y1="14" x2="450" y2="123" />
	<line style="stroke-dasharray:1" x1="462" y1="14" x2="462" y2="123" />
	<text style="text-anchor:middle" x="462" y="133">2</text>
	<line style="stroke-dasharray:1" x1="474" y1="14" x2="474" y2="123" />
	<polygon style="fill:red;stroke:red;fill-opacity:1;" points="55,121 61,118 61,124" />
	<!-- OutsidePressure MinMax -->
	<polygon style="fill:blue;stroke:blue;clip-path:url(#GraphRegion)" points="59,73 60,73 61,73 62,73 63,61 64,61 65,61 66,61 67,61 68,61 69,73 70,61 71,73 72,73 73,73 74,73 75,73 76,73 77,73 78,73 79,73 80,73 81,73 82,73 83,73 84,73 85,73 86,73 87,73 88,73 89,73 90,73 91,73 92,73 93,73 94,73 95,73 96,73 97,73 98,85 99,85 100,85 101,85 102,85 103,85 104,85 105,85 106,85 107,85 108,85 109,85 110,85 111,85 112,85 113,85 114,97 115,97 116,97 117,97 118,97 119,97 120,85 121,85 122,85 123,85 124,85 125,85 126,97 127,97 128,97 129,97 130,97 131,97 132,97 133,97 134,97 135,97 136,97 137,109 138,109 139,109 140,97 141,97 142,97 143,97 144,97 145,97 146,97 147,97 148,97 149,97 150,97 151,97 152,97 153,97 154,97 155,97 156,97 157,97 158,97 159,97 160,97 161,97 162,97 163,97 164,97 165,97 166,97 167,97 168,97 169,97 170,97 171,97 172,97 173,97 174,97 175,97 176,97 177,97 178,97 179,97 180,97 181,109 182,109 183,109 184,109 185,109 186,109 187,109 188,109 189,109 190,109 191,109 192,109 193,97 194,97 195,109 196,97 197,97 198,97 199,97 200,97 201,97 202,97 203,97 204,97 205,97 206,97 207,97 208,97 209,97 210,97 211,97 212,97 213,97 214,97 215,97 216,97 217,97 218,109 219,109 220,97 221,97 222,109 223,109 224,109 225,109 226,109 227,109 228,109 229,109 230,109 231,109 232,109 233,109 234,109 235,109 236,109 237,109 238,109 239,109 240,109 241,109 242,109 243,109 244,109 245,109 246,109 247,109 248,109 249,109 250,109 251,109 252,109 253,109 254,109 255,109 256,97 257,97 258,97 259,97 260,97 261,109 262,109 263,97 264,97 265,97 266,97 267,97 268,97 269,109 270,109 271,97 272,97 273,97 274,97 275,109 276,109 277,109 278,109 279,109 280,109 281,109 282,109 283,109 284,109 285,109 286,109 287,109 288,109 289,109 290,109 291,109 292,97 293,97 294,97 295,97 296,97 297,97 298,97 299,97 300,97 301,97 302,97 303,97 304,97 305,97 306,97 307,97 308,97 309,97 310,97 311,97 312,97 313,85 314,85 315,85 316,85 317,85 318,85 319,85 320,85 321,85 322,85 323,85 324,85 325,85 326,85 327,85 328,85 329,85 330,73 331,73 332,73 333,85 334,85 335,85 336,85 337,85 338,73 339,73 340,73 341,73 342,73 343,73 344,73 345,73 346,73 347,73 348,73 349,73 350,73 351,73 352,73 353,73 354,73 355,73 356,73 357,73 358,73 359,73 360,61 361,61 362,61 363,61 364,61 365,61 366,61 367,61 368,61 369,61 370,61 371,61 372,61 373,61 374,61 375,61 376,61 377,61 378,61 379,61 380,61 381,61 382,61 383,61 384,49 385,49 386,49 387,49 388,49 389,49 390,49 391,49 392,61 393,61 394,61 395,61 396,61 397,61 398,61 399,61 400,61 401,49 402,49 403,49 404,49 405,49 406,49 407,49 408,49 409,49 410,49 411,49 412,37 413,37 414,37 415,37 416,37 417,37 418,37 419,37 420,37 421,37 422,37 423,37 424,25 425,25 426,25 427,25 428,25 429,25 430,25 431,25 432,25 433,25 434,25 435,25 436,25 437,25 438,14 439,14 440,14 441,14 442,14 443,14 444,14 445,14 446,14 447,14 448,14 449,14 450,14 451,14 452,14 453,14 454,14 455,14 456,14 457,14 458,14 459,14 460,14 461,14 462,14 463,14 464,14 465,14 466,14 467,14 468,14 469,14 470,14 471,14 472,14 473,14 474,25 475,25 476,25 477,25 478,25 479,25 480,25 481,25 482,25 483,25 484,25 485,25 485,25 484,25 483,25 482,25 481,25 480,25 479,25 478,25 477,25 476,25 475,25 474,25 473,25 472,25 471,25 470,14 469,14 468,14 467,14 466,14 465,14 464,14 463,14 462,14 461,14 460,14 459,14 458,14 457,14 456,14 455,14 454,14 453,14 452,14 451,14 450,14 449,14 448,14 447,14 446,14 445,14 444,14 443,14 442,14 441,25 440,25 439,25 438,25 437,25 436,25 435,25 434,25 433,25 432,25 431,25 430,25 429,25 428,25 427,25 426,25 425,37 424,37 423,37 422,37 421,37 420,37 419,37 418,37 417,37 416,37 415,49 414,49 413,49 412,49 411,49 410,49 409,49 408,49 407,49 406,49 405,49 404,49 403,49 402,61 401,61 400,61 399,61 398,61 397,61 396,61 395,61 394,61 393,61 392,61 391,61 390,61 389,61 388,61 387,49 386,61 385,61 384,61 383,61 382,61 381,61 380,61 379,61 378,61 377,61 376,61 375,61 374,61 373,61 372,61 371,61 370,61 369,61 368,61 367,61 366,61 365,61 364,61 363,61 362,61 361,73 360,73 359,73 358,73 357,73 356,73 355,73 354,73 353,73 352,73 351,73 350,73 349,73 348,73 347,73 346,73 345,73 344,73 343,73 342,73 341,85 340,85 339,85 338,85 337,85 336,85 335,85 334,85 333,85 332,85 331,85 330,85 329,85 328,85 327,85 326,85 325,85 324,85 323,85 322,85 321,97 320,97 319,97 318,97 317,85 316,97 315,97 314,97 313,97 312,97 311,97 310,97 309,97 308,97 307,97 306,97 305,97 304,97 303,97 302,97 301,97 300,97 299,97 298,97 297,97 296,97 295,97 294,97 293,109 292,109 291,109 290,109 289,109 288,109 287,109 286,121 285,121 284,121 283,109 282,109 281,109 280,109 279,109 278,109 277,109 276,109 275,109 274,109 273,109 272,109 271,109 270,109 269,109 268,109 267,109 266,97 265,97 264,109 263,109 262,109 261,109 260,109 259,97 258,97 257,109 256,109 255,109 254,109 253,109 252,109 251,109 250,109 249,109 248,109 247,109 246,109 245,109 244,109 243,109 242,121 241,121 240,121 239,121 238,121 237,121 236,121 235,109 234,109 233,109 232,109 231,109 230,109 229,109 228,109 227,109 226,109 225,109 224,109 223,109 222,109 221,109 220,109 219,109 218,109 217,109 216,97 215,97 214,97 213,97 212,97 211,97 210,97 209,97 208,97 207,97 206,97 205,97 204,97 203,97 202,97 201,97 200,97 199,97 198,97 197,109 196,109 195,109 194,109 193,109 192,109 191,109 190,109 189,109 188,109 187,109 186,109 185,109 184,109 183,109 182,109 181,109 180,109 179,109 178,109 177,109 176,109 175,109 174,109 173,109 172,109 171,109 170,109 169,109 168,109 167,109 166,109 165,109 164,109 163,97 162,97 161,97 160,97 159,97 158,97 157,97 156,97 155,97 154,97 153,97 152,97 151,97 150,97 149,97 148,97 147,97 146,97 145,97 144,97 143,97 142,109 141,109 140,109 139,109 138,109 137,109 136,109 135,109 134,109 133,97 132,97 131,97 130,97 129,97 128,97 127,97 126,97 125,97 124,97 123,85 122,97 121,97 120,97 119,97 118,97 117,109 116,109 115,97 114,97 113,97 112,97 111,97 110,97 109,97 108,97 107,97 106,97 105,85 104,85 103,85 102,85 101,85 100,85 99,85 98,85 97,85 96,85 95,85 94,85 93,85 92,85 91,85 90,73 89,73 88,73 87,73 86,73 85,73 84,73 83,73 82,73 81,73 80,73 79,73 78,73 77,73 76,73 75,73 74,73 73,73 72,73 71,73 70,73 69,73 68,73 67,73 66,61 65,73 64,73 63,73 62,73 61,73 60,73 59,73 " />
	<!-- OutsidePressure -->
	<polyline style="fill:none;stroke:blue;clip-path:url(#GraphRegion)" points="59,73 60,73 61,73 62,73 63,63 64,63 65,67 66,61 67,62 68,73 69,73 70,72 71,73 72,73 73,73 74,73 75,73 76,73 77,73 78,73 79,73 80,73 81,73 82,73 83,73 84,73 85,73 86,73 87,73 88,73 89,73 90,73 91,76 92,74 93,81 94,79 95,80 96,84 97,85 98,85 99,85 100,85 101,85 102,85 103,85 104,85 105,85 106,87 107,85 108,85 109,87 110,91 111,89 112,91 113,94 114,97 115,97 116,99 117,98 118,97 119,97 120,97 121,94 122,86 123,85 124,86 125,89 126,97 127,97 128,97 129,97 130,97 131,97 132,97 133,97 134,97 135,97 136,104 137,109 138,109 139,109 140,108 141,107 142,99 143,97 144,97 145,97 146,97 147,97 148,97 149,97 150,97 151,97 152,97 153,97 154,97 155,97 156,97 157,97 158,97 159,97 160,97 161,97 162,97 163,97 164,105 165,108 166,102 167,104 168,106 169,107 170,106 171,108 172,109 173,103 174,99 175,97 176,97 177,98 178,97 179,99 180,108 181,109 182,109 183,109 184,109 185,109 186,109 187,109 188,109 189,109 190,109 191,109 192,109 193,109 194,108 195,109 196,98 197,97 198,97 199,97 200,97 201,97 202,97 203,97 204,97 205,97 206,97 207,97 208,97 209,97 210,97 211,97 212,97 213,97 214,97 215,97 216,97 217,102 218,109 219,109 220,105 221,107 222,109 223,109 224,109 225,109 226,109 227,109 228,109 229,109 230,109 231,109 232,109 233,109 234,109 235,109 236,110 237,120 238,117 239,109 240,109 241,111 242,109 243,109 244,109 245,109 246,109 247,109 248,109 249,109 250,109 251,109 252,109 253,109 254,109 255,109 256,109 257,101 258,97 259,97 260,99 261,109 262,109 263,109 264,101 265,97 266,97 267,98 268,108 269,109 270,109 271,109 272,98 273,97 274,105 275,109 276,109 277,109 278,109 279,109 280,109 281,109 282,109 283,109 284,109 285,110 286,110 287,109 288,109 289,109 290,109 291,109 292,108 293,100 294,97 295,97 296,97 297,97 298,97 299,97 300,97 301,97 302,97 303,97 304,97 305,97 306,97 307,97 308,97 309,97 310,97 311,97 312,97 313,96 314,95 315,87 316,85 317,85 318,87 319,88 320,89 321,85 322,85 323,85 324,85 325,85 326,85 327,85 328,85 329,85 330,84 331,84 332,84 333,85 334,85 335,85 336,85 337,85 338,85 339,80 340,77 341,73 342,73 343,73 344,73 345,73 346,73 347,73 348,73 349,73 350,73 351,73 352,73 353,73 354,73 355,73 356,73 357,73 358,73 359,73 360,63 361,61 362,61 363,61 364,61 365,61 366,61 367,61 368,61 369,61 370,61 371,61 372,61 373,61 374,61 375,61 376,61 377,61 378,61 379,61 380,61 381,61 382,61 383,61 384,57 385,56 386,49 387,49 388,49 389,56 390,49 391,58 392,61 393,61 394,61 395,61 396,61 397,61 398,61 399,61 400,61 401,57 402,50 403,49 404,49 405,49 406,49 407,49 408,49 409,49 410,49 411,49 412,47 413,49 414,39 415,37 416,37 417,37 418,37 419,37 420,37 421,37 422,37 423,37 424,36 425,26 426,25 427,25 428,25 429,25 430,25 431,25 432,25 433,25 434,25 435,25 436,25 437,25 438,25 439,25 440,23 441,15 442,14 443,14 444,14 445,14 446,14 447,14 448,14 449,14 450,14 451,14 452,14 453,14 454,14 455,14 456,14 457,14 458,14 459,14 460,14 461,14 462,14 463,14 464,14 465,14 466,14 467,14 468,14 469,14 470,14 471,17 472,19 473,23 474,25 475,25 476,25 477,25 478,25 479,25 480,25 481,25 482,25 483,25 484,25 485,25 " />
	<text class="barometer-label" x="50%" y="549">Rain</text>
	<text class="barometer-label" x="50%" y="251">Change</text>
	<text class="barometer-label" x="50%" y="-45">Fair</text>
</svg>
