<?xml version="1.0" encoding="utf-8" standalone="no"?>
<svg xmlns="http://www.w3.org/2000/svg" xmlns:xlink="http://www.w3.org/1999/xlink" width="500" height="135">
	<!-- Created by: InfluxDBWindSVG Version 3.20240121.0 Built on: Jan 21 2024 at 14:44:53 -->
	<clipPath id="GraphRegion"><polygon points="66,14 470,14 470,121 66,121" /></clipPath>
	<style>
		text { font-family: sans-serif; font-size: 12px; fill: black; }
		line { stroke: black; }
		polygon { fill-opacity: 0.5; }
		.barometer-label { font-family: Georgia, serif; font-style: italic; font-size: 30px; opacity: 0.5; clip-path: url(#GraphRegion); text-anchor: middle; dominant-baseline: middle; }
	</style>
	<rect style="fill-opacity:0;stroke:grey;stroke-width:2" width="500" height="135" />
	<text x="66" y="12">Sola Wind Speed and Air Pressure</text>
	<text style="text-anchor:end" x="470" y="12">2024-01-21 14:30:00</text>
	<text style="fill:blue;text-anchor:middle" x="12" y="50%" transform="rotate(270 12,67)">Wind Speed (4.4 kn)</text>
	<text style="fill:blue;text-anchor:middle" x="24" y="50%" transform="rotate(270 24,67)">Wind Gust (8.8 kn)</text>
	<text style="fill:green;text-anchor:middle" x="36" y="50%" transform="rotate(270 36,67)">Pressure (998.0 hPa)</text>
	<line x1="64" y1="14" x2="472" y2="14"/>
	<text style="fill:blue;text-anchor:end;dominant-baseline:middle" x="64" y="14">22.3</text>
	<text style="fill:green;dominant-baseline:middle" x="472" y="14">1030.0</text>
	<line x1="64" y1="121" x2="472" y2="121"/>
	<text style="fill:blue;text-anchor:end;dominant-baseline:middle" x="64" y="121">0.0</text>
	<text style="fill:green;dominant-baseline:middle" x="472" y="121">995.0</text>
	<line x1="66" y1="14" x2="66" y2="121"/>
	<line x1="470" y1="14" x2="470" y2="121"/>
	<line style="stroke-dasharray:1" x1="64" y1="40" x2="472" y2="40" />
	<text style="fill:blue;text-anchor:end;dominant-baseline:middle" x="64" y="40">16.7</text>
	<text style="fill:green;dominant-baseline:middle" x="472" y="40">1021.2</text>
	<line style="stroke-dasharray:1" x1="64" y1="66" x2="472" y2="66" />
	<text style="fill:blue;text-anchor:end;dominant-baseline:middle" x="64" y="66">11.2</text>
	<text style="fill:green;dominant-baseline:middle" x="472" y="66">1012.5</text>
	<line style="stroke-dasharray:1" x1="64" y1="92" x2="472" y2="92" />
	<text style="fill:blue;text-anchor:end;dominant-baseline:middle" x="64" y="92">5.6</text>
	<text style="fill:green;dominant-baseline:middle" x="472" y="92">1003.8</text>
	<text style="text-anchor:middle" x="71" y="133">Sun</text>
	<line style="stroke:red" x1="95" y1="14" x2="95" y2="123" />
	<text style="text-anchor:middle" x="119" y="133">Sat</text>
	<line style="stroke-dasharray:1" x1="143" y1="14" x2="143" y2="123" />
	<text style="text-anchor:middle" x="167" y="133">Fri</text>
	<line style="stroke-dasharray:1" x1="191" y1="14" x2="191" y2="123" />
	<text style="text-anchor:middle" x="215" y="133">Thu</text>
	<line style="stroke-dasharray:1" x1="239" y1="14" x2="239" y2="123" />
	<text style="text-anchor:middle" x="263" y="133">Wed</text>
	<line style="stroke-dasharray:1" x1="287" y1="14" x2="287" y2="123" />
	<text style="text-anchor:middle" x="311" y="133">Tue</text>
	<line style="stroke-dasharray:1" x1="335" y1="14" x2="335" y2="123" />
	<text style="text-anchor:middle" x="359" y="133">Mon</text>
	<line style="stroke-dasharray:1" x1="383" y1="14" x2="383" y2="123" />
	<text style="text-anchor:middle" x="407" y="133">Sun</text>
	<line style="stroke:red" x1="431" y1="14" x2="431" y2="123" />
	<text style="text-anchor:middle" x="455" y="133">Sat</text>
	<polygon style="fill:red;stroke:red;fill-opacity:1;" points="63,121 69,118 69,124" />
	<!-- ApparentWindSpeed MinMax -->
	<polygon style="fill:blue;stroke:blue;clip-path:url(#GraphRegion)" points="67,71 68,74 69,94 70,100 71,106 72,110 73,110 74,98 75,85 76,74 77,78 78,80 79,72 80,72 81,71 82,75 83,72 84,80 85,100 86,103 87,110 88,113 89,107 90,111 91,116 92,112 93,106 94,103 95,85 96,65 97,74 98,83 99,83 100,90 101,92 102,105 103,113 104,118 105,112 106,110 107,98 108,93 109,85 110,77 111,69 112,66 113,67 114,74 115,74 116,72 117,76 118,73 119,81 120,88 121,102 122,105 123,110 124,107 125,103 126,108 127,89 128,82 129,110 130,110 131,108 132,87 133,93 134,110 135,106 136,108 137,104 138,96 139,94 140,86 141,83 142,81 143,85 144,83 145,97 146,105 147,107 148,112 149,90 150,89 151,76 152,87 153,97 154,107 155,105 156,110 157,113 158,98 159,93 160,99 161,81 162,59 163,98 164,85 165,88 166,96 167,97 168,104 169,94 170,90 171,105 172,106 173,76 174,81 175,100 176,106 177,103 178,93 179,103 180,88 181,101 182,96 183,110 184,101 185,99 186,106 187,110 188,105 189,89 190,108 191,107 192,104 193,98 194,99 195,97 196,103 197,108 198,113 199,112 200,115 201,114 202,108 203,103 204,98 205,88 206,86 207,92 208,93 209,87 210,84 211,90 212,88 213,86 214,82 215,76 216,85 217,76 218,60 219,66 220,90 221,82 222,87 223,87 224,88 225,99 226,96 227,96 228,89 229,107 230,106 231,97 232,108 233,100 234,110 235,113 236,93 237,91 238,91 239,92 240,85 241,86 242,81 243,95 244,99 245,102 246,104 247,107 248,98 249,93 250,103 251,102 252,98 253,99 254,97 255,93 256,96 257,97 258,92 259,79 260,58 261,21 262,14 263,20 264,37 265,49 266,51 267,69 268,58 269,63 270,67 271,73 272,65 273,63 274,72 275,81 276,87 277,79 278,90 279,85 280,86 281,75 282,79 283,93 284,107 285,102 286,96 287,93 288,100 289,104 290,105 291,99 292,106 293,94 294,96 295,105 296,108 297,107 298,103 299,100 300,110 301,113 302,112 303,101 304,109 305,107 306,104 307,95 308,94 309,93 310,98 311,108 312,95 313,87 314,98 315,89 316,102 317,96 318,95 319,97 320,89 321,80 322,70 323,72 324,70 325,87 326,84 327,95 328,114 329,91 330,82 331,94 332,106 333,93 334,85 335,88 336,100 337,101 338,110 339,107 340,105 341,95 342,86 343,82 344,92 345,91 346,101 347,105 348,110 349,95 350,87 351,85 352,72 353,64 354,72 355,97 356,94 357,102 358,97 359,97 360,88 361,103 362,95 363,85 364,98 365,77 366,87 367,86 368,89 369,94 370,94 371,83 372,91 373,80 374,82 375,80 376,77 377,78 378,73 379,55 380,77 381,62 382,58 383,69 384,76 385,82 386,79 387,86 388,93 389,96 390,89 391,81 392,85 393,85 394,90 395,90 396,87 397,83 398,76 399,79 400,87 401,96 402,90 403,90 404,90 405,91 406,99 407,98 408,94 409,99 410,88 411,81 412,77 413,79 414,79 415,72 416,82 417,80 418,74 419,76 420,80 421,83 422,99 423,94 424,102 425,100 426,82 427,85 428,71 429,83 430,83 431,93 432,90 433,97 434,92 435,84 436,77 437,74 438,77 439,79 440,59 441,76 442,84 443,49 444,64 445,65 446,75 447,88 448,84 449,77 450,60 451,60 452,51 453,42 454,68 455,69 456,69 457,82 458,80 459,64 460,79 461,84 462,76 463,70 464,87 465,88 466,103 467,105 468,85 469,94 469,109 468,106 467,114 466,114 465,111 464,106 463,99 462,99 461,102 460,103 459,102 458,103 457,103 456,97 455,93 454,90 453,91 452,91 451,92 450,94 449,99 448,101 447,104 446,100 445,102 444,94 443,96 442,104 441,103 440,94 439,100 438,95 437,88 436,94 435,105 434,108 433,109 432,105 431,108 430,101 429,95 428,89 427,106 426,108 425,114 424,114 423,111 422,113 421,104 420,93 419,94 418,88 417,93 416,91 415,86 414,91 413,89 412,90 411,95 410,103 409,111 408,113 407,110 406,113 405,107 404,101 403,104 402,105 401,108 400,104 399,98 398,95 397,103 396,103 395,102 394,102 393,98 392,98 391,97 390,103 389,109 388,110 387,108 386,100 385,104 384,98 383,91 382,85 381,102 380,104 379,83 378,93 377,101 376,99 375,105 374,100 373,103 372,105 371,102 370,110 369,107 368,103 367,103 366,102 365,102 364,113 363,107 362,111 361,114 360,112 359,109 358,109 357,110 356,109 355,111 354,106 353,85 352,95 351,98 350,102 349,110 348,115 347,112 346,114 345,104 344,105 343,102 342,106 341,112 340,113 339,114 338,117 337,116 336,110 335,101 334,99 333,102 332,116 331,105 330,102 329,113 328,117 327,117 326,101 325,101 324,86 323,82 322,83 321,92 320,106 319,112 318,108 317,107 316,110 315,108 314,109 313,105 312,111 311,117 310,111 309,105 308,111 307,112 306,113 305,114 304,114 303,117 302,115 301,116 300,118 299,117 298,111 297,112 296,113 295,111 294,109 293,108 292,114 291,113 290,116 289,114 288,113 287,105 286,108 285,112 284,115 283,109 282,102 281,100 280,106 279,104 278,106 277,102 276,106 275,107 274,99 273,95 272,94 271,98 270,90 269,90 268,84 267,91 266,91 265,79 264,78 263,57 262,54 261,72 260,93 259,103 258,110 257,107 256,108 255,105 254,108 253,111 252,111 251,112 250,115 249,114 248,109 247,114 246,111 245,109 244,106 243,106 242,93 241,97 240,103 239,108 238,117 237,108 236,112 235,117 234,117 233,113 232,114 231,114 230,114 229,113 228,106 227,109 226,104 225,112 224,103 223,100 222,100 221,97 220,111 219,100 218,98 217,106 216,106 215,102 214,104 213,108 212,107 211,110 210,108 209,109 208,110 207,110 206,108 205,108 204,111 203,110 202,115 201,118 200,118 199,116 198,116 197,115 196,113 195,106 194,106 193,115 192,114 191,115 190,114 189,110 188,114 187,117 186,114 185,109 184,114 183,116 182,113 181,115 180,110 179,114 178,109 177,113 176,114 175,110 174,111 173,103 172,114 171,116 170,103 169,109 168,114 167,112 166,106 165,104 164,103 163,109 162,97 161,104 160,114 159,109 158,113 157,117 156,115 155,113 154,117 153,109 152,100 151,95 150,104 149,108 148,118 147,115 146,114 145,111 144,99 143,98 142,96 141,98 140,101 139,105 138,110 137,112 136,115 135,115 134,116 133,114 132,102 131,115 130,117 129,115 128,110 127,105 126,115 125,113 124,118 123,117 122,111 121,110 120,103 119,96 118,89 117,90 116,85 115,89 114,89 113,84 112,86 111,86 110,93 109,99 108,107 107,109 106,116 105,117 104,120 103,118 102,115 101,109 100,107 99,101 98,105 97,104 96,100 95,104 94,111 93,116 92,119 91,118 90,119 89,114 88,118 87,119 86,113 85,109 84,106 83,101 82,100 81,100 80,102 79,101 78,103 77,100 76,101 75,106 74,114 73,118 72,115 71,113 70,112 69,114 68,102 67,99 " />
	<!-- OutsidePressure MinMax -->
	<polygon style="fill:green;stroke:green;clip-path:url(#GraphRegion)" points="67,108 68,108 69,105 70,105 71,105 72,105 73,105 74,105 75,108 76,105 77,105 78,105 79,105 80,105 81,105 82,105 83,105 84,105 85,105 86,105 87,105 88,105 89,105 90,105 91,105 92,105 93,105 94,105 95,105 96,105 97,108 98,105 99,105 100,105 101,105 102,108 103,108 104,108 105,108 106,108 107,108 108,105 109,108 110,108 111,108 112,108 113,108 114,108 115,105 116,105 117,102 118,102 119,99 120,99 121,96 122,96 123,96 124,93 125,93 126,93 127,93 128,93 129,93 130,93 131,90 132,90 133,90 134,87 135,87 136,87 137,84 138,84 139,84 140,84 141,81 142,81 143,81 144,78 145,78 146,78 147,78 148,78 149,75 150,75 151,75 152,75 153,75 154,75 155,72 156,72 157,72 158,69 159,69 160,69 161,69 162,65 163,65 164,62 165,62 166,62 167,62 168,62 169,59 170,59 171,59 172,59 173,59 174,59 175,59 176,59 177,59 178,59 179,59 180,56 181,56 182,53 183,53 184,53 185,50 186,50 187,50 188,50 189,50 190,50 191,50 192,47 193,47 194,47 195,47 196,44 197,44 198,44 199,44 200,41 201,44 202,44 203,44 204,44 205,44 206,41 207,41 208,41 209,41 210,41 211,41 212,41 213,41 214,41 215,41 216,41 217,41 218,41 219,44 220,44 221,44 222,44 223,47 224,47 225,47 226,50 227,50 228,50 229,50 230,50 231,47 232,50 233,50 234,50 235,50 236,50 237,50 238,50 239,53 240,53 241,56 242,59 243,59 244,59 245,62 246,65 247,69 248,69 249,72 250,75 251,75 252,78 253,78 254,81 255,81 256,84 257,87 258,93 259,93 260,96 261,102 262,105 263,105 264,111 265,111 266,114 267,117 268,117 269,117 270,117 271,114 272,114 273,111 274,108 275,108 276,105 277,105 278,102 279,99 280,99 281,99 282,96 283,96 284,93 285,93 286,90 287,90 288,90 289,87 290,87 291,87 292,84 293,84 294,84 295,81 296,81 297,78 298,78 299,78 300,75 301,75 302,72 303,72 304,69 305,69 306,65 307,62 308,62 309,59 310,56 311,56 312,53 313,53 314,53 315,50 316,50 317,50 318,50 319,47 320,47 321,44 322,44 323,41 324,41 325,38 326,38 327,35 328,35 329,32 330,32 331,32 332,32 333,29 334,29 335,26 336,26 337,26 338,26 339,26 340,23 341,23 342,23 343,23 344,23 345,23 346,23 347,23 348,20 349,20 350,20 351,17 352,17 353,17 354,17 355,14 356,14 357,14 358,14 359,14 360,14 361,14 362,14 363,14 364,14 365,14 366,14 367,14 368,14 369,14 370,14 371,14 372,14 373,14 374,14 375,14 376,14 377,14 378,14 379,14 380,14 381,14 382,17 383,17 384,17 385,17 386,20 387,20 388,20 389,20 390,20 391,20 392,20 393,23 394,23 395,23 396,26 397,26 398,26 399,29 400,29 401,29 402,29 403,29 404,29 405,29 406,29 407,29 408,29 409,29 410,29 411,32 412,32 413,35 414,35 415,38 416,38 417,38 418,41 419,44 420,44 421,47 422,47 423,47 424,47 425,47 426,50 427,50 428,53 429,53 430,53 431,56 432,56 433,59 434,59 435,62 436,62 437,62 438,62 439,62 440,65 441,65 442,69 443,69 444,69 445,72 446,72 447,75 448,75 449,75 450,72 451,72 452,72 453,69 454,69 455,62 456,59 457,59 458,56 459,56 460,53 461,53 462,53 463,50 464,50 465,47 466,44 467,44 468,41 469,41 469,41 468,44 467,47 466,47 465,50 464,53 463,53 462,53 461,53 460,56 459,56 458,59 457,62 456,65 455,69 454,69 453,72 452,72 451,75 450,75 449,75 448,75 447,75 446,75 445,72 444,72 443,69 442,69 441,69 440,65 439,65 438,65 437,62 436,62 435,62 434,62 433,62 432,59 431,56 430,56 429,53 428,53 427,53 426,50 425,50 424,50 423,50 422,47 421,47 420,47 419,44 418,44 417,41 416,41 415,41 414,38 413,38 412,35 411,32 410,32 409,29 408,29 407,29 406,29 405,29 404,29 403,29 402,29 401,29 400,29 399,29 398,29 397,26 396,26 395,26 394,23 393,23 392,23 391,20 390,20 389,20 388,20 387,20 386,20 385,20 384,17 383,17 382,17 381,17 380,14 379,14 378,14 377,14 376,14 375,14 374,14 373,17 372,17 371,17 370,14 369,14 368,14 367,17 366,14 365,14 364,14 363,14 362,14 361,14 360,14 359,14 358,14 357,17 356,17 355,17 354,17 353,17 352,17 351,20 350,20 349,23 348,23 347,23 346,23 345,26 344,26 343,26 342,23 341,26 340,26 339,26 338,26 337,26 336,29 335,29 334,29 333,32 332,32 331,35 330,35 329,35 328,35 327,38 326,38 325,41 324,44 323,44 322,47 321,47 320,47 319,50 318,50 317,50 316,50 315,53 314,53 313,56 312,56 311,56 310,59 309,62 308,62 307,65 306,69 305,69 304,72 303,72 302,75 301,75 300,78 299,81 298,81 297,81 296,81 295,84 294,84 293,84 292,87 291,87 290,90 289,90 288,90 287,93 286,93 285,96 284,96 283,99 282,99 281,99 280,102 279,102 278,105 277,108 276,108 275,108 274,111 273,114 272,114 271,117 270,117 269,121 268,117 267,117 266,117 265,114 264,111 263,111 262,105 261,105 260,102 259,99 258,96 257,93 256,87 255,84 254,81 253,81 252,78 251,78 250,75 249,75 248,72 247,69 246,69 245,65 244,62 243,59 242,59 241,59 240,56 239,53 238,53 237,50 236,50 235,50 234,50 233,50 232,50 231,50 230,50 229,50 228,50 227,50 226,50 225,50 224,50 223,47 222,47 221,44 220,44 219,44 218,44 217,44 216,41 215,41 214,41 213,41 212,44 211,44 210,44 209,44 208,44 207,44 206,44 205,44 204,44 203,44 202,44 201,44 200,44 199,44 198,44 197,44 196,47 195,47 194,47 193,47 192,50 191,50 190,50 189,50 188,50 187,50 186,53 185,53 184,56 183,56 182,59 181,56 180,59 179,62 178,62 177,59 176,59 175,62 174,62 173,62 172,62 171,62 170,62 169,62 168,62 167,62 166,62 165,62 164,65 163,65 162,69 161,69 160,69 159,72 158,72 157,72 156,72 155,75 154,75 153,75 152,75 151,75 150,78 149,78 148,78 147,78 146,78 145,81 144,81 143,81 142,84 141,84 140,84 139,84 138,84 137,87 136,87 135,90 134,90 133,90 132,93 131,93 130,93 129,93 128,93 127,93 126,93 125,93 124,96 123,96 122,96 121,99 120,99 119,102 118,105 117,105 116,105 115,108 114,108 113,108 112,108 111,108 110,108 109,108 108,108 107,108 106,108 105,108 104,108 103,108 102,108 101,108 100,108 99,105 98,108 97,108 96,108 95,108 94,108 93,108 92,108 91,108 90,108 89,108 88,105 87,105 86,105 85,105 84,105 83,105 82,108 81,108 80,108 79,108 78,108 77,108 76,108 75,108 74,108 73,108 72,105 71,108 70,108 69,108 68,111 67,111 " />
	<!-- ApparentWindSpeed -->
	<polyline style="fill:none;stroke:blue;clip-path:url(#GraphRegion)" points="67,99 68,102 69,114 70,112 71,113 72,115 73,118 74,114 75,106 76,101 77,100 78,103 79,101 80,102 81,100 82,100 83,101 84,106 85,109 86,113 87,119 88,118 89,114 90,119 91,118 92,119 93,116 94,111 95,104 96,100 97,104 98,105 99,101 100,107 101,109 102,115 103,118 104,120 105,117 106,116 107,109 108,107 109,99 110,93 111,86 112,86 113,84 114,89 115,89 116,85 117,90 118,89 119,96 120,103 121,110 122,111 123,117 124,118 125,113 126,115 127,105 128,110 129,115 130,117 131,115 132,102 133,114 134,116 135,115 136,115 137,112 138,110 139,105 140,101 141,98 142,96 143,98 144,99 145,111 146,114 147,115 148,118 149,108 150,104 151,95 152,100 153,109 154,117 155,113 156,115 157,117 158,113 159,109 160,114 161,104 162,97 163,109 164,103 165,104 166,106 167,112 168,114 169,109 170,103 171,116 172,114 173,103 174,111 175,110 176,114 177,113 178,109 179,114 180,110 181,115 182,113 183,116 184,114 185,109 186,114 187,117 188,114 189,110 190,114 191,115 192,114 193,115 194,106 195,106 196,113 197,115 198,116 199,116 200,118 201,118 202,115 203,110 204,111 205,108 206,108 207,110 208,110 209,109 210,108 211,110 212,107 213,108 214,104 215,102 216,106 217,106 218,98 219,100 220,111 221,97 222,100 223,100 224,103 225,112 226,104 227,109 228,106 229,113 230,114 231,114 232,114 233,113 234,117 235,117 236,112 237,108 238,117 239,108 240,103 241,97 242,93 243,106 244,106 245,109 246,111 247,114 248,109 249,114 250,115 251,112 252,111 253,111 254,108 255,105 256,108 257,107 258,110 259,103 260,93 261,72 262,54 263,57 264,78 265,79 266,91 267,91 268,84 269,90 270,90 271,98 272,94 273,95 274,99 275,107 276,106 277,102 278,106 279,104 280,106 281,100 282,102 283,109 284,115 285,112 286,108 287,105 288,113 289,114 290,116 291,113 292,114 293,108 294,109 295,111 296,113 297,112 298,111 299,117 300,118 301,116 302,115 303,117 304,114 305,114 306,113 307,112 308,111 309,105 310,111 311,117 312,111 313,105 314,109 315,108 316,110 317,107 318,108 319,112 320,106 321,92 322,83 323,82 324,86 325,101 326,101 327,117 328,117 329,113 330,102 331,105 332,116 333,102 334,99 335,101 336,110 337,116 338,117 339,114 340,113 341,112 342,106 343,102 344,105 345,104 346,114 347,112 348,115 349,110 350,102 351,98 352,95 353,85 354,106 355,111 356,109 357,110 358,109 359,109 360,112 361,114 362,111 363,107 364,113 365,102 366,102 367,103 368,103 369,107 370,110 371,102 372,105 373,103 374,100 375,105 376,99 377,101 378,93 379,83 380,104 381,102 382,85 383,91 384,98 385,104 386,100 387,108 388,110 389,109 390,103 391,97 392,98 393,98 394,102 395,102 396,103 397,103 398,95 399,98 400,104 401,108 402,105 403,104 404,101 405,107 406,113 407,110 408,113 409,111 410,103 411,95 412,90 413,89 414,91 415,86 416,91 417,93 418,88 419,94 420,93 421,104 422,113 423,111 424,114 425,114 426,108 427,106 428,89 429,95 430,101 431,108 432,105 433,109 434,108 435,105 436,94 437,88 438,95 439,100 440,94 441,103 442,104 443,96 444,94 445,102 446,100 447,104 448,101 449,99 450,94 451,92 452,91 453,91 454,90 455,93 456,97 457,103 458,103 459,102 460,103 461,102 462,99 463,99 464,106 465,111 466,114 467,114 468,106 469,109 " />
	<!-- OutsidePressure -->
	<polyline style="fill:none;stroke:green;clip-path:url(#GraphRegion)" points="67,111 68,108 69,108 70,106 71,106 72,105 73,106 74,107 75,108 76,108 77,107 78,107 79,105 80,107 81,106 82,105 83,105 84,105 85,105 86,105 87,105 88,105 89,105 90,105 91,106 92,106 93,105 94,106 95,107 96,107 97,108 98,106 99,105 100,106 101,108 102,108 103,108 104,108 105,108 106,108 107,108 108,108 109,108 110,108 111,108 112,108 113,108 114,108 115,106 116,105 117,105 118,102 119,102 120,99 121,97 122,96 123,96 124,94 125,93 126,93 127,93 128,93 129,93 130,93 131,93 132,91 133,90 134,90 135,87 136,87 137,85 138,84 139,84 140,84 141,83 142,82 143,81 144,81 145,78 146,78 147,78 148,78 149,78 150,75 151,75 152,75 153,75 154,75 155,74 156,72 157,72 158,71 159,69 160,69 161,69 162,68 163,65 164,64 165,62 166,62 167,62 168,62 169,62 170,61 171,59 172,60 173,62 174,62 175,59 176,59 177,59 178,61 179,59 180,59 181,56 182,56 183,54 184,53 185,53 186,51 187,50 188,50 189,50 190,50 191,50 192,48 193,47 194,47 195,47 196,46 197,44 198,44 199,44 200,44 201,44 202,44 203,44 204,44 205,44 206,42 207,42 208,44 209,42 210,42 211,44 212,41 213,41 214,41 215,41 216,41 217,41 218,44 219,44 220,44 221,44 222,46 223,47 224,47 225,49 226,50 227,50 228,50 229,50 230,50 231,49 232,50 233,50 234,50 235,50 236,50 237,50 238,52 239,53 240,55 241,57 242,59 243,59 244,62 245,63 246,66 247,69 248,71 249,73 250,75 251,76 252,78 253,80 254,81 255,83 256,86 257,89 258,93 259,96 260,99 261,102 262,105 263,108 264,111 265,112 266,115 267,117 268,117 269,117 270,117 271,115 272,114 273,113 274,111 275,108 276,108 277,105 278,104 279,102 280,99 281,99 282,99 283,96 284,96 285,94 286,93 287,90 288,90 289,89 290,87 291,87 292,86 293,84 294,84 295,83 296,81 297,81 298,81 299,78 300,76 301,75 302,73 303,72 304,69 305,69 306,67 307,65 308,62 309,62 310,59 311,56 312,55 313,53 314,53 315,52 316,50 317,50 318,50 319,48 320,47 321,47 322,44 323,44 324,42 325,40 326,38 327,37 328,35 329,35 330,32 331,32 332,32 333,29 334,29 335,29 336,27 337,26 338,26 339,26 340,25 341,23 342,23 343,23 344,23 345,23 346,23 347,23 348,23 349,22 350,20 351,19 352,17 353,17 354,17 355,16 356,16 357,14 358,14 359,14 360,14 361,14 362,14 363,14 364,14 365,14 366,14 367,14 368,14 369,14 370,14 371,15 372,16 373,15 374,14 375,14 376,14 377,14 378,14 379,14 380,14 381,16 382,17 383,17 384,17 385,17 386,20 387,20 388,20 389,20 390,20 391,20 392,22 393,23 394,23 395,25 396,26 397,26 398,27 399,29 400,29 401,29 402,29 403,29 404,29 405,29 406,29 407,29 408,29 409,29 410,31 411,32 412,35 413,35 414,38 415,38 416,39 417,41 418,41 419,44 420,44 421,47 422,47 423,49 424,50 425,50 426,50 427,52 428,53 429,53 430,54 431,56 432,58 433,60 434,62 435,62 436,62 437,62 438,63 439,65 440,65 441,66 442,69 443,69 444,69 445,72 446,72 447,75 448,75 449,75 450,75 451,73 452,72 453,70 454,69 455,66 456,62 457,59 458,58 459,56 460,56 461,53 462,53 463,53 464,50 465,48 466,47 467,44 468,43 469,41 " />
	<text class="barometer-label" x="50%" y="185">Rain</text>
	<text class="barometer-label" x="50%" y="108">Change</text>
	<text class="barometer-label" x="50%" y="32">Fair</text>
</svg>
