<?xml version="1.0" encoding="utf-8" standalone="no"?>
<svg xmlns="http://www.w3.org/2000/svg" xmlns:xlink="http://www.w3.org/1999/xlink" width="500" height="135">
	<!-- Created by: InfluxDBWindSVG Version 1.20230905-1 Built on: Sep  5 2023 at 10:50:30 -->
	<style>
		text { font-family: sans-serif; font-size: 12px; fill: black; }
		line { stroke: black; }
		polygon { fill-opacity: 0.5; }
	</style>
	<rect style="fill-opacity:0;stroke:grey;stroke-width:2" width="500" height="135" />
	<text x="46" y="12">Sola Apparent Wind Speed</text>
	<text style="text-anchor:end" x="486" y="12">2023-09-05 10:51:31</text>
	<text style="fill:blue;text-anchor:middle" x="12" y="67" transform="rotate(270 12,67)">Wind Speed (5.6 kn)</text>
	<line x1="44" y1="14" x2="488" y2="14"/>
	<text style="fill:blue;text-anchor:end" x="44" y="19">13.6</text>
	<line x1="44" y1="121" x2="488" y2="121"/>
	<text style="fill:blue;text-anchor:end" x="44" y="126">0.0</text>
	<line x1="46" y1="14" x2="46" y2="121"/>
	<line x1="486" y1="14" x2="486" y2="121"/>
	<line style="stroke-dasharray:1" x1="44" y1="40" x2="488" y2="40" />
	<text style="fill:blue;text-anchor:end" x="44" y="44">10.2</text>
	<line style="stroke-dasharray:1" x1="44" y1="66" x2="488" y2="66" />
	<text style="fill:blue;text-anchor:end" x="44" y="70">6.8</text>
	<line style="stroke-dasharray:1" x1="44" y1="92" x2="488" y2="92" />
	<text style="fill:blue;text-anchor:end" x="44" y="96">3.4</text>
	<line style="stroke-dasharray:1" x1="56" y1="14" x2="56" y2="123" />
	<text style="text-anchor:middle" x="56" y="133">10</text>
	<line style="stroke-dasharray:1" x1="68" y1="14" x2="68" y2="123" />
	<line style="stroke-dasharray:1" x1="80" y1="14" x2="80" y2="123" />
	<text style="text-anchor:middle" x="80" y="133">8</text>
	<line style="stroke-dasharray:1" x1="92" y1="14" x2="92" y2="123" />
	<line style="stroke-dasharray:1" x1="104" y1="14" x2="104" y2="123" />
	<text style="text-anchor:middle" x="104" y="133">6</text>
	<line style="stroke-dasharray:1" x1="116" y1="14" x2="116" y2="123" />
	<line style="stroke-dasharray:1" x1="128" y1="14" x2="128" y2="123" />
	<text style="text-anchor:middle" x="128" y="133">4</text>
	<line style="stroke-dasharray:1" x1="140" y1="14" x2="140" y2="123" />
	<line style="stroke-dasharray:1" x1="152" y1="14" x2="152" y2="123" />
	<text style="text-anchor:middle" x="152" y="133">2</text>
	<line style="stroke-dasharray:1" x1="164" y1="14" x2="164" y2="123" />
	<line style="stroke:red" x1="176" y1="14" x2="176" y2="123" />
	<text style="text-anchor:middle" x="176" y="133">0</text>
	<line style="stroke-dasharray:1" x1="188" y1="14" x2="188" y2="123" />
	<line style="stroke-dasharray:1" x1="200" y1="14" x2="200" y2="123" />
	<text style="text-anchor:middle" x="200" y="133">22</text>
	<line style="stroke-dasharray:1" x1="212" y1="14" x2="212" y2="123" />
	<line style="stroke-dasharray:1" x1="224" y1="14" x2="224" y2="123" />
	<text style="text-anchor:middle" x="224" y="133">20</text>
	<line style="stroke-dasharray:1" x1="236" y1="14" x2="236" y2="123" />
	<line style="stroke-dasharray:1" x1="248" y1="14" x2="248" y2="123" />
	<text style="text-anchor:middle" x="248" y="133">18</text>
	<line style="stroke-dasharray:1" x1="260" y1="14" x2="260" y2="123" />
	<line style="stroke-dasharray:1" x1="272" y1="14" x2="272" y2="123" />
	<text style="text-anchor:middle" x="272" y="133">16</text>
	<line style="stroke-dasharray:1" x1="284" y1="14" x2="284" y2="123" />
	<line style="stroke-dasharray:1" x1="296" y1="14" x2="296" y2="123" />
	<text style="text-anchor:middle" x="296" y="133">14</text>
	<line style="stroke-dasharray:1" x1="308" y1="14" x2="308" y2="123" />
	<line style="stroke-dasharray:1" x1="320" y1="14" x2="320" y2="123" />
	<text style="text-anchor:middle" x="320" y="133">12</text>
	<line style="stroke-dasharray:1" x1="332" y1="14" x2="332" y2="123" />
	<line style="stroke-dasharray:1" x1="344" y1="14" x2="344" y2="123" />
	<text style="text-anchor:middle" x="344" y="133">10</text>
	<line style="stroke-dasharray:1" x1="356" y1="14" x2="356" y2="123" />
	<line style="stroke-dasharray:1" x1="368" y1="14" x2="368" y2="123" />
	<text style="text-anchor:middle" x="368" y="133">8</text>
	<line style="stroke-dasharray:1" x1="380" y1="14" x2="380" y2="123" />
	<line style="stroke-dasharray:1" x1="392" y1="14" x2="392" y2="123" />
	<text style="text-anchor:middle" x="392" y="133">6</text>
	<line style="stroke-dasharray:1" x1="404" y1="14" x2="404" y2="123" />
	<line style="stroke-dasharray:1" x1="416" y1="14" x2="416" y2="123" />
	<text style="text-anchor:middle" x="416" y="133">4</text>
	<line style="stroke-dasharray:1" x1="428" y1="14" x2="428" y2="123" />
	<line style="stroke-dasharray:1" x1="440" y1="14" x2="440" y2="123" />
	<text style="text-anchor:middle" x="440" y="133">2</text>
	<line style="stroke-dasharray:1" x1="452" y1="14" x2="452" y2="123" />
	<line style="stroke:red" x1="464" y1="14" x2="464" y2="123" />
	<text style="text-anchor:middle" x="464" y="133">0</text>
	<line style="stroke-dasharray:1" x1="476" y1="14" x2="476" y2="123" />
	<polygon style="fill:red;stroke:red;fill-opacity:1;" points="43,121 49,118 49,124" />
	<!-- ApparentWindSpeed MinMax -->
	<polygon style="fill:blue;stroke:blue" points="47,69 48,48 49,71 50,98 51,66 52,80 53,74 54,80 55,80 56,71 57,80 58,77 59,76 60,77 61,86 62,76 63,79 64,93 65,81 66,86 67,82 68,76 69,85 70,80 71,76 72,76 73,84 74,82 75,87 76,87 77,87 78,87 79,88 80,86 81,92 82,89 83,87 84,90 85,85 86,85 87,77 88,73 89,75 90,69 91,77 92,81 93,80 94,74 95,78 96,71 97,58 98,64 99,74 100,69 101,58 102,64 103,69 104,71 105,72 106,69 107,65 108,80 109,84 110,73 111,74 112,69 113,71 114,75 115,73 116,78 117,68 118,85 119,83 120,75 121,79 122,88 123,79 124,81 125,77 126,73 127,64 128,71 129,79 130,80 131,79 132,75 133,63 134,76 135,88 136,87 137,71 138,68 139,74 140,77 141,89 142,75 143,86 144,79 145,76 146,83 147,84 148,77 149,76 150,73 151,73 152,84 153,86 154,84 155,79 156,82 157,82 158,79 159,79 160,77 161,78 162,78 163,81 164,102 165,107 166,109 167,103 168,101 169,96 170,93 171,112 172,105 173,98 174,89 175,90 176,91 177,84 178,75 179,60 180,74 181,70 182,54 183,60 184,61 185,64 186,61 187,65 188,65 189,64 190,63 191,69 192,73 193,73 194,70 195,64 196,61 197,62 198,75 199,65 200,70 201,69 202,62 203,67 204,66 205,71 206,71 207,71 208,68 209,80 210,73 211,69 212,77 213,76 214,76 215,69 216,70 217,63 218,70 219,73 220,70 221,75 222,79 223,85 224,70 225,65 226,72 227,65 228,68 229,65 230,61 231,67 232,60 233,58 234,57 235,61 236,54 237,49 238,62 239,49 240,55 241,63 242,59 243,54 244,51 245,54 246,54 247,54 248,59 249,42 250,48 251,46 252,40 253,42 254,32 255,40 256,21 257,29 258,32 259,31 260,37 261,50 262,36 263,43 264,32 265,39 266,38 267,44 268,43 269,48 270,54 271,50 272,44 273,58 274,63 275,50 276,48 277,65 278,54 279,46 280,49 281,46 282,56 283,65 284,47 285,62 286,53 287,47 288,57 289,58 290,60 291,50 292,62 293,60 294,66 295,50 296,63 297,62 298,64 299,48 300,56 301,73 302,61 303,57 304,66 305,61 306,73 307,71 308,77 309,73 310,69 311,80 312,77 313,73 314,86 315,82 316,76 317,74 318,72 319,77 320,67 321,69 322,74 323,75 324,71 325,68 326,72 327,72 328,78 329,85 330,83 331,84 332,84 333,80 334,75 335,64 336,68 337,68 338,64 339,73 340,80 341,77 342,87 343,75 344,77 345,75 346,73 347,69 348,61 349,58 350,59 351,77 352,76 353,60 354,75 355,71 356,73 357,69 358,74 359,70 360,69 361,69 362,73 363,66 364,79 365,73 366,73 367,69 368,65 369,73 370,73 371,65 372,67 373,62 374,74 375,71 376,58 377,64 378,58 379,65 380,65 381,61 382,69 383,62 384,65 385,58 386,62 387,69 388,55 389,54 390,61 391,51 392,47 393,63 394,52 395,56 396,51 397,48 398,69 399,46 400,42 401,47 402,43 403,52 404,55 405,42 406,50 407,54 408,47 409,50 410,45 411,56 412,49 413,48 414,49 415,39 416,45 417,65 418,47 419,52 420,35 421,45 422,46 423,42 424,49 425,47 426,55 427,47 428,51 429,52 430,44 431,26 432,49 433,17 434,29 435,35 436,44 437,25 438,32 439,49 440,55 441,25 442,43 443,38 444,35 445,36 446,38 447,20 448,59 449,47 450,37 451,28 452,21 453,20 454,30 455,32 456,25 457,36 458,17 459,36 460,33 461,14 462,24 463,16 464,36 465,37 466,39 467,37 468,43 469,32 470,25 471,46 472,28 473,28 474,40 475,46 476,54 477,54 478,44 479,36 480,50 481,47 482,52 483,53 484,42 485,37 485,86 484,90 483,94 482,98 481,97 480,93 479,95 478,98 477,90 476,95 475,95 474,97 473,88 472,82 471,95 470,91 469,90 468,91 467,91 466,91 465,93 464,92 463,93 462,93 461,87 460,84 459,89 458,84 457,87 456,84 455,91 454,87 453,85 452,76 451,94 450,84 449,84 448,98 447,91 446,98 445,97 444,89 443,95 442,100 441,100 440,97 439,91 438,87 437,87 436,90 435,94 434,97 433,86 432,97 431,98 430,102 429,98 428,95 427,95 426,106 425,97 424,100 423,91 422,103 421,91 420,98 419,106 418,101 417,101 416,95 415,102 414,95 413,99 412,96 411,98 410,98 409,98 408,101 407,93 406,97 405,98 404,100 403,103 402,98 401,98 400,98 399,98 398,102 397,97 396,104 395,102 394,109 393,103 392,107 391,99 390,104 389,98 388,97 387,102 386,108 385,101 384,103 383,105 382,103 381,111 380,108 379,108 378,95 377,101 376,103 375,103 374,109 373,102 372,104 371,104 370,105 369,100 368,104 367,99 366,108 365,101 364,104 363,107 362,109 361,102 360,105 359,102 358,101 357,102 356,100 355,107 354,102 353,102 352,102 351,104 350,103 349,98 348,98 347,103 346,102 345,102 344,100 343,102 342,106 341,109 340,116 339,106 338,106 337,95 336,97 335,101 334,106 333,112 332,104 331,106 330,104 329,108 328,100 327,103 326,101 325,95 324,96 323,101 322,101 321,98 320,98 319,101 318,102 317,93 316,106 315,109 314,106 313,109 312,106 311,102 310,104 309,99 308,106 307,105 306,112 305,106 304,113 303,95 302,102 301,108 300,108 299,96 298,98 297,100 296,105 295,111 294,112 293,101 292,103 291,106 290,101 289,95 288,104 287,95 286,91 285,98 284,102 283,104 282,93 281,106 280,95 279,85 278,104 277,108 276,101 275,101 274,110 273,110 272,97 271,97 270,91 269,100 268,108 267,109 266,97 265,94 264,97 263,97 262,95 261,94 260,104 259,84 258,89 257,96 256,88 255,87 254,96 253,93 252,84 251,87 250,91 249,88 248,91 247,95 246,97 245,97 244,99 243,93 242,97 241,96 240,101 239,98 238,101 237,98 236,93 235,101 234,102 233,97 232,102 231,102 230,95 229,102 228,98 227,101 226,98 225,106 224,102 223,108 222,104 221,104 220,100 219,98 218,104 217,101 216,102 215,104 214,102 213,106 212,111 211,104 210,102 209,101 208,98 207,98 206,98 205,95 204,96 203,97 202,95 201,101 200,102 199,104 198,101 197,97 196,97 195,100 194,99 193,101 192,103 191,101 190,98 189,101 188,93 187,103 186,102 185,98 184,97 183,93 182,98 181,101 180,107 179,108 178,106 177,109 176,112 175,106 174,113 173,113 172,113 171,121 170,112 169,109 168,115 167,121 166,121 165,121 164,121 163,108 162,109 161,108 160,109 159,106 158,108 157,109 156,110 155,108 154,106 153,106 152,106 151,106 150,106 149,105 148,109 147,110 146,109 145,105 144,104 143,110 142,105 141,109 140,102 139,106 138,111 137,108 136,112 135,112 134,113 133,99 132,105 131,108 130,104 129,98 128,98 127,91 126,97 125,100 124,102 123,102 122,101 121,108 120,97 119,103 118,102 117,95 116,102 115,102 114,103 113,105 112,95 111,99 110,108 109,109 108,107 107,102 106,99 105,102 104,112 103,102 102,98 101,98 100,103 99,109 98,102 97,101 96,104 95,108 94,105 93,103 92,104 91,97 90,106 89,106 88,100 87,98 86,104 85,106 84,106 83,106 82,110 81,112 80,107 79,102 78,107 77,104 76,103 75,102 74,101 73,104 72,95 71,97 70,104 69,105 68,99 67,102 66,112 65,108 64,110 63,113 62,102 61,108 60,104 59,104 58,97 57,104 56,107 55,101 54,104 53,102 52,121 51,101 50,121 49,109 48,115 47,102 " />
</svg>
