<?xml version="1.0" encoding="utf-8" standalone="no"?>
<svg xmlns="http://www.w3.org/2000/svg" xmlns:xlink="http://www.w3.org/1999/xlink" width="500" height="135">
	<!-- Created by: InfluxDBWindSVG Version 3.20240225.0 Built on: Feb 25 2024 at 18:29:49 -->
	<clipPath id="GraphRegion"><polygon points="58,14 486,14 486,121 58,121" /></clipPath>
	<style>
		text { font-family: sans-serif; font-size: 12px; fill: black; }
		line { stroke: black; }
		polygon { fill-opacity: 0.5; }
	</style>
	<rect style="fill-opacity:0;stroke:grey;stroke-width:2" width="500" height="135" />
	<text x="58" y="12">Sola Apparent Wind Speed</text>
	<text style="text-anchor:end" x="486" y="12">2024-09-08 12:29:57</text>
	<text style="fill:blue;text-anchor:middle" x="12" y="50%" transform="rotate(270 12,67)">Wind Speed (7.0 kn)</text>
	<text style="fill:blue;text-anchor:middle" x="24" y="50%" transform="rotate(270 24,67)">Wind Gust (10.0 kn)</text>
	<line x1="56" y1="14" x2="488" y2="14"/>
	<text style="fill:blue;text-anchor:end;dominant-baseline:middle" x="56" y="14">13.6</text>
	<line x1="56" y1="121" x2="488" y2="121"/>
	<text style="fill:blue;text-anchor:end;dominant-baseline:middle" x="56" y="121">0.0</text>
	<line x1="58" y1="14" x2="58" y2="121"/>
	<line x1="486" y1="14" x2="486" y2="121"/>
	<line style="stroke-dasharray:1" x1="56" y1="40" x2="488" y2="40" />
	<text style="fill:blue;text-anchor:end;dominant-baseline:middle" x="56" y="40">10.2</text>
	<line style="stroke-dasharray:1" x1="56" y1="66" x2="488" y2="66" />
	<text style="fill:blue;text-anchor:end;dominant-baseline:middle" x="56" y="66">6.8</text>
	<line style="stroke-dasharray:1" x1="56" y1="92" x2="488" y2="92" />
	<text style="fill:blue;text-anchor:end;dominant-baseline:middle" x="56" y="92">3.4</text>
	<line style="stroke-dasharray:1" x1="63" y1="14" x2="63" y2="123" />
	<text style="text-anchor:middle" x="63" y="133">12</text>
	<line style="stroke-dasharray:1" x1="75" y1="14" x2="75" y2="123" />
	<line style="stroke-dasharray:1" x1="87" y1="14" x2="87" y2="123" />
	<text style="text-anchor:middle" x="87" y="133">10</text>
	<line style="stroke-dasharray:1" x1="99" y1="14" x2="99" y2="123" />
	<line style="stroke-dasharray:1" x1="111" y1="14" x2="111" y2="123" />
	<text style="text-anchor:middle" x="111" y="133">8</text>
	<line style="stroke-dasharray:1" x1="123" y1="14" x2="123" y2="123" />
	<line style="stroke-dasharray:1" x1="135" y1="14" x2="135" y2="123" />
	<text style="text-anchor:middle" x="135" y="133">6</text>
	<line style="stroke-dasharray:1" x1="147" y1="14" x2="147" y2="123" />
	<line style="stroke-dasharray:1" x1="159" y1="14" x2="159" y2="123" />
	<text style="text-anchor:middle" x="159" y="133">4</text>
	<line style="stroke-dasharray:1" x1="171" y1="14" x2="171" y2="123" />
	<line style="stroke-dasharray:1" x1="183" y1="14" x2="183" y2="123" />
	<text style="text-anchor:middle" x="183" y="133">2</text>
	<line style="stroke-dasharray:1" x1="195" y1="14" x2="195" y2="123" />
	<line style="stroke:red" x1="207" y1="14" x2="207" y2="123" />
	<text style="text-anchor:middle" x="207" y="133">0</text>
	<line style="stroke-dasharray:1" x1="219" y1="14" x2="219" y2="123" />
	<line style="stroke-dasharray:1" x1="231" y1="14" x2="231" y2="123" />
	<text style="text-anchor:middle" x="231" y="133">22</text>
	<line style="stroke-dasharray:1" x1="243" y1="14" x2="243" y2="123" />
	<line style="stroke-dasharray:1" x1="255" y1="14" x2="255" y2="123" />
	<text style="text-anchor:middle" x="255" y="133">20</text>
	<line style="stroke-dasharray:1" x1="267" y1="14" x2="267" y2="123" />
	<line style="stroke-dasharray:1" x1="279" y1="14" x2="279" y2="123" />
	<text style="text-anchor:middle" x="279" y="133">18</text>
	<line style="stroke-dasharray:1" x1="291" y1="14" x2="291" y2="123" />
	<line style="stroke-dasharray:1" x1="303" y1="14" x2="303" y2="123" />
	<text style="text-anchor:middle" x="303" y="133">16</text>
	<line style="stroke-dasharray:1" x1="315" y1="14" x2="315" y2="123" />
	<line style="stroke-dasharray:1" x1="327" y1="14" x2="327" y2="123" />
	<text style="text-anchor:middle" x="327" y="133">14</text>
	<line style="stroke-dasharray:1" x1="339" y1="14" x2="339" y2="123" />
	<line style="stroke-dasharray:1" x1="351" y1="14" x2="351" y2="123" />
	<text style="text-anchor:middle" x="351" y="133">12</text>
	<line style="stroke-dasharray:1" x1="363" y1="14" x2="363" y2="123" />
	<line style="stroke-dasharray:1" x1="375" y1="14" x2="375" y2="123" />
	<text style="text-anchor:middle" x="375" y="133">10</text>
	<line style="stroke-dasharray:1" x1="387" y1="14" x2="387" y2="123" />
	<line style="stroke-dasharray:1" x1="399" y1="14" x2="399" y2="123" />
	<text style="text-anchor:middle" x="399" y="133">8</text>
	<line style="stroke-dasharray:1" x1="411" y1="14" x2="411" y2="123" />
	<line style="stroke-dasharray:1" x1="423" y1="14" x2="423" y2="123" />
	<text style="text-anchor:middle" x="423" y="133">6</text>
	<line style="stroke-dasharray:1" x1="435" y1="14" x2="435" y2="123" />
	<line style="stroke-dasharray:1" x1="447" y1="14" x2="447" y2="123" />
	<text style="text-anchor:middle" x="447" y="133">4</text>
	<line style="stroke-dasharray:1" x1="459" y1="14" x2="459" y2="123" />
	<line style="stroke-dasharray:1" x1="471" y1="14" x2="471" y2="123" />
	<text style="text-anchor:middle" x="471" y="133">2</text>
	<line style="stroke-dasharray:1" x1="483" y1="14" x2="483" y2="123" />
	<polygon style="fill:red;stroke:red;fill-opacity:1;" points="55,121 61,118 61,124" />
	<!-- ApparentWindSpeed MinMax -->
	<polygon style="fill:blue;stroke:blue;clip-path:url(#GraphRegion)" points="59,43 60,49 61,39 62,39 63,42 64,33 65,35 66,48 67,43 68,57 69,61 70,54 71,46 72,46 73,43 74,32 75,24 76,33 77,38 78,34 79,31 80,24 81,36 82,29 83,28 84,50 85,49 86,34 87,54 88,42 89,58 90,47 91,25 92,43 93,29 94,46 95,29 96,43 97,25 98,31 99,28 100,37 101,42 102,40 103,31 104,32 105,43 106,39 107,50 108,54 109,50 110,58 111,61 112,65 113,54 114,58 115,52 116,57 117,43 118,65 119,64 120,68 121,65 122,72 123,65 124,59 125,63 126,52 127,51 128,57 129,57 130,45 131,55 132,68 133,60 134,62 135,58 136,68 137,74 138,61 139,64 140,62 141,65 142,85 143,75 144,73 145,83 146,69 147,53 148,60 149,68 150,68 151,74 152,57 153,73 154,90 155,99 156,109 157,111 158,106 159,102 160,102 161,109 162,115 163,108 164,105 165,108 166,108 167,112 168,113 169,113 170,109 171,112 172,106 173,104 174,107 175,110 176,109 177,109 178,102 179,105 180,107 181,102 182,104 183,101 184,106 185,101 186,105 187,108 188,107 189,95 190,84 191,103 192,109 193,97 194,92 195,91 196,82 197,66 198,68 199,73 200,79 201,102 202,98 203,104 204,108 205,105 206,109 207,111 208,108 209,114 210,109 211,108 212,91 213,71 214,100 215,102 216,102 217,107 218,109 219,102 220,87 221,106 222,108 223,104 224,98 225,98 226,112 227,97 228,101 229,94 230,102 231,98 232,72 233,77 234,82 235,74 236,87 237,73 238,80 239,90 240,98 241,87 242,76 243,61 244,94 245,73 246,69 247,62 248,73 249,83 250,105 251,80 252,78 253,90 254,87 255,80 256,107 257,108 258,103 259,108 260,100 261,99 262,94 263,93 264,91 265,102 266,109 267,106 268,99 269,101 270,107 271,87 272,91 273,99 274,94 275,84 276,89 277,79 278,90 279,103 280,102 281,89 282,84 283,101 284,89 285,108 286,97 287,104 288,91 289,73 290,57 291,69 292,95 293,79 294,81 295,81 296,54 297,58 298,102 299,101 300,101 301,95 302,79 303,74 304,76 305,93 306,73 307,76 308,55 309,60 310,57 311,59 312,61 313,61 314,69 315,58 316,43 317,48 318,64 319,63 320,73 321,72 322,66 323,69 324,64 325,61 326,61 327,55 328,53 329,62 330,65 331,70 332,61 333,70 334,71 335,76 336,97 337,103 338,98 339,104 340,97 341,104 342,97 343,95 344,91 345,80 346,73 347,76 348,73 349,73 350,68 351,66 352,70 353,54 354,43 355,47 356,35 357,27 358,21 359,27 360,19 361,14 362,14 363,35 364,43 365,57 366,58 367,63 368,65 369,65 370,61 371,54 372,60 373,65 374,61 375,79 376,85 377,91 378,90 379,90 380,84 381,76 382,78 383,71 384,80 385,69 386,74 387,84 388,76 389,74 390,73 391,73 392,90 393,98 394,109 395,109 396,110 397,102 398,92 399,93 400,87 401,106 402,84 403,88 404,105 405,97 406,81 407,86 408,89 409,98 410,77 411,100 412,93 413,106 414,91 415,77 416,79 417,71 418,78 419,88 420,84 421,80 422,72 423,62 424,73 425,65 426,61 427,54 428,79 429,69 430,68 431,74 432,80 433,86 434,83 435,77 436,82 437,82 438,79 439,78 440,84 441,77 442,87 443,80 444,108 445,102 446,95 447,95 448,101 449,121 450,102 451,81 452,73 453,87 454,102 455,97 456,98 457,86 458,92 459,93 460,84 461,97 462,89 463,115 464,113 465,109 466,115 467,113 468,113 469,111 470,98 471,96 472,108 473,106 474,101 475,89 476,105 477,101 478,97 479,98 480,81 481,108 482,112 483,114 484,106 485,109 485,113 484,109 483,117 482,119 481,112 480,118 479,105 478,103 477,109 476,115 475,98 474,113 473,109 472,112 471,100 470,108 469,113 468,120 467,119 466,120 465,117 464,119 463,120 462,101 461,110 460,93 459,102 458,104 457,97 456,112 455,100 454,114 453,111 452,90 451,100 450,115 449,121 448,112 447,109 446,111 445,108 444,118 443,100 442,103 441,95 440,100 439,96 438,89 437,101 436,105 435,104 434,108 433,101 432,89 431,82 430,80 429,80 428,87 427,80 426,77 425,82 424,87 423,81 422,84 421,87 420,105 419,102 418,96 417,88 416,95 415,95 414,103 413,114 412,111 411,110 410,110 409,108 408,101 407,101 406,89 405,108 404,113 403,114 402,102 401,112 400,97 399,105 398,99 397,114 396,115 395,115 394,113 393,113 392,105 391,92 390,86 389,87 388,92 387,99 386,91 385,89 384,92 383,89 382,95 381,94 380,107 379,105 378,102 377,103 376,100 375,100 374,82 373,78 372,72 371,70 370,76 369,74 368,76 367,75 366,71 365,74 364,76 363,62 362,52 361,50 360,56 359,65 358,52 357,57 356,61 355,71 354,73 353,80 352,83 351,78 350,86 349,84 348,83 347,86 346,85 345,100 344,101 343,104 342,105 341,111 340,107 339,114 338,106 337,109 336,113 335,106 334,96 333,88 332,77 331,80 330,81 329,73 328,71 327,72 326,76 325,71 324,75 323,80 322,83 321,86 320,83 319,77 318,79 317,66 316,71 315,82 314,86 313,78 312,80 311,80 310,83 309,80 308,75 307,96 306,90 305,107 304,89 303,84 302,96 301,106 300,111 299,111 298,113 297,92 296,74 295,98 294,101 293,96 292,104 291,86 290,71 289,89 288,104 287,113 286,109 285,115 284,101 283,109 282,96 281,108 280,111 279,109 278,102 277,98 276,106 275,103 274,106 273,106 272,96 271,100 270,115 269,107 268,105 267,112 266,119 265,110 264,106 263,107 262,103 261,108 260,109 259,112 258,108 257,112 256,114 255,95 254,99 253,99 252,95 251,101 250,112 249,103 248,88 247,75 246,84 245,96 244,109 243,76 242,104 241,98 240,111 239,104 238,95 237,86 236,102 235,93 234,98 233,93 232,100 231,105 230,109 229,104 228,112 227,105 226,116 225,112 224,109 223,112 222,113 221,110 220,96 219,106 218,116 217,114 216,109 215,115 214,112 213,93 212,105 211,116 210,116 209,119 208,112 207,117 206,119 205,114 204,116 203,109 202,106 201,109 200,107 199,101 198,94 197,78 196,102 195,108 194,107 193,117 192,115 191,109 190,100 189,116 188,112 187,115 186,112 185,105 184,114 183,109 182,107 181,108 180,110 179,109 178,106 177,116 176,114 175,114 174,112 173,106 172,110 171,118 170,113 169,118 168,119 167,113 166,110 165,111 164,120 163,116 162,120 161,115 160,111 159,106 158,110 157,118 156,117 155,109 154,103 153,89 152,81 151,85 150,84 149,83 148,80 147,77 146,87 145,92 144,90 143,91 142,95 141,89 140,85 139,88 138,89 137,88 136,83 135,80 134,86 133,81 132,83 131,77 130,74 129,81 128,82 127,77 126,76 125,80 124,83 123,82 122,84 121,89 120,88 119,84 118,82 117,78 116,80 115,76 114,81 113,80 112,84 111,83 110,76 109,76 108,77 107,81 106,65 105,72 104,60 103,62 102,71 101,74 100,66 99,57 98,58 97,57 96,71 95,72 94,67 93,63 92,67 91,66 90,74 89,77 88,68 87,73 86,64 85,70 84,71 83,60 82,61 81,65 80,62 79,63 78,78 77,72 76,71 75,55 74,61 73,65 72,71 71,72 70,79 69,78 68,75 67,82 66,77 65,79 64,72 63,62 62,63 61,67 60,72 59,66 " />
	<!-- ApparentWindSpeed -->
	<polyline style="fill:none;stroke:blue;clip-path:url(#GraphRegion)" points="59,66 60,72 61,67 62,63 63,62 64,72 65,79 66,77 67,82 68,75 69,78 70,79 71,72 72,71 73,65 74,61 75,55 76,71 77,72 78,78 79,63 80,62 81,65 82,61 83,60 84,71 85,70 86,64 87,73 88,68 89,77 90,74 91,66 92,67 93,63 94,67 95,72 96,71 97,57 98,58 99,57 100,66 101,74 102,71 103,62 104,60 105,72 106,65 107,81 108,77 109,76 110,76 111,83 112,84 113,80 114,81 115,76 116,80 117,78 118,82 119,84 120,88 121,89 122,84 123,82 124,83 125,80 126,76 127,77 128,82 129,81 130,74 131,77 132,83 133,81 134,86 135,80 136,83 137,88 138,89 139,88 140,85 141,89 142,95 143,91 144,90 145,92 146,87 147,77 148,80 149,83 150,84 151,85 152,81 153,89 154,103 155,109 156,117 157,118 158,110 159,106 160,111 161,115 162,120 163,116 164,120 165,111 166,110 167,113 168,119 169,118 170,113 171,118 172,110 173,106 174,112 175,114 176,114 177,116 178,106 179,109 180,110 181,108 182,107 183,109 184,114 185,105 186,112 187,115 188,112 189,116 190,100 191,109 192,115 193,117 194,107 195,108 196,102 197,78 198,94 199,101 200,107 201,109 202,106 203,109 204,116 205,114 206,119 207,117 208,112 209,119 210,116 211,116 212,105 213,93 214,112 215,115 216,109 217,114 218,116 219,106 220,96 221,110 222,113 223,112 224,109 225,112 226,116 227,105 228,112 229,104 230,109 231,105 232,100 233,93 234,98 235,93 236,102 237,86 238,95 239,104 240,111 241,98 242,104 243,76 244,109 245,96 246,84 247,75 248,88 249,103 250,112 251,101 252,95 253,99 254,99 255,95 256,114 257,112 258,108 259,112 260,109 261,108 262,103 263,107 264,106 265,110 266,119 267,112 268,105 269,107 270,115 271,100 272,96 273,106 274,106 275,103 276,106 277,98 278,102 279,109 280,111 281,108 282,96 283,109 284,101 285,115 286,109 287,113 288,104 289,89 290,71 291,86 292,104 293,96 294,101 295,98 296,74 297,92 298,113 299,111 300,111 301,106 302,96 303,84 304,89 305,107 306,90 307,96 308,75 309,80 310,83 311,80 312,80 313,78 314,86 315,82 316,71 317,66 318,79 319,77 320,83 321,86 322,83 323,80 324,75 325,71 326,76 327,72 328,71 329,73 330,81 331,80 332,77 333,88 334,96 335,106 336,113 337,109 338,106 339,114 340,107 341,111 342,105 343,104 344,101 345,100 346,85 347,86 348,83 349,84 350,86 351,78 352,83 353,80 354,73 355,71 356,61 357,57 358,52 359,65 360,56 361,50 362,52 363,62 364,76 365,74 366,71 367,75 368,76 369,74 370,76 371,70 372,72 373,78 374,82 375,100 376,100 377,103 378,102 379,105 380,107 381,94 382,95 383,89 384,92 385,89 386,91 387,99 388,92 389,87 390,86 391,92 392,105 393,113 394,113 395,115 396,115 397,114 398,99 399,105 400,97 401,112 402,102 403,114 404,113 405,108 406,89 407,101 408,101 409,108 410,110 411,110 412,111 413,114 414,103 415,95 416,95 417,88 418,96 419,102 420,105 421,87 422,84 423,81 424,87 425,82 426,77 427,80 428,87 429,80 430,80 431,82 432,89 433,101 434,108 435,104 436,105 437,101 438,89 439,96 440,100 441,95 442,103 443,100 444,118 445,108 446,111 447,109 448,112 449,121 450,115 451,100 452,90 453,111 454,114 455,100 456,112 457,97 458,104 459,102 460,93 461,110 462,101 463,120 464,119 465,117 466,120 467,119 468,120 469,113 470,108 471,100 472,112 473,109 474,113 475,98 476,115 477,109 478,103 479,105 480,118 481,112 482,119 483,117 484,109 485,113 " />
</svg>
