<?xml version="1.0" encoding="utf-8" standalone="no"?>
<svg xmlns="http://www.w3.org/2000/svg" xmlns:xlink="http://www.w3.org/1999/xlink" width="500" height="135">
	<!-- Created by: InfluxDBWindSVG Version 3.20240225.0 Built on: Feb 25 2024 at 18:29:49 -->
	<clipPath id="GraphRegion"><polygon points="58,14 486,14 486,121 58,121" /></clipPath>
	<style>
		text { font-family: sans-serif; font-size: 12px; fill: black; }
		line { stroke: black; }
		polygon { fill-opacity: 0.5; }
		.barometer-label { font-family: Georgia, serif; font-style: italic; font-size: 178px; opacity: 0.5; clip-path: url(#GraphRegion); text-anchor: middle; dominant-baseline: middle; }
	</style>
	<rect style="fill-opacity:0;stroke:grey;stroke-width:2" width="500" height="135" />
	<text x="58" y="12">Sola Air Pressure</text>
	<text style="text-anchor:end" x="486" y="12">2024-09-08 12:24:57</text>
	<text style="fill:blue;text-anchor:middle" x="12" y="50%" transform="rotate(270 12,67)">Pressure (1013.0 hPa)</text>
	<line x1="56" y1="14" x2="488" y2="14"/>
	<text style="fill:blue;text-anchor:end;dominant-baseline:middle" x="56" y="14">1016.0</text>
	<line x1="56" y1="121" x2="488" y2="121"/>
	<text style="fill:blue;text-anchor:end;dominant-baseline:middle" x="56" y="121">1010.0</text>
	<line x1="58" y1="14" x2="58" y2="121"/>
	<line x1="486" y1="14" x2="486" y2="121"/>
	<line style="stroke-dasharray:1" x1="56" y1="40" x2="488" y2="40" />
	<text style="fill:blue;text-anchor:end;dominant-baseline:middle" x="56" y="40">1014.5</text>
	<line style="stroke-dasharray:1" x1="56" y1="66" x2="488" y2="66" />
	<text style="fill:blue;text-anchor:end;dominant-baseline:middle" x="56" y="66">1013.0</text>
	<line style="stroke-dasharray:1" x1="56" y1="92" x2="488" y2="92" />
	<text style="fill:blue;text-anchor:end;dominant-baseline:middle" x="56" y="92">1011.5</text>
	<line style="stroke-dasharray:1" x1="62" y1="14" x2="62" y2="123" />
	<text style="text-anchor:middle" x="62" y="133">12</text>
	<line style="stroke-dasharray:1" x1="74" y1="14" x2="74" y2="123" />
	<line style="stroke-dasharray:1" x1="86" y1="14" x2="86" y2="123" />
	<text style="text-anchor:middle" x="86" y="133">10</text>
	<line style="stroke-dasharray:1" x1="98" y1="14" x2="98" y2="123" />
	<line style="stroke-dasharray:1" x1="110" y1="14" x2="110" y2="123" />
	<text style="text-anchor:middle" x="110" y="133">8</text>
	<line style="stroke-dasharray:1" x1="122" y1="14" x2="122" y2="123" />
	<line style="stroke-dasharray:1" x1="134" y1="14" x2="134" y2="123" />
	<text style="text-anchor:middle" x="134" y="133">6</text>
	<line style="stroke-dasharray:1" x1="146" y1="14" x2="146" y2="123" />
	<line style="stroke-dasharray:1" x1="158" y1="14" x2="158" y2="123" />
	<text style="text-anchor:middle" x="158" y="133">4</text>
	<line style="stroke-dasharray:1" x1="170" y1="14" x2="170" y2="123" />
	<line style="stroke-dasharray:1" x1="182" y1="14" x2="182" y2="123" />
	<text style="text-anchor:middle" x="182" y="133">2</text>
	<line style="stroke-dasharray:1" x1="194" y1="14" x2="194" y2="123" />
	<line style="stroke:red" x1="206" y1="14" x2="206" y2="123" />
	<text style="text-anchor:middle" x="206" y="133">0</text>
	<line style="stroke-dasharray:1" x1="218" y1="14" x2="218" y2="123" />
	<line style="stroke-dasharray:1" x1="230" y1="14" x2="230" y2="123" />
	<text style="text-anchor:middle" x="230" y="133">22</text>
	<line style="stroke-dasharray:1" x1="242" y1="14" x2="242" y2="123" />
	<line style="stroke-dasharray:1" x1="254" y1="14" x2="254" y2="123" />
	<text style="text-anchor:middle" x="254" y="133">20</text>
	<line style="stroke-dasharray:1" x1="266" y1="14" x2="266" y2="123" />
	<line style="stroke-dasharray:1" x1="278" y1="14" x2="278" y2="123" />
	<text style="text-anchor:middle" x="278" y="133">18</text>
	<line style="stroke-dasharray:1" x1="290" y1="14" x2="290" y2="123" />
	<line style="stroke-dasharray:1" x1="302" y1="14" x2="302" y2="123" />
	<text style="text-anchor:middle" x="302" y="133">16</text>
	<line style="stroke-dasharray:1" x1="314" y1="14" x2="314" y2="123" />
	<line style="stroke-dasharray:1" x1="326" y1="14" x2="326" y2="123" />
	<text style="text-anchor:middle" x="326" y="133">14</text>
	<line style="stroke-dasharray:1" x1="338" y1="14" x2="338" y2="123" />
	<line style="stroke-dasharray:1" x1="350" y1="14" x2="350" y2="123" />
	<text style="text-anchor:middle" x="350" y="133">12</text>
	<line style="stroke-dasharray:1" x1="362" y1="14" x2="362" y2="123" />
	<line style="stroke-dasharray:1" x1="374" y1="14" x2="374" y2="123" />
	<text style="text-anchor:middle" x="374" y="133">10</text>
	<line style="stroke-dasharray:1" x1="386" y1="14" x2="386" y2="123" />
	<line style="stroke-dasharray:1" x1="398" y1="14" x2="398" y2="123" />
	<text style="text-anchor:middle" x="398" y="133">8</text>
	<line style="stroke-dasharray:1" x1="410" y1="14" x2="410" y2="123" />
	<line style="stroke-dasharray:1" x1="422" y1="14" x2="422" y2="123" />
	<text style="text-anchor:middle" x="422" y="133">6</text>
	<line style="stroke-dasharray:1" x1="434" y1="14" x2="434" y2="123" />
	<line style="stroke-dasharray:1" x1="446" y1="14" x2="446" y2="123" />
	<text style="text-anchor:middle" x="446" y="133">4</text>
	<line style="stroke-dasharray:1" x1="458" y1="14" x2="458" y2="123" />
	<line style="stroke-dasharray:1" x1="470" y1="14" x2="470" y2="123" />
	<text style="text-anchor:middle" x="470" y="133">2</text>
	<line style="stroke-dasharray:1" x1="482" y1="14" x2="482" y2="123" />
	<polygon style="fill:red;stroke:red;fill-opacity:1;" points="55,121 61,118 61,124" />
	<!-- OutsidePressure MinMax -->
	<polygon style="fill:blue;stroke:blue;clip-path:url(#GraphRegion)" points="59,67 60,67 61,67 62,67 63,67 64,67 65,67 66,67 67,67 68,67 69,67 70,67 71,67 72,67 73,67 74,49 75,49 76,67 77,67 78,67 79,67 80,67 81,67 82,67 83,67 84,67 85,67 86,67 87,67 88,67 89,67 90,67 91,67 92,67 93,67 94,67 95,67 96,67 97,67 98,67 99,67 100,67 101,67 102,67 103,67 104,67 105,67 106,67 107,67 108,67 109,67 110,67 111,67 112,67 113,67 114,67 115,67 116,67 117,67 118,67 119,67 120,67 121,67 122,67 123,85 124,85 125,85 126,85 127,85 128,85 129,85 130,85 131,85 132,85 133,85 134,85 135,85 136,85 137,85 138,85 139,85 140,85 141,85 142,85 143,85 144,85 145,85 146,85 147,85 148,85 149,85 150,85 151,85 152,85 153,85 154,85 155,85 156,85 157,85 158,85 159,85 160,85 161,85 162,85 163,85 164,85 165,85 166,85 167,85 168,85 169,85 170,85 171,85 172,85 173,85 174,85 175,85 176,85 177,85 178,85 179,85 180,85 181,85 182,85 183,85 184,85 185,85 186,85 187,85 188,85 189,85 190,85 191,85 192,85 193,85 194,85 195,85 196,85 197,85 198,85 199,85 200,85 201,85 202,85 203,103 204,103 205,103 206,103 207,103 208,103 209,103 210,103 211,103 212,103 213,103 214,103 215,103 216,103 217,103 218,103 219,103 220,103 221,103 222,103 223,103 224,103 225,103 226,103 227,103 228,103 229,103 230,103 231,103 232,103 233,103 234,103 235,103 236,121 237,103 238,103 239,103 240,103 241,103 242,103 243,103 244,121 245,103 246,103 247,103 248,103 249,103 250,103 251,103 252,103 253,103 254,103 255,103 256,103 257,103 258,103 259,103 260,103 261,103 262,103 263,103 264,103 265,103 266,103 267,103 268,103 269,103 270,103 271,103 272,103 273,103 274,103 275,103 276,103 277,103 278,103 279,103 280,103 281,103 282,103 283,103 284,103 285,103 286,103 287,103 288,103 289,103 290,103 291,85 292,85 293,85 294,85 295,103 296,103 297,85 298,85 299,85 300,85 301,85 302,85 303,85 304,85 305,85 306,85 307,85 308,85 309,85 310,85 311,85 312,85 313,85 314,85 315,85 316,85 317,85 318,67 319,67 320,67 321,67 322,67 323,67 324,67 325,67 326,67 327,67 328,67 329,67 330,67 331,67 332,67 333,67 334,67 335,67 336,67 337,67 338,67 339,67 340,67 341,49 342,49 343,49 344,67 345,67 346,67 347,67 348,67 349,49 350,67 351,49 352,49 353,67 354,67 355,67 356,67 357,67 358,67 359,67 360,67 361,67 362,67 363,49 364,67 365,49 366,49 367,49 368,49 369,49 370,49 371,49 372,49 373,49 374,49 375,49 376,49 377,49 378,49 379,49 380,49 381,49 382,49 383,49 384,49 385,49 386,49 387,49 388,49 389,49 390,49 391,49 392,49 393,49 394,49 395,49 396,49 397,49 398,49 399,49 400,49 401,49 402,49 403,49 404,49 405,49 406,49 407,49 408,49 409,49 410,49 411,49 412,49 413,49 414,49 415,49 416,49 417,49 418,49 419,49 420,49 421,49 422,49 423,49 424,49 425,49 426,49 427,49 428,49 429,49 430,49 431,49 432,49 433,49 434,49 435,49 436,49 437,49 438,49 439,49 440,49 441,49 442,49 443,49 444,49 445,49 446,49 447,49 448,31 449,31 450,31 451,31 452,31 453,31 454,31 455,31 456,31 457,31 458,31 459,31 460,31 461,31 462,31 463,31 464,31 465,31 466,31 467,31 468,31 469,31 470,31 471,14 472,14 473,14 474,14 475,14 476,31 477,31 478,31 479,31 480,31 481,31 482,31 483,31 484,31 485,31 485,31 484,31 483,31 482,31 481,31 480,31 479,31 478,31 477,31 476,31 475,31 474,14 473,31 472,31 471,31 470,31 469,31 468,31 467,31 466,31 465,31 464,31 463,31 462,31 461,31 460,31 459,31 458,31 457,31 456,31 455,31 454,31 453,49 452,49 451,49 450,49 449,49 448,49 447,49 446,49 445,49 444,49 443,49 442,49 441,49 440,49 439,49 438,49 437,49 436,49 435,49 434,49 433,49 432,49 431,49 430,49 429,49 428,49 427,49 426,49 425,49 424,49 423,49 422,49 421,49 420,49 419,49 418,49 417,49 416,49 415,49 414,49 413,49 412,49 411,49 410,49 409,49 408,49 407,49 406,49 405,49 404,49 403,49 402,49 401,67 400,49 399,49 398,49 397,49 396,49 395,49 394,49 393,49 392,49 391,49 390,49 389,49 388,67 387,67 386,49 385,67 384,67 383,49 382,49 381,49 380,49 379,49 378,49 377,49 376,49 375,49 374,49 373,49 372,49 371,67 370,67 369,67 368,67 367,67 366,67 365,67 364,67 363,67 362,67 361,67 360,67 359,67 358,67 357,67 356,67 355,67 354,67 353,67 352,67 351,67 350,67 349,67 348,67 347,67 346,67 345,67 344,67 343,67 342,67 341,67 340,67 339,67 338,67 337,67 336,67 335,67 334,67 333,67 332,67 331,67 330,67 329,67 328,67 327,67 326,67 325,67 324,67 323,67 322,67 321,67 320,67 319,67 318,85 317,85 316,85 315,85 314,85 313,85 312,85 311,85 310,85 309,85 308,85 307,85 306,85 305,85 304,85 303,85 302,85 301,85 300,85 299,103 298,103 297,103 296,103 295,103 294,103 293,103 292,103 291,103 290,103 289,103 288,103 287,103 286,103 285,103 284,103 283,103 282,103 281,103 280,103 279,103 278,103 277,121 276,121 275,103 274,103 273,103 272,103 271,103 270,103 269,103 268,103 267,103 266,103 265,103 264,103 263,121 262,121 261,121 260,121 259,103 258,103 257,103 256,103 255,103 254,121 253,121 252,121 251,121 250,121 249,121 248,121 247,121 246,121 245,121 244,121 243,121 242,103 241,103 240,103 239,103 238,103 237,121 236,121 235,121 234,121 233,103 232,103 231,103 230,103 229,103 228,103 227,103 226,103 225,103 224,103 223,103 222,103 221,103 220,103 219,103 218,103 217,103 216,103 215,103 214,103 213,103 212,103 211,103 210,103 209,103 208,103 207,103 206,103 205,103 204,103 203,103 202,103 201,103 200,85 199,85 198,103 197,103 196,103 195,103 194,85 193,85 192,85 191,85 190,85 189,85 188,85 187,103 186,103 185,103 184,85 183,103 182,103 181,103 180,103 179,85 178,103 177,103 176,103 175,103 174,103 173,103 172,103 171,103 170,85 169,85 168,85 167,85 166,103 165,103 164,103 163,85 162,85 161,85 160,85 159,85 158,85 157,85 156,85 155,85 154,85 153,85 152,85 151,85 150,85 149,85 148,85 147,85 146,85 145,85 144,85 143,85 142,85 141,85 140,85 139,85 138,85 137,85 136,85 135,85 134,85 133,85 132,85 131,85 130,85 129,85 128,85 127,85 126,85 125,85 124,85 123,85 122,85 121,85 120,85 119,85 118,67 117,67 116,67 115,67 114,67 113,67 112,67 111,67 110,67 109,67 108,67 107,67 106,67 105,67 104,67 103,67 102,67 101,67 100,67 99,67 98,67 97,67 96,67 95,67 94,67 93,67 92,67 91,67 90,67 89,67 88,67 87,67 86,67 85,67 84,67 83,67 82,67 81,67 80,67 79,67 78,67 77,67 76,67 75,67 74,67 73,67 72,67 71,67 70,67 69,67 68,67 67,67 66,67 65,67 64,67 63,67 62,67 61,67 60,67 59,67 " />
	<!-- OutsidePressure -->
	<polyline style="fill:none;stroke:blue;clip-path:url(#GraphRegion)" points="59,67 60,67 61,67 62,67 63,67 64,67 65,67 66,67 67,67 68,67 69,67 70,67 71,67 72,67 73,67 74,67 75,67 76,67 77,67 78,67 79,67 80,67 81,67 82,67 83,67 84,67 85,67 86,67 87,67 88,67 89,67 90,67 91,67 92,67 93,67 94,67 95,67 96,67 97,67 98,67 99,67 100,67 101,67 102,67 103,67 104,67 105,67 106,67 107,67 108,67 109,67 110,67 111,67 112,67 113,67 114,67 115,67 116,67 117,67 118,67 119,67 120,77 121,84 122,85 123,85 124,85 125,85 126,85 127,85 128,85 129,85 130,85 131,85 132,85 133,85 134,85 135,85 136,85 137,85 138,85 139,85 140,85 141,85 142,85 143,85 144,85 145,85 146,85 147,85 148,85 149,85 150,85 151,85 152,85 153,85 154,85 155,85 156,85 157,85 158,85 159,85 160,85 161,85 162,85 163,85 164,87 165,91 166,85 167,85 168,85 169,85 170,85 171,85 172,93 173,94 174,100 175,89 176,97 177,85 178,85 179,85 180,85 181,85 182,85 183,85 184,85 185,87 186,88 187,85 188,85 189,85 190,85 191,85 192,85 193,85 194,85 195,85 196,86 197,87 198,87 199,85 200,85 201,86 202,92 203,103 204,103 205,103 206,103 207,103 208,103 209,103 210,103 211,103 212,103 213,103 214,103 215,103 216,103 217,103 218,103 219,103 220,103 221,103 222,103 223,103 224,103 225,103 226,103 227,103 228,103 229,103 230,103 231,103 232,103 233,103 234,117 235,116 236,121 237,107 238,103 239,103 240,103 241,103 242,103 243,120 244,121 245,118 246,119 247,103 248,104 249,118 250,120 251,119 252,104 253,104 254,108 255,103 256,103 257,103 258,103 259,103 260,110 261,111 262,104 263,109 264,103 265,103 266,103 267,103 268,103 269,103 270,103 271,103 272,103 273,103 274,103 275,103 276,103 277,109 278,103 279,103 280,103 281,103 282,103 283,103 284,103 285,103 286,103 287,103 288,103 289,103 290,103 291,97 292,102 293,90 294,98 295,103 296,103 297,103 298,87 299,85 300,85 301,85 302,85 303,85 304,85 305,85 306,85 307,85 308,85 309,85 310,85 311,85 312,85 313,85 314,85 315,85 316,85 317,85 318,81 319,67 320,67 321,67 322,67 323,67 324,67 325,67 326,67 327,67 328,67 329,67 330,67 331,67 332,67 333,67 334,67 335,67 336,67 337,67 338,67 339,67 340,67 341,67 342,66 343,67 344,67 345,67 346,67 347,67 348,67 349,67 350,67 351,59 352,60 353,67 354,67 355,67 356,67 357,67 358,67 359,67 360,67 361,67 362,67 363,67 364,67 365,61 366,49 367,53 368,61 369,49 370,49 371,49 372,49 373,49 374,49 375,49 376,49 377,49 378,49 379,49 380,49 381,49 382,49 383,49 384,49 385,51 386,49 387,51 388,51 389,49 390,49 391,49 392,49 393,49 394,49 395,49 396,49 397,49 398,49 399,49 400,49 401,49 402,49 403,49 404,49 405,49 406,49 407,49 408,49 409,49 410,49 411,49 412,49 413,49 414,49 415,49 416,49 417,49 418,49 419,49 420,49 421,49 422,49 423,49 424,49 425,49 426,49 427,49 428,49 429,49 430,49 431,49 432,49 433,49 434,49 435,49 436,49 437,49 438,49 439,49 440,49 441,49 442,49 443,49 444,49 445,49 446,49 447,49 448,49 449,47 450,42 451,33 452,32 453,31 454,31 455,31 456,31 457,31 458,31 459,31 460,31 461,31 462,31 463,31 464,31 465,31 466,31 467,31 468,31 469,31 470,31 471,20 472,17 473,16 474,14 475,27 476,31 477,31 478,31 479,31 480,31 481,31 482,31 483,31 484,31 485,31 " />
	<text class="barometer-label" x="50%" y="763">Rain</text>
	<text class="barometer-label" x="50%" y="317">Change</text>
	<text class="barometer-label" x="50%" y="-128">Fair</text>
</svg>
