<?xml version="1.0" encoding="utf-8" standalone="no"?>
<svg xmlns="http://www.w3.org/2000/svg" xmlns:xlink="http://www.w3.org/1999/xlink" width="500" height="135">
	<!-- Created by: InfluxDBWindSVG Version 3.20240225.0 Built on: Feb 25 2024 at 18:29:49 -->
	<clipPath id="GraphRegion"><polygon points="66,14 470,14 470,121 66,121" /></clipPath>
	<style>
		text { font-family: sans-serif; font-size: 12px; fill: black; }
		line { stroke: black; }
		polygon { fill-opacity: 0.5; }
		.barometer-label { font-family: Georgia, serif; font-style: italic; font-size: 76px; opacity: 0.5; clip-path: url(#GraphRegion); text-anchor: middle; dominant-baseline: middle; }
	</style>
	<rect style="fill-opacity:0;stroke:grey;stroke-width:2" width="500" height="135" />
	<text x="66" y="12">Sola Wind Speed and Air Pressure</text>
	<text style="text-anchor:end" x="470" y="12">2024-09-08 12:00:00</text>
	<text style="fill:blue;text-anchor:middle" x="12" y="50%" transform="rotate(270 12,67)">Wind Speed (5.9 kn)</text>
	<text style="fill:blue;text-anchor:middle" x="24" y="50%" transform="rotate(270 24,67)">Wind Gust (11.1 kn)</text>
	<text style="fill:green;text-anchor:middle" x="36" y="50%" transform="rotate(270 36,67)">Pressure (1013.0 hPa)</text>
	<line x1="64" y1="14" x2="472" y2="14"/>
	<text style="fill:blue;text-anchor:end;dominant-baseline:middle" x="64" y="14">20.0</text>
	<text style="fill:green;dominant-baseline:middle" x="472" y="14">1024.0</text>
	<line style="stroke-dasharray:1" x1="64" y1="40" x2="472" y2="40" />
	<text style="fill:blue;text-anchor:end;dominant-baseline:middle" x="64" y="40">15.0</text>
	<text style="fill:green;dominant-baseline:middle" x="472" y="40">1020.5</text>
	<line style="stroke-dasharray:1" x1="64" y1="66" x2="472" y2="66" />
	<text style="fill:blue;text-anchor:end;dominant-baseline:middle" x="64" y="66">10.0</text>
	<text style="fill:green;dominant-baseline:middle" x="472" y="66">1017.0</text>
	<line style="stroke-dasharray:1" x1="64" y1="92" x2="472" y2="92" />
	<text style="fill:blue;text-anchor:end;dominant-baseline:middle" x="64" y="92">5.0</text>
	<text style="fill:green;dominant-baseline:middle" x="472" y="92">1013.5</text>
	<line x1="64" y1="121" x2="472" y2="121"/>
	<text style="fill:blue;text-anchor:end;dominant-baseline:middle" x="64" y="121">0.0</text>
	<text style="fill:green;dominant-baseline:middle" x="472" y="121">1010.0</text>
	<line x1="66" y1="14" x2="66" y2="121"/>
	<text style="text-anchor:middle" x="66" y="133">Sun</text>
	<line style="stroke:red" x1="90" y1="14" x2="90" y2="123" />
	<text style="text-anchor:middle" x="114" y="133">Sat</text>
	<line style="stroke-dasharray:1" x1="138" y1="14" x2="138" y2="123" />
	<text style="text-anchor:middle" x="162" y="133">Fri</text>
	<line style="stroke-dasharray:1" x1="186" y1="14" x2="186" y2="123" />
	<text style="text-anchor:middle" x="210" y="133">Thu</text>
	<line style="stroke-dasharray:1" x1="234" y1="14" x2="234" y2="123" />
	<text style="text-anchor:middle" x="258" y="133">Wed</text>
	<line style="stroke-dasharray:1" x1="282" y1="14" x2="282" y2="123" />
	<text style="text-anchor:middle" x="306" y="133">Tue</text>
	<line style="stroke-dasharray:1" x1="330" y1="14" x2="330" y2="123" />
	<text style="text-anchor:middle" x="354" y="133">Mon</text>
	<line style="stroke-dasharray:1" x1="378" y1="14" x2="378" y2="123" />
	<text style="text-anchor:middle" x="402" y="133">Sun</text>
	<line style="stroke:red" x1="426" y1="14" x2="426" y2="123" />
	<text style="text-anchor:middle" x="450" y="133">Sat</text>
	<line x1="470" y1="14" x2="470" y2="121"/>
	<polygon style="fill:red;stroke:red;fill-opacity:1;" points="63,121 69,118 69,124" />
	<!-- OutsidePressure MinMax -->
	<polygon style="fill:green;stroke:green;clip-path:url(#GraphRegion)" points="67,98 68,90 69,98 70,98 71,98 72,98 73,98 74,98 75,98 76,98 77,105 78,105 79,105 80,105 81,105 82,105 83,105 84,105 85,105 86,105 87,105 88,105 89,105 90,113 91,113 92,113 93,113 94,113 95,113 96,113 97,113 98,113 99,113 100,113 101,113 102,113 103,113 104,105 105,105 106,105 107,105 108,98 109,98 110,98 111,98 112,90 113,90 114,90 115,98 116,90 117,90 118,90 119,90 120,90 121,90 122,90 123,90 124,90 125,90 126,90 127,90 128,90 129,90 130,82 131,82 132,82 133,82 134,75 135,82 136,82 137,75 138,82 139,82 140,90 141,90 142,90 143,90 144,90 145,90 146,90 147,98 148,90 149,90 150,90 151,90 152,82 153,82 154,82 155,75 156,75 157,75 158,67 159,67 160,67 161,67 162,59 163,59 164,59 165,67 166,67 167,67 168,67 169,67 170,67 171,67 172,67 173,67 174,67 175,67 176,67 177,67 178,67 179,67 180,67 181,67 182,67 183,67 184,67 185,67 186,67 187,67 188,67 189,67 190,67 191,67 192,67 193,67 194,67 195,67 196,67 197,67 198,67 199,67 200,67 201,59 202,59 203,52 204,52 205,52 206,44 207,44 208,44 209,44 210,36 211,36 212,36 213,36 214,36 215,36 216,36 217,36 218,36 219,36 220,36 221,36 222,36 223,36 224,36 225,36 226,29 227,29 228,29 229,29 230,29 231,29 232,29 233,29 234,29 235,29 236,29 237,29 238,36 239,36 240,36 241,36 242,36 243,36 244,36 245,36 246,36 247,36 248,36 249,29 250,29 251,29 252,21 253,21 254,21 255,14 256,14 257,14 258,14 259,14 260,14 261,14 262,14 263,14 264,14 265,14 266,21 267,21 268,21 269,21 270,21 271,21 272,21 273,21 274,21 275,21 276,21 277,21 278,21 279,21 280,21 281,21 282,21 283,21 284,21 285,21 286,21 287,29 288,29 289,29 290,29 291,29 292,29 293,29 294,29 295,21 296,21 297,21 298,21 299,14 300,14 301,14 302,14 303,14 304,14 305,14 306,14 307,14 308,14 309,21 310,21 311,21 312,21 313,21 314,29 315,29 316,29 317,29 318,36 319,36 320,36 321,36 322,36 323,36 324,44 325,44 326,44 327,44 328,44 329,44 330,44 331,52 332,52 333,52 334,52 335,59 336,59 337,59 338,67 339,67 340,67 341,75 342,75 343,75 344,75 345,75 346,75 347,75 348,75 349,75 350,75 351,75 352,75 353,75 354,75 355,75 356,75 357,75 358,75 359,75 360,75 361,82 362,82 363,82 364,90 365,90 366,90 367,90 368,90 369,90 370,90 371,90 372,90 373,90 374,90 375,90 376,90 377,90 378,90 379,90 380,90 381,90 382,98 383,98 384,98 385,105 386,105 387,113 388,113 389,113 390,113 391,113 392,113 393,105 394,105 395,105 396,105 397,98 398,98 399,98 400,98 401,98 402,90 403,90 404,90 405,90 406,90 407,90 408,90 409,90 410,90 411,90 412,90 413,90 414,90 415,90 416,90 417,90 418,90 419,90 420,90 421,90 422,90 423,90 424,90 425,90 426,90 427,90 428,90 429,90 430,90 431,90 432,90 433,90 434,90 435,90 436,90 437,82 438,82 439,82 440,82 441,82 442,75 443,75 444,75 445,67 446,67 447,67 448,59 449,59 450,59 451,59 452,52 453,52 454,52 455,52 456,52 457,52 458,52 459,52 460,52 461,52 462,59 463,59 464,59 465,59 466,59 467,52 468,59 469,59 469,59 468,59 467,59 466,59 465,59 464,59 463,59 462,59 461,59 460,59 459,52 458,52 457,52 456,52 455,52 454,59 453,59 452,59 451,59 450,59 449,59 448,67 447,67 446,67 445,75 444,75 443,75 442,82 441,82 440,82 439,82 438,82 437,90 436,90 435,90 434,90 433,90 432,90 431,90 430,90 429,90 428,90 427,90 426,90 425,98 424,90 423,90 422,90 421,90 420,90 419,90 418,90 417,90 416,90 415,90 414,90 413,90 412,90 411,90 410,90 409,90 408,90 407,90 406,90 405,90 404,90 403,98 402,98 401,98 400,98 399,105 398,105 397,105 396,105 395,113 394,113 393,113 392,113 391,113 390,113 389,113 388,113 387,113 386,113 385,105 384,105 383,98 382,98 381,98 380,90 379,90 378,98 377,98 376,98 375,90 374,90 373,90 372,90 371,90 370,90 369,90 368,90 367,90 366,90 365,90 364,90 363,90 362,82 361,82 360,82 359,82 358,82 357,82 356,82 355,82 354,82 353,82 352,75 351,75 350,75 349,75 348,75 347,75 346,75 345,75 344,75 343,75 342,75 341,75 340,75 339,75 338,67 337,67 336,67 335,59 334,59 333,59 332,52 331,52 330,52 329,52 328,52 327,52 326,44 325,44 324,44 323,44 322,36 321,36 320,36 319,36 318,36 317,36 316,36 315,29 314,29 313,29 312,29 311,21 310,21 309,21 308,21 307,14 306,14 305,14 304,14 303,14 302,14 301,14 300,21 299,21 298,21 297,21 296,21 295,29 294,29 293,29 292,29 291,29 290,29 289,29 288,29 287,29 286,29 285,29 284,29 283,21 282,21 281,21 280,21 279,21 278,21 277,21 276,21 275,21 274,21 273,21 272,21 271,21 270,21 269,21 268,21 267,21 266,21 265,21 264,21 263,14 262,14 261,14 260,14 259,14 258,14 257,14 256,21 255,21 254,21 253,29 252,29 251,29 250,36 249,36 248,36 247,36 246,36 245,36 244,36 243,36 242,36 241,36 240,36 239,36 238,36 237,36 236,36 235,29 234,29 233,29 232,29 231,29 230,29 229,29 228,29 227,36 226,36 225,36 224,36 223,36 222,36 221,36 220,36 219,36 218,36 217,36 216,36 215,36 214,36 213,36 212,36 211,36 210,44 209,44 208,44 207,44 206,52 205,52 204,52 203,59 202,59 201,67 200,67 199,67 198,67 197,67 196,75 195,75 194,75 193,67 192,67 191,67 190,67 189,67 188,67 187,67 186,67 185,67 184,67 183,67 182,67 181,67 180,67 179,67 178,67 177,67 176,67 175,67 174,67 173,67 172,67 171,67 170,67 169,67 168,67 167,67 166,67 165,67 164,67 163,67 162,67 161,67 160,67 159,67 158,75 157,75 156,75 155,82 154,82 153,90 152,90 151,90 150,98 149,98 148,98 147,98 146,98 145,98 144,98 143,90 142,90 141,90 140,90 139,90 138,90 137,82 136,82 135,82 134,82 133,82 132,82 131,90 130,90 129,90 128,90 127,90 126,90 125,90 124,90 123,90 122,98 121,90 120,98 119,98 118,90 117,98 116,98 115,98 114,98 113,98 112,98 111,98 110,98 109,98 108,105 107,105 106,105 105,113 104,113 103,113 102,113 101,121 100,113 99,121 98,121 97,121 96,121 95,121 94,121 93,113 92,113 91,113 90,113 89,113 88,113 87,105 86,113 85,113 84,113 83,113 82,105 81,105 80,105 79,105 78,105 77,105 76,105 75,105 74,98 73,98 72,98 71,98 70,98 69,98 68,98 67,98 " />
	<!-- ApparentWindSpeed MinMax -->
	<polygon style="fill:blue;stroke:blue;clip-path:url(#GraphRegion)" points="67,61 68,55 69,57 70,55 71,55 72,57 73,65 74,74 75,68 76,73 77,69 78,78 79,83 80,74 81,88 82,108 83,112 84,109 85,108 86,107 87,95 88,84 89,105 90,101 91,87 92,98 93,102 94,87 95,88 96,80 97,92 98,93 99,101 100,98 101,92 102,95 103,77 104,76 105,78 106,76 107,77 108,68 109,80 110,74 111,86 112,100 113,85 114,62 115,48 116,62 117,76 118,92 119,86 120,88 121,101 122,96 123,91 124,91 125,87 126,75 127,85 128,91 129,91 130,88 131,97 132,96 133,106 134,99 135,94 136,110 137,111 138,113 139,107 140,114 141,115 142,111 143,106 144,100 145,92 146,84 147,31 148,19 149,14 150,14 151,19 152,23 153,30 154,40 155,44 156,57 157,53 158,47 159,54 160,53 161,50 162,56 163,74 164,81 165,69 166,73 167,84 168,85 169,71 170,73 171,105 172,111 173,107 174,103 175,89 176,100 177,89 178,95 179,106 180,105 181,105 182,111 183,107 184,105 185,100 186,98 187,103 188,98 189,106 190,105 191,86 192,78 193,70 194,32 195,29 196,26 197,45 198,38 199,57 200,56 201,71 202,70 203,70 204,66 205,62 206,53 207,47 208,52 209,53 210,49 211,50 212,53 213,70 214,84 215,91 216,91 217,96 218,82 219,89 220,85 221,77 222,83 223,93 224,93 225,92 226,100 227,107 228,113 229,86 230,86 231,91 232,84 233,83 234,78 235,91 236,84 237,72 238,57 239,44 240,40 241,40 242,52 243,56 244,42 245,45 246,45 247,52 248,64 249,68 250,60 251,61 252,65 253,58 254,55 255,59 256,55 257,63 258,70 259,68 260,66 261,74 262,68 263,61 264,60 265,68 266,77 267,74 268,78 269,76 270,83 271,82 272,76 273,69 274,65 275,64 276,58 277,56 278,63 279,57 280,62 281,70 282,83 283,78 284,91 285,90 286,91 287,117 288,103 289,102 290,85 291,83 292,77 293,77 294,76 295,76 296,72 297,75 298,80 299,91 300,92 301,91 302,82 303,87 304,87 305,79 306,96 307,102 308,104 309,102 310,94 311,94 312,98 313,100 314,99 315,100 316,100 317,82 318,81 319,82 320,82 321,81 322,71 323,78 324,76 325,70 326,76 327,84 328,81 329,78 330,79 331,79 332,85 333,78 334,78 335,74 336,69 337,72 338,66 339,67 340,63 341,54 342,53 343,54 344,60 345,47 346,61 347,60 348,52 349,66 350,68 351,77 352,86 353,82 354,77 355,76 356,68 357,72 358,76 359,61 360,50 361,56 362,42 363,51 364,46 365,63 366,76 367,74 368,68 369,64 370,70 371,70 372,68 373,38 374,49 375,44 376,40 377,42 378,55 379,67 380,32 381,24 382,47 383,41 384,83 385,87 386,100 387,93 388,78 389,87 390,85 391,89 392,73 393,73 394,83 395,74 396,85 397,94 398,76 399,68 400,57 401,55 402,58 403,67 404,73 405,79 406,82 407,87 408,101 409,108 410,101 411,103 412,106 413,100 414,103 415,109 416,108 417,108 418,114 419,110 420,114 421,113 422,105 423,108 424,107 425,106 426,94 427,100 428,111 429,105 430,99 431,102 432,97 433,78 434,63 435,57 436,59 437,61 438,56 439,46 440,36 441,23 442,40 443,58 444,57 445,54 446,48 447,45 448,48 449,52 450,52 451,41 452,53 453,47 454,53 455,54 456,71 457,73 458,105 459,106 460,116 461,110 462,110 463,105 464,107 465,111 466,99 467,89 468,78 469,91 469,113 468,104 467,107 466,115 465,118 464,112 463,113 462,120 461,114 460,120 459,119 458,117 457,101 456,92 455,81 454,77 453,71 452,72 451,68 450,78 449,78 448,80 447,81 446,73 445,78 444,79 443,81 442,71 441,62 440,68 439,76 438,86 437,83 436,85 435,81 434,88 433,105 432,109 431,115 430,109 429,111 428,118 427,114 426,112 425,114 424,115 423,115 422,113 421,119 420,118 419,116 418,120 417,118 416,116 415,117 414,116 413,113 412,114 411,115 410,113 409,114 408,111 407,102 406,98 405,96 404,98 403,90 402,86 401,82 400,86 399,86 398,94 397,111 396,106 395,90 394,96 393,91 392,90 391,102 390,97 389,104 388,98 387,103 386,111 385,109 384,105 383,98 382,90 381,72 380,83 379,94 378,80 377,69 376,76 375,75 374,76 373,86 372,93 371,91 370,91 369,89 368,91 367,96 366,97 365,95 364,85 363,85 362,83 361,81 360,81 359,90 358,95 357,97 356,94 355,96 354,98 353,98 352,101 351,101 350,91 349,90 348,84 347,85 346,89 345,83 344,86 343,82 342,85 341,85 340,88 339,87 338,88 337,91 336,91 335,93 334,97 333,98 332,101 331,102 330,95 329,100 328,100 327,101 326,97 325,94 324,94 323,93 322,91 321,96 320,96 319,94 318,99 317,102 316,110 315,111 314,106 313,109 312,109 311,103 310,104 309,108 308,110 307,109 306,105 305,99 304,100 303,98 302,96 301,103 300,100 299,100 298,95 297,90 296,86 295,90 294,91 293,91 292,89 291,94 290,101 289,111 288,114 287,120 286,109 285,107 284,111 283,94 282,97 281,94 280,85 279,84 278,84 277,81 276,79 275,83 274,85 273,87 272,90 271,96 270,97 269,93 268,93 267,90 266,92 265,88 264,85 263,85 262,88 261,87 260,88 259,93 258,92 257,90 256,77 255,83 254,78 253,80 252,84 251,79 250,83 249,86 248,85 247,78 246,71 245,70 244,71 243,77 242,74 241,68 240,65 239,70 238,79 237,90 236,107 235,112 234,102 233,98 232,103 231,104 230,99 229,106 228,119 227,118 226,111 225,102 224,105 223,111 222,99 221,93 220,106 219,104 218,104 217,107 216,106 215,105 214,100 213,89 212,80 211,75 210,77 209,78 208,78 207,77 206,81 205,80 204,83 203,85 202,87 201,88 200,86 199,83 198,74 197,71 196,61 195,60 194,75 193,90 192,95 191,106 190,115 189,116 188,114 187,114 186,108 185,112 184,112 183,119 182,119 181,117 180,116 179,112 178,114 177,110 176,111 175,105 174,115 173,118 172,118 171,115 170,108 169,98 168,103 167,101 166,96 165,89 164,97 163,101 162,82 161,80 160,84 159,80 158,76 157,83 156,82 155,78 154,76 153,69 152,60 151,56 150,53 149,54 148,59 147,76 146,109 145,106 144,113 143,112 142,117 141,120 140,119 139,113 138,119 137,118 136,116 135,114 134,112 133,117 132,112 131,111 130,112 129,111 128,106 127,100 126,95 125,102 124,110 123,108 122,111 121,114 120,102 119,101 118,109 117,90 116,88 115,76 114,89 113,98 112,111 111,109 110,90 109,92 108,91 107,94 106,100 105,110 104,102 103,107 102,111 101,109 100,111 99,112 98,112 97,108 96,98 95,106 94,106 93,113 92,112 91,113 90,116 89,115 88,105 87,114 86,114 85,113 84,115 83,116 82,116 81,112 80,94 79,100 78,97 77,93 76,93 75,96 74,94 73,89 72,83 71,82 70,87 69,83 68,84 67,87 " />
	<!-- OutsidePressure -->
	<polyline style="fill:none;stroke:green;clip-path:url(#GraphRegion)" points="67,98 68,98 69,98 70,98 71,98 72,98 73,98 74,98 75,100 76,105 77,105 78,105 79,105 80,105 81,105 82,105 83,106 84,108 85,106 86,106 87,105 88,106 89,110 90,113 91,113 92,113 93,113 94,115 95,114 96,118 97,117 98,113 99,115 100,113 101,113 102,113 103,113 104,111 105,108 106,105 107,105 108,104 109,98 110,98 111,98 112,97 113,98 114,97 115,98 116,95 117,91 118,90 119,90 120,90 121,90 122,90 123,90 124,90 125,90 126,90 127,90 128,90 129,90 130,88 131,82 132,82 133,82 134,78 135,82 136,82 137,82 138,85 139,89 140,90 141,90 142,90 143,90 144,90 145,96 146,98 147,98 148,97 149,91 150,90 151,90 152,89 153,82 154,82 155,77 156,75 157,75 158,71 159,67 160,67 161,67 162,62 163,59 164,65 165,67 166,67 167,67 168,67 169,67 170,67 171,67 172,67 173,67 174,67 175,67 176,67 177,67 178,67 179,67 180,67 181,67 182,67 183,67 184,67 185,67 186,67 187,67 188,67 189,67 190,67 191,67 192,67 193,67 194,68 195,68 196,70 197,67 198,67 199,67 200,67 201,61 202,59 203,53 204,52 205,52 206,50 207,44 208,44 209,44 210,40 211,36 212,36 213,36 214,36 215,36 216,36 217,36 218,36 219,36 220,36 221,36 222,36 223,36 224,36 225,36 226,33 227,29 228,29 229,29 230,29 231,29 232,29 233,29 234,29 235,29 236,29 237,35 238,36 239,36 240,36 241,36 242,36 243,36 244,36 245,36 246,36 247,36 248,36 249,36 250,31 251,29 252,28 253,21 254,21 255,21 256,15 257,14 258,14 259,14 260,14 261,14 262,14 263,14 264,18 265,21 266,21 267,21 268,21 269,21 270,21 271,21 272,21 273,21 274,21 275,21 276,21 277,21 278,21 279,21 280,21 281,21 282,21 283,21 284,21 285,26 286,28 287,29 288,29 289,29 290,29 291,29 292,29 293,29 294,29 295,24 296,21 297,21 298,21 299,21 300,14 301,14 302,14 303,14 304,14 305,14 306,14 307,14 308,15 309,21 310,21 311,21 312,25 313,29 314,29 315,29 316,29 317,36 318,36 319,36 320,36 321,36 322,36 323,42 324,44 325,44 326,44 327,44 328,44 329,46 330,52 331,52 332,52 333,52 334,57 335,59 336,61 337,67 338,67 339,68 340,73 341,75 342,75 343,75 344,75 345,75 346,75 347,75 348,75 349,75 350,75 351,75 352,75 353,75 354,75 355,76 356,77 357,79 358,79 359,78 360,81 361,82 362,82 363,83 364,90 365,90 366,90 367,90 368,90 369,90 370,90 371,90 372,90 373,90 374,90 375,90 376,91 377,97 378,90 379,90 380,90 381,94 382,98 383,98 384,99 385,105 386,108 387,113 388,113 389,113 390,113 391,113 392,113 393,113 394,111 395,105 396,105 397,103 398,99 399,98 400,98 401,98 402,97 403,90 404,90 405,90 406,90 407,90 408,90 409,90 410,90 411,90 412,90 413,90 414,90 415,90 416,90 417,90 418,90 419,90 420,90 421,90 422,90 423,90 424,90 425,90 426,90 427,90 428,90 429,90 430,90 431,90 432,90 433,90 434,90 435,90 436,90 437,85 438,82 439,82 440,82 441,82 442,78 443,75 444,75 445,68 446,67 447,67 448,65 449,59 450,59 451,59 452,59 453,57 454,52 455,52 456,52 457,52 458,52 459,52 460,53 461,59 462,59 463,59 464,59 465,59 466,59 467,59 468,59 469,59 " />
	<!-- ApparentWindSpeed -->
	<polyline style="fill:none;stroke:blue;clip-path:url(#GraphRegion)" points="67,87 68,84 69,83 70,87 71,82 72,83 73,89 74,94 75,96 76,93 77,93 78,97 79,100 80,94 81,112 82,116 83,116 84,115 85,113 86,114 87,114 88,105 89,115 90,116 91,113 92,112 93,113 94,106 95,106 96,98 97,108 98,112 99,112 100,111 101,109 102,111 103,107 104,102 105,110 106,100 107,94 108,91 109,92 110,90 111,109 112,111 113,98 114,89 115,76 116,88 117,90 118,109 119,101 120,102 121,114 122,111 123,108 124,110 125,102 126,95 127,100 128,106 129,111 130,112 131,111 132,112 133,117 134,112 135,114 136,116 137,118 138,119 139,113 140,119 141,120 142,117 143,112 144,113 145,106 146,109 147,76 148,59 149,54 150,53 151,56 152,60 153,69 154,76 155,78 156,82 157,83 158,76 159,80 160,84 161,80 162,82 163,101 164,97 165,89 166,96 167,101 168,103 169,98 170,108 171,115 172,118 173,118 174,115 175,105 176,111 177,110 178,114 179,112 180,116 181,117 182,119 183,119 184,112 185,112 186,108 187,114 188,114 189,116 190,115 191,106 192,95 193,90 194,75 195,60 196,61 197,71 198,74 199,83 200,86 201,88 202,87 203,85 204,83 205,80 206,81 207,77 208,78 209,78 210,77 211,75 212,80 213,89 214,100 215,105 216,106 217,107 218,104 219,104 220,106 221,93 222,99 223,111 224,105 225,102 226,111 227,118 228,119 229,106 230,99 231,104 232,103 233,98 234,102 235,112 236,107 237,90 238,79 239,70 240,65 241,68 242,74 243,77 244,71 245,70 246,71 247,78 248,85 249,86 250,83 251,79 252,84 253,80 254,78 255,83 256,77 257,90 258,92 259,93 260,88 261,87 262,88 263,85 264,85 265,88 266,92 267,90 268,93 269,93 270,97 271,96 272,90 273,87 274,85 275,83 276,79 277,81 278,84 279,84 280,85 281,94 282,97 283,94 284,111 285,107 286,109 287,120 288,114 289,111 290,101 291,94 292,89 293,91 294,91 295,90 296,86 297,90 298,95 299,100 300,100 301,103 302,96 303,98 304,100 305,99 306,105 307,109 308,110 309,108 310,104 311,103 312,109 313,109 314,106 315,111 316,110 317,102 318,99 319,94 320,96 321,96 322,91 323,93 324,94 325,94 326,97 327,101 328,100 329,100 330,95 331,102 332,101 333,98 334,97 335,93 336,91 337,91 338,88 339,87 340,88 341,85 342,85 343,82 344,86 345,83 346,89 347,85 348,84 349,90 350,91 351,101 352,101 353,98 354,98 355,96 356,94 357,97 358,95 359,90 360,81 361,81 362,83 363,85 364,85 365,95 366,97 367,96 368,91 369,89 370,91 371,91 372,93 373,86 374,76 375,75 376,76 377,69 378,80 379,94 380,83 381,72 382,90 383,98 384,105 385,109 386,111 387,103 388,98 389,104 390,97 391,102 392,90 393,91 394,96 395,90 396,106 397,111 398,94 399,86 400,86 401,82 402,86 403,90 404,98 405,96 406,98 407,102 408,111 409,114 410,113 411,115 412,114 413,113 414,116 415,117 416,116 417,118 418,120 419,116 420,118 421,119 422,113 423,115 424,115 425,114 426,112 427,114 428,118 429,111 430,109 431,115 432,109 433,105 434,88 435,81 436,85 437,83 438,86 439,76 440,68 441,62 442,71 443,81 444,79 445,78 446,73 447,81 448,80 449,78 450,78 451,68 452,72 453,71 454,77 455,81 456,92 457,101 458,117 459,119 460,120 461,114 462,120 463,113 464,112 465,118 466,115 467,107 468,104 469,113 " />
	<text class="barometer-label" x="50%" y="396">Rain</text>
	<text class="barometer-label" x="50%" y="205">Change</text>
	<text class="barometer-label" x="50%" y="14">Fair</text>
</svg>
