<?xml version="1.0" encoding="utf-8" standalone="no"?>
<svg xmlns="http://www.w3.org/2000/svg" xmlns:xlink="http://www.w3.org/1999/xlink" width="500" height="135">
	<!-- Created by: InfluxDBWindSVG Version 2.20231016.1 Built on: Oct 16 2023 at 21:02:31 -->
	<style>
		text { font-family: sans-serif; font-size: 12px; fill: black; }
		line { stroke: black; }
		polygon { fill-opacity: 0.5; }
	</style>
	<rect style="fill-opacity:0;stroke:grey;stroke-width:2" width="500" height="135" />
	<text x="58" y="12">Sola Apparent Wind Speed</text>
	<text style="text-anchor:end" x="486" y="12">2023-10-17 05:13:32</text>
	<text style="fill:blue;text-anchor:middle" x="12" y="67" transform="rotate(270 12,67)">Wind Speed (4.2 kn)</text>
	<line x1="56" y1="14" x2="488" y2="14"/>
	<text style="fill:blue;text-anchor:end" x="56" y="19">26.1</text>
	<line x1="56" y1="121" x2="488" y2="121"/>
	<text style="fill:blue;text-anchor:end" x="56" y="126">0.0</text>
	<line x1="58" y1="14" x2="58" y2="121"/>
	<line x1="486" y1="14" x2="486" y2="121"/>
	<line style="stroke-dasharray:1" x1="56" y1="40" x2="488" y2="40" />
	<text style="fill:blue;text-anchor:end" x="56" y="44">19.6</text>
	<line style="stroke-dasharray:1" x1="56" y1="66" x2="488" y2="66" />
	<text style="fill:blue;text-anchor:end" x="56" y="70">13.1</text>
	<line style="stroke-dasharray:1" x1="56" y1="92" x2="488" y2="92" />
	<text style="fill:blue;text-anchor:end" x="56" y="96">6.5</text>
	<line style="stroke-dasharray:1" x1="60" y1="14" x2="60" y2="123" />
	<line style="stroke-dasharray:1" x1="72" y1="14" x2="72" y2="123" />
	<text style="text-anchor:middle" x="72" y="133">4</text>
	<line style="stroke-dasharray:1" x1="84" y1="14" x2="84" y2="123" />
	<line style="stroke-dasharray:1" x1="96" y1="14" x2="96" y2="123" />
	<text style="text-anchor:middle" x="96" y="133">2</text>
	<line style="stroke-dasharray:1" x1="108" y1="14" x2="108" y2="123" />
	<line style="stroke:red" x1="120" y1="14" x2="120" y2="123" />
	<text style="text-anchor:middle" x="120" y="133">0</text>
	<line style="stroke-dasharray:1" x1="132" y1="14" x2="132" y2="123" />
	<line style="stroke-dasharray:1" x1="144" y1="14" x2="144" y2="123" />
	<text style="text-anchor:middle" x="144" y="133">22</text>
	<line style="stroke-dasharray:1" x1="156" y1="14" x2="156" y2="123" />
	<line style="stroke-dasharray:1" x1="168" y1="14" x2="168" y2="123" />
	<text style="text-anchor:middle" x="168" y="133">20</text>
	<line style="stroke-dasharray:1" x1="180" y1="14" x2="180" y2="123" />
	<line style="stroke-dasharray:1" x1="192" y1="14" x2="192" y2="123" />
	<text style="text-anchor:middle" x="192" y="133">18</text>
	<line style="stroke-dasharray:1" x1="204" y1="14" x2="204" y2="123" />
	<line style="stroke-dasharray:1" x1="216" y1="14" x2="216" y2="123" />
	<text style="text-anchor:middle" x="216" y="133">16</text>
	<line style="stroke-dasharray:1" x1="228" y1="14" x2="228" y2="123" />
	<line style="stroke-dasharray:1" x1="240" y1="14" x2="240" y2="123" />
	<text style="text-anchor:middle" x="240" y="133">14</text>
	<line style="stroke-dasharray:1" x1="252" y1="14" x2="252" y2="123" />
	<line style="stroke-dasharray:1" x1="264" y1="14" x2="264" y2="123" />
	<text style="text-anchor:middle" x="264" y="133">12</text>
	<line style="stroke-dasharray:1" x1="276" y1="14" x2="276" y2="123" />
	<line style="stroke-dasharray:1" x1="288" y1="14" x2="288" y2="123" />
	<text style="text-anchor:middle" x="288" y="133">10</text>
	<line style="stroke-dasharray:1" x1="300" y1="14" x2="300" y2="123" />
	<line style="stroke-dasharray:1" x1="312" y1="14" x2="312" y2="123" />
	<text style="text-anchor:middle" x="312" y="133">8</text>
	<line style="stroke-dasharray:1" x1="324" y1="14" x2="324" y2="123" />
	<line style="stroke-dasharray:1" x1="336" y1="14" x2="336" y2="123" />
	<text style="text-anchor:middle" x="336" y="133">6</text>
	<line style="stroke-dasharray:1" x1="348" y1="14" x2="348" y2="123" />
	<line style="stroke-dasharray:1" x1="360" y1="14" x2="360" y2="123" />
	<text style="text-anchor:middle" x="360" y="133">4</text>
	<line style="stroke-dasharray:1" x1="372" y1="14" x2="372" y2="123" />
	<line style="stroke-dasharray:1" x1="384" y1="14" x2="384" y2="123" />
	<text style="text-anchor:middle" x="384" y="133">2</text>
	<line style="stroke-dasharray:1" x1="396" y1="14" x2="396" y2="123" />
	<line style="stroke:red" x1="408" y1="14" x2="408" y2="123" />
	<text style="text-anchor:middle" x="408" y="133">0</text>
	<line style="stroke-dasharray:1" x1="420" y1="14" x2="420" y2="123" />
	<line style="stroke-dasharray:1" x1="432" y1="14" x2="432" y2="123" />
	<text style="text-anchor:middle" x="432" y="133">22</text>
	<line style="stroke-dasharray:1" x1="444" y1="14" x2="444" y2="123" />
	<line style="stroke-dasharray:1" x1="456" y1="14" x2="456" y2="123" />
	<text style="text-anchor:middle" x="456" y="133">20</text>
	<line style="stroke-dasharray:1" x1="468" y1="14" x2="468" y2="123" />
	<line style="stroke-dasharray:1" x1="480" y1="14" x2="480" y2="123" />
	<text style="text-anchor:middle" x="480" y="133">18</text>
	<polygon style="fill:red;stroke:red;fill-opacity:1;" points="55,121 61,118 61,124" />
	<!-- ApparentWindSpeed MinMax -->
	<polygon style="fill:blue;stroke:blue" points="59,94 60,96 61,100 62,101 63,97 64,100 65,105 66,92 67,105 68,98 69,94 70,96 71,96 72,82 73,80 74,78 75,72 76,90 77,84 78,86 79,88 80,100 81,92 82,96 83,99 84,98 85,87 86,90 87,94 88,91 89,91 90,88 91,85 92,79 93,78 94,79 95,69 96,76 97,68 98,69 99,71 100,66 101,56 102,63 103,65 104,71 105,66 106,69 107,76 108,84 109,79 110,75 111,74 112,64 113,65 114,73 115,69 116,73 117,82 118,82 119,75 120,85 121,76 122,73 123,80 124,68 125,69 126,69 127,71 128,71 129,80 130,71 131,80 132,66 133,70 134,66 135,55 136,56 137,69 138,59 139,53 140,54 141,56 142,59 143,55 144,64 145,75 146,64 147,63 148,60 149,37 150,39 151,38 152,37 153,30 154,41 155,50 156,38 157,58 158,64 159,63 160,70 161,63 162,42 163,64 164,50 165,46 166,54 167,52 168,46 169,46 170,31 171,35 172,32 173,33 174,19 175,42 176,41 177,64 178,59 179,68 180,74 181,66 182,59 183,66 184,58 185,55 186,54 187,48 188,44 189,44 190,48 191,50 192,72 193,60 194,55 195,62 196,67 197,57 198,52 199,48 200,39 201,48 202,48 203,33 204,39 205,36 206,44 207,55 208,41 209,48 210,39 211,52 212,55 213,47 214,57 215,59 216,52 217,46 218,48 219,55 220,54 221,50 222,51 223,48 224,45 225,50 226,46 227,62 228,37 229,39 230,20 231,37 232,35 233,42 234,28 235,48 236,48 237,33 238,35 239,40 240,44 241,35 242,42 243,37 244,44 245,40 246,29 247,28 248,21 249,31 250,41 251,14 252,34 253,35 254,30 255,30 256,32 257,38 258,36 259,44 260,48 261,56 262,54 263,63 264,55 265,56 266,62 267,60 268,66 269,62 270,63 271,57 272,70 273,69 274,66 275,74 276,86 277,82 278,79 279,79 280,71 281,77 282,84 283,79 284,88 285,83 286,89 287,83 288,81 289,79 290,81 291,87 292,84 293,81 294,71 295,55 296,62 297,63 298,46 299,48 300,63 301,38 302,38 303,27 304,58 305,59 306,75 307,73 308,48 309,64 310,79 311,82 312,82 313,85 314,86 315,95 316,79 317,77 318,65 319,62 320,30 321,82 322,83 323,89 324,87 325,90 326,79 327,73 328,82 329,85 330,84 331,83 332,71 333,79 334,87 335,81 336,80 337,79 338,83 339,87 340,72 341,85 342,84 343,89 344,91 345,95 346,93 347,98 348,91 349,93 350,89 351,85 352,93 353,86 354,86 355,93 356,95 357,93 358,95 359,100 360,100 361,98 362,99 363,94 364,97 365,100 366,100 367,102 368,97 369,109 370,109 371,115 372,111 373,106 374,107 375,106 376,109 377,109 378,92 379,92 380,109 381,116 382,106 383,111 384,109 385,109 386,112 387,115 388,117 389,115 390,114 391,113 392,115 393,109 394,109 395,113 396,116 397,116 398,117 399,121 400,117 401,113 402,112 403,115 404,116 405,115 406,118 407,117 408,121 409,121 410,118 411,121 412,116 413,115 414,117 415,118 416,114 417,114 418,103 419,112 420,115 421,115 422,115 423,109 424,109 425,109 426,106 427,114 428,110 429,110 430,81 431,97 432,94 433,103 434,99 435,95 436,95 437,96 438,88 439,90 440,93 441,93 442,95 443,97 444,95 445,98 446,93 447,93 448,94 449,104 450,107 451,108 452,100 453,101 454,99 455,98 456,96 457,96 458,94 459,99 460,97 461,96 462,85 463,97 464,99 465,103 466,107 467,104 468,103 469,97 470,96 471,100 472,101 473,102 474,109 475,109 476,101 477,108 478,110 479,112 480,101 481,106 482,104 483,106 484,113 485,118 485,121 484,121 483,116 482,114 481,118 480,113 479,121 478,115 477,114 476,116 475,121 474,121 473,111 472,112 471,111 470,112 469,110 468,113 467,113 466,114 465,111 464,114 463,111 462,109 461,109 460,109 459,109 458,107 457,106 456,111 455,109 454,113 453,110 452,114 451,116 450,114 449,114 448,117 447,112 446,108 445,108 444,109 443,109 442,112 441,108 440,107 439,107 438,107 437,108 436,110 435,112 434,111 433,114 432,116 431,113 430,121 429,121 428,117 427,121 426,121 425,114 424,113 423,116 422,121 421,121 420,121 419,121 418,121 417,121 416,121 415,121 414,121 413,121 412,121 411,121 410,121 409,121 408,121 407,121 406,121 405,118 404,121 403,117 402,116 401,121 400,121 399,121 398,121 397,121 396,121 395,121 394,116 393,121 392,121 391,117 390,121 389,121 388,121 387,121 386,121 385,121 384,121 383,121 382,121 381,121 380,117 379,118 378,117 377,121 376,121 375,121 374,121 373,121 372,121 371,121 370,121 369,121 368,113 367,113 366,111 365,108 364,111 363,109 362,110 361,111 360,113 359,112 358,114 357,109 356,116 355,121 354,116 353,113 352,118 351,115 350,115 349,113 348,109 347,112 346,112 345,112 344,112 343,110 342,113 341,104 340,106 339,111 338,112 337,105 336,109 335,106 334,111 333,116 332,110 331,115 330,116 329,113 328,113 327,104 326,111 325,111 324,113 323,112 322,109 321,111 320,101 319,103 318,104 317,109 316,113 315,117 314,111 313,112 312,108 311,107 310,110 309,103 308,97 307,107 306,107 305,103 304,101 303,93 302,100 301,104 300,102 299,98 298,98 297,103 296,98 295,98 294,105 293,107 292,112 291,113 290,114 289,110 288,108 287,108 286,112 285,111 284,111 283,111 282,111 281,112 280,107 279,106 278,110 277,113 276,112 275,104 274,111 273,106 272,104 271,102 270,103 269,102 268,109 267,102 266,99 265,98 264,104 263,103 262,94 261,93 260,97 259,104 258,93 257,88 256,91 255,92 254,92 253,118 252,89 251,118 250,87 249,88 248,83 247,100 246,118 245,88 244,103 243,84 242,94 241,95 240,96 239,100 238,100 237,96 236,98 235,118 234,91 233,118 232,97 231,96 230,118 229,103 228,100 227,94 226,92 225,94 224,94 223,95 222,102 221,93 220,95 219,93 218,105 217,98 216,100 215,118 214,96 213,93 212,93 211,100 210,91 209,93 208,95 207,103 206,91 205,91 204,106 203,90 202,96 201,100 200,91 199,100 198,99 197,99 196,107 195,105 194,103 193,107 192,106 191,96 190,96 189,98 188,92 187,100 186,105 185,103 184,99 183,104 182,106 181,103 180,107 179,105 178,103 177,98 176,97 175,95 174,92 173,93 172,89 171,94 170,93 169,97 168,105 167,102 166,98 165,101 164,96 163,96 162,100 161,104 160,101 159,108 158,101 157,103 156,105 155,99 154,104 153,100 152,95 151,98 150,95 149,94 148,102 147,112 146,109 145,107 144,103 143,98 142,103 141,102 140,98 139,96 138,99 137,100 136,98 135,100 134,103 133,104 132,103 131,103 130,103 129,108 128,106 127,105 126,102 125,109 124,100 123,107 122,99 121,107 120,113 119,104 118,106 117,107 116,103 115,105 114,105 113,103 112,100 111,100 110,100 109,103 108,108 107,107 106,107 105,103 104,106 103,102 102,109 101,101 100,100 99,102 98,106 97,105 96,103 95,107 94,113 93,109 92,112 91,113 90,113 89,112 88,112 87,108 86,112 85,113 84,114 83,113 82,113 81,114 80,116 79,113 78,109 77,112 76,110 75,110 74,108 73,108 72,110 71,110 70,112 69,114 68,116 67,121 66,112 65,118 64,111 63,112 62,114 61,112 60,113 59,110 " />
	<!-- ApparentWindSpeed -->
	<polyline style="fill:none;stroke:blue" points="59,102 60,107 61,107 62,108 63,106 64,106 65,112 66,105 67,114 68,108 69,105 70,103 71,103 72,98 73,97 74,90 75,93 76,100 77,104 78,98 79,99 80,106 81,103 82,104 83,107 84,104 85,103 86,105 87,102 88,103 89,103 90,103 91,102 92,98 93,96 94,97 95,92 96,94 97,89 98,91 99,87 100,83 101,87 102,89 103,90 104,89 105,90 106,87 107,94 108,95 109,94 110,91 111,90 112,86 113,88 114,91 115,87 116,92 117,96 118,96 119,91 120,100 121,93 122,89 123,94 124,88 125,91 126,88 127,88 128,91 129,96 130,89 131,92 132,84 133,87 134,85 135,80 136,81 137,87 138,84 139,80 140,78 141,84 142,83 143,82 144,86 145,94 146,89 147,90 148,81 149,74 150,74 151,73 152,73 153,71 154,78 155,78 156,80 157,82 158,90 159,90 160,88 161,87 162,83 163,83 164,78 165,78 166,80 167,79 168,75 169,71 170,70 171,66 172,64 173,69 174,67 175,67 176,70 177,81 178,86 179,89 180,90 181,88 182,87 183,87 184,82 185,78 186,85 187,78 188,73 189,76 190,77 191,77 192,89 193,89 194,82 195,88 196,86 197,83 198,82 199,81 200,74 201,78 202,72 203,68 204,72 205,66 206,71 207,75 208,74 209,74 210,70 211,78 212,79 213,76 214,78 215,79 216,81 217,77 218,77 219,76 220,77 221,72 222,74 223,74 224,75 225,75 226,74 227,81 228,74 229,69 230,57 231,70 232,70 233,71 234,66 235,74 236,75 237,74 238,69 239,72 240,71 241,72 242,75 243,66 244,69 245,67 246,68 247,69 248,59 249,63 250,67 251,61 252,64 253,61 254,67 255,68 256,66 257,64 258,70 259,76 260,75 261,75 262,79 263,82 264,83 265,78 266,82 267,83 268,88 269,84 270,86 271,85 272,90 273,93 274,93 275,92 276,99 277,99 278,97 279,95 280,92 281,95 282,98 283,101 284,101 285,102 286,102 287,96 288,99 289,99 290,101 291,101 292,98 293,95 294,91 295,80 296,84 297,87 298,80 299,79 300,86 301,80 302,70 303,70 304,80 305,87 306,90 307,93 308,72 309,88 310,98 311,96 312,96 313,102 314,103 315,107 316,100 317,96 318,87 319,84 320,70 321,96 322,100 323,100 324,101 325,101 326,95 327,93 328,99 329,101 330,101 331,104 332,91 333,99 334,100 335,95 336,96 337,95 338,100 339,99 340,94 341,96 342,101 343,100 344,103 345,103 346,105 347,105 348,101 349,103 350,106 351,102 352,108 353,102 354,103 355,110 356,107 357,101 358,105 359,106 360,106 361,105 362,104 363,103 364,105 365,103 366,107 367,108 368,105 369,115 370,114 371,118 372,120 373,114 374,115 375,113 376,116 377,114 378,110 379,109 380,113 381,120 382,112 383,115 384,115 385,115 386,119 387,118 388,120 389,119 390,118 391,115 392,119 393,116 394,112 395,117 396,120 397,117 398,119 399,121 400,120 401,116 402,114 403,116 404,119 405,117 406,120 407,120 408,121 409,121 410,120 411,121 412,120 413,117 414,119 415,120 416,117 417,115 418,112 419,115 420,119 421,117 422,118 423,113 424,111 425,112 426,116 427,117 428,114 429,116 430,113 431,107 432,108 433,109 434,105 435,107 436,101 437,102 438,99 439,99 440,101 441,102 442,104 443,103 444,104 445,103 446,101 447,104 448,109 449,109 450,110 451,112 452,110 453,106 454,107 455,105 456,105 457,102 458,102 459,104 460,102 461,104 462,101 463,104 464,108 465,108 466,111 467,109 468,108 469,104 470,105 471,105 472,107 473,106 474,115 475,117 476,110 477,112 478,113 479,117 480,105 481,114 482,109 483,112 484,115 485,120 " />
</svg>
