<?xml version="1.0" encoding="utf-8" standalone="no"?>
<svg xmlns="http://www.w3.org/2000/svg" xmlns:xlink="http://www.w3.org/1999/xlink" width="500" height="135">
	<!-- Created by: InfluxDBWindSVG Version 1.20231011.2 Built on: Oct 11 2023 at 16:28:36 -->
	<style>
		text { font-family: sans-serif; font-size: 12px; fill: black; }
		line { stroke: black; }
		polygon { fill-opacity: 0.5; }
	</style>
	<rect style="fill-opacity:0;stroke:grey;stroke-width:2" width="500" height="135" />
	<text x="46" y="12">Sola Apparent Wind Speed</text>
	<text style="text-anchor:end" x="486" y="12">2023-10-11 16:29:22</text>
	<text style="fill:blue;text-anchor:middle" x="12" y="67" transform="rotate(270 12,67)">Wind Speed (4.7 kn)</text>
	<line x1="44" y1="14" x2="488" y2="14"/>
	<text style="fill:blue;text-anchor:end" x="44" y="19">24.5</text>
	<line x1="44" y1="121" x2="488" y2="121"/>
	<text style="fill:blue;text-anchor:end" x="44" y="126">0.0</text>
	<line x1="46" y1="14" x2="46" y2="121"/>
	<line x1="486" y1="14" x2="486" y2="121"/>
	<line style="stroke-dasharray:1" x1="44" y1="40" x2="488" y2="40" />
	<text style="fill:blue;text-anchor:end" x="44" y="44">18.4</text>
	<line style="stroke-dasharray:1" x1="44" y1="66" x2="488" y2="66" />
	<text style="fill:blue;text-anchor:end" x="44" y="70">12.3</text>
	<line style="stroke-dasharray:1" x1="44" y1="92" x2="488" y2="92" />
	<text style="fill:blue;text-anchor:end" x="44" y="96">6.1</text>
	<line style="stroke-dasharray:1" x1="51" y1="14" x2="51" y2="123" />
	<text style="text-anchor:middle" x="51" y="133">16</text>
	<line style="stroke-dasharray:1" x1="63" y1="14" x2="63" y2="123" />
	<line style="stroke-dasharray:1" x1="75" y1="14" x2="75" y2="123" />
	<text style="text-anchor:middle" x="75" y="133">14</text>
	<line style="stroke-dasharray:1" x1="87" y1="14" x2="87" y2="123" />
	<line style="stroke-dasharray:1" x1="99" y1="14" x2="99" y2="123" />
	<text style="text-anchor:middle" x="99" y="133">12</text>
	<line style="stroke-dasharray:1" x1="111" y1="14" x2="111" y2="123" />
	<line style="stroke-dasharray:1" x1="123" y1="14" x2="123" y2="123" />
	<text style="text-anchor:middle" x="123" y="133">10</text>
	<line style="stroke-dasharray:1" x1="135" y1="14" x2="135" y2="123" />
	<line style="stroke-dasharray:1" x1="147" y1="14" x2="147" y2="123" />
	<text style="text-anchor:middle" x="147" y="133">8</text>
	<line style="stroke-dasharray:1" x1="159" y1="14" x2="159" y2="123" />
	<line style="stroke-dasharray:1" x1="171" y1="14" x2="171" y2="123" />
	<text style="text-anchor:middle" x="171" y="133">6</text>
	<line style="stroke-dasharray:1" x1="183" y1="14" x2="183" y2="123" />
	<line style="stroke-dasharray:1" x1="195" y1="14" x2="195" y2="123" />
	<text style="text-anchor:middle" x="195" y="133">4</text>
	<line style="stroke-dasharray:1" x1="207" y1="14" x2="207" y2="123" />
	<line style="stroke-dasharray:1" x1="219" y1="14" x2="219" y2="123" />
	<text style="text-anchor:middle" x="219" y="133">2</text>
	<line style="stroke-dasharray:1" x1="231" y1="14" x2="231" y2="123" />
	<line style="stroke:red" x1="243" y1="14" x2="243" y2="123" />
	<text style="text-anchor:middle" x="243" y="133">0</text>
	<line style="stroke-dasharray:1" x1="255" y1="14" x2="255" y2="123" />
	<line style="stroke-dasharray:1" x1="267" y1="14" x2="267" y2="123" />
	<text style="text-anchor:middle" x="267" y="133">22</text>
	<line style="stroke-dasharray:1" x1="279" y1="14" x2="279" y2="123" />
	<line style="stroke-dasharray:1" x1="291" y1="14" x2="291" y2="123" />
	<text style="text-anchor:middle" x="291" y="133">20</text>
	<line style="stroke-dasharray:1" x1="303" y1="14" x2="303" y2="123" />
	<line style="stroke-dasharray:1" x1="315" y1="14" x2="315" y2="123" />
	<text style="text-anchor:middle" x="315" y="133">18</text>
	<line style="stroke-dasharray:1" x1="327" y1="14" x2="327" y2="123" />
	<line style="stroke-dasharray:1" x1="339" y1="14" x2="339" y2="123" />
	<text style="text-anchor:middle" x="339" y="133">16</text>
	<line style="stroke-dasharray:1" x1="351" y1="14" x2="351" y2="123" />
	<line style="stroke-dasharray:1" x1="363" y1="14" x2="363" y2="123" />
	<text style="text-anchor:middle" x="363" y="133">14</text>
	<line style="stroke-dasharray:1" x1="375" y1="14" x2="375" y2="123" />
	<line style="stroke-dasharray:1" x1="387" y1="14" x2="387" y2="123" />
	<text style="text-anchor:middle" x="387" y="133">12</text>
	<line style="stroke-dasharray:1" x1="399" y1="14" x2="399" y2="123" />
	<line style="stroke-dasharray:1" x1="411" y1="14" x2="411" y2="123" />
	<text style="text-anchor:middle" x="411" y="133">10</text>
	<line style="stroke-dasharray:1" x1="423" y1="14" x2="423" y2="123" />
	<line style="stroke-dasharray:1" x1="435" y1="14" x2="435" y2="123" />
	<text style="text-anchor:middle" x="435" y="133">8</text>
	<line style="stroke-dasharray:1" x1="447" y1="14" x2="447" y2="123" />
	<line style="stroke-dasharray:1" x1="459" y1="14" x2="459" y2="123" />
	<text style="text-anchor:middle" x="459" y="133">6</text>
	<line style="stroke-dasharray:1" x1="471" y1="14" x2="471" y2="123" />
	<line style="stroke-dasharray:1" x1="483" y1="14" x2="483" y2="123" />
	<text style="text-anchor:middle" x="483" y="133">4</text>
	<polygon style="fill:red;stroke:red;fill-opacity:1;" points="43,121 49,118 49,124" />
	<!-- ApparentWindSpeed MinMax -->
	<polygon style="fill:blue;stroke:blue" points="47,90 48,100 49,94 50,92 51,96 52,99 53,99 54,100 55,88 56,96 57,91 58,103 59,94 60,91 61,86 62,92 63,103 64,96 65,93 66,98 67,100 68,100 69,98 70,101 71,93 72,98 73,99 74,105 75,104 76,105 77,90 78,88 79,80 80,70 81,86 82,88 83,98 84,103 85,90 86,80 87,78 88,74 89,81 90,74 91,87 92,76 93,77 94,81 95,76 96,96 97,73 98,74 99,89 100,85 101,96 102,85 103,91 104,95 105,92 106,95 107,92 108,95 109,95 110,86 111,79 112,78 113,95 114,90 115,90 116,89 117,85 118,86 119,83 120,85 121,81 122,79 123,75 124,75 125,86 126,88 127,81 128,91 129,82 130,88 131,84 132,81 133,72 134,80 135,81 136,85 137,77 138,80 139,81 140,81 141,84 142,85 143,86 144,81 145,83 146,85 147,90 148,81 149,84 150,79 151,81 152,80 153,78 154,81 155,86 156,81 157,81 158,90 159,86 160,91 161,93 162,87 163,83 164,84 165,83 166,79 167,88 168,90 169,96 170,91 171,90 172,82 173,95 174,89 175,86 176,86 177,86 178,87 179,82 180,82 181,79 182,87 183,79 184,87 185,78 186,82 187,84 188,87 189,77 190,87 191,82 192,80 193,64 194,74 195,74 196,65 197,78 198,67 199,66 200,72 201,68 202,74 203,79 204,82 205,72 206,78 207,70 208,74 209,76 210,69 211,65 212,86 213,76 214,83 215,78 216,78 217,72 218,74 219,76 220,79 221,80 222,85 223,82 224,80 225,83 226,87 227,93 228,81 229,79 230,82 231,83 232,71 233,72 234,68 235,78 236,68 237,74 238,85 239,78 240,74 241,77 242,70 243,77 244,67 245,68 246,72 247,70 248,65 249,68 250,59 251,59 252,54 253,55 254,45 255,58 256,50 257,61 258,58 259,44 260,60 261,72 262,65 263,65 264,48 265,60 266,56 267,55 268,61 269,45 270,62 271,64 272,62 273,68 274,59 275,53 276,55 277,45 278,54 279,56 280,56 281,53 282,41 283,14 284,20 285,42 286,48 287,47 288,72 289,63 290,73 291,68 292,58 293,75 294,72 295,65 296,65 297,86 298,79 299,84 300,82 301,81 302,72 303,71 304,82 305,82 306,78 307,79 308,76 309,80 310,79 311,65 312,67 313,52 314,61 315,72 316,65 317,65 318,59 319,75 320,84 321,84 322,78 323,89 324,79 325,88 326,88 327,87 328,83 329,83 330,82 331,80 332,77 333,64 334,91 335,85 336,92 337,86 338,95 339,90 340,84 341,83 342,80 343,73 344,67 345,68 346,72 347,70 348,73 349,65 350,72 351,62 352,77 353,73 354,71 355,79 356,67 357,61 358,79 359,71 360,74 361,70 362,77 363,92 364,83 365,93 366,95 367,94 368,98 369,85 370,95 371,79 372,86 373,91 374,80 375,68 376,83 377,86 378,83 379,90 380,93 381,79 382,89 383,85 384,94 385,93 386,87 387,80 388,79 389,80 390,86 391,87 392,75 393,76 394,80 395,84 396,83 397,77 398,90 399,87 400,83 401,77 402,86 403,81 404,84 405,86 406,81 407,94 408,95 409,98 410,87 411,94 412,92 413,96 414,89 415,89 416,92 417,95 418,90 419,95 420,87 421,94 422,90 423,93 424,97 425,96 426,98 427,103 428,99 429,98 430,96 431,82 432,92 433,92 434,94 435,91 436,93 437,105 438,100 439,100 440,87 441,95 442,98 443,95 444,95 445,94 446,91 447,90 448,90 449,91 450,77 451,86 452,80 453,93 454,95 455,90 456,93 457,77 458,80 459,84 460,90 461,89 462,82 463,67 464,68 465,73 466,81 467,76 468,83 469,77 470,90 471,93 472,94 473,91 474,92 475,96 476,95 477,90 478,91 479,87 480,89 481,81 482,85 483,85 484,90 485,90 485,112 484,113 483,113 482,113 481,111 480,114 479,114 478,111 477,114 476,114 475,113 474,114 473,114 472,112 471,114 470,111 469,110 468,111 467,108 466,109 465,106 464,108 463,106 462,108 461,109 460,113 459,115 458,112 457,114 456,110 455,116 454,114 453,116 452,112 451,114 450,116 449,114 448,114 447,111 446,112 445,114 444,110 443,112 442,113 441,113 440,114 439,117 438,115 437,120 436,120 435,114 434,117 433,116 432,115 431,115 430,115 429,113 428,115 427,115 426,117 425,114 424,117 423,114 422,117 421,117 420,115 419,114 418,117 417,117 416,120 415,117 414,116 413,115 412,117 411,116 410,116 409,117 408,117 407,113 406,113 405,116 404,114 403,113 402,117 401,118 400,117 399,115 398,115 397,115 396,117 395,114 394,118 393,117 392,111 391,116 390,114 389,116 388,116 387,113 386,117 385,117 384,117 383,112 382,117 381,118 380,117 379,115 378,117 377,114 376,117 375,115 374,112 373,114 372,116 371,115 370,115 369,115 368,115 367,114 366,112 365,114 364,110 363,110 362,111 361,114 360,109 359,112 358,108 357,115 356,113 355,110 354,110 353,111 352,115 351,112 350,108 349,104 348,110 347,117 346,111 345,110 344,108 343,110 342,110 341,107 340,110 339,110 338,117 337,114 336,113 335,113 334,112 333,111 332,106 331,110 330,110 329,110 328,108 327,112 326,111 325,113 324,116 323,113 322,110 321,114 320,116 319,111 318,109 317,105 316,109 315,110 314,106 313,107 312,99 311,105 310,105 309,108 308,117 307,114 306,112 305,115 304,109 303,104 302,105 301,108 300,114 299,111 298,115 297,110 296,112 295,106 294,105 293,106 292,103 291,108 290,102 289,111 288,105 287,106 286,110 285,110 284,90 283,106 282,98 281,100 280,105 279,103 278,110 277,106 276,107 275,100 274,103 273,105 272,104 271,109 270,102 269,96 268,103 267,100 266,98 265,100 264,99 263,103 262,106 261,108 260,104 259,104 258,103 257,103 256,104 255,101 254,105 253,99 252,100 251,101 250,103 249,106 248,108 247,113 246,117 245,116 244,113 243,115 242,114 241,107 240,110 239,111 238,113 237,116 236,109 235,107 234,110 233,110 232,110 231,117 230,117 229,117 228,115 227,117 226,117 225,114 224,115 223,110 222,111 221,114 220,114 219,116 218,111 217,117 216,112 215,114 214,116 213,113 212,115 211,110 210,109 209,106 208,110 207,108 206,106 205,105 204,108 203,113 202,111 201,113 200,108 199,114 198,112 197,115 196,114 195,110 194,114 193,110 192,112 191,116 190,117 189,116 188,113 187,114 186,115 185,114 184,117 183,115 182,114 181,117 180,116 179,115 178,117 177,116 176,116 175,114 174,116 173,114 172,116 171,118 170,117 169,117 168,120 167,118 166,117 165,116 164,117 163,118 162,114 161,117 160,117 159,117 158,114 157,117 156,116 155,117 154,117 153,116 152,117 151,117 150,118 149,114 148,117 147,117 146,116 145,114 144,117 143,120 142,114 141,116 140,117 139,116 138,116 137,115 136,117 135,114 134,116 133,117 132,116 131,114 130,115 129,115 128,117 127,117 126,116 125,114 124,111 123,115 122,117 121,114 120,112 119,115 118,114 117,111 116,117 115,117 114,117 113,117 112,117 111,114 110,117 109,117 108,117 107,113 106,117 105,116 104,116 103,112 102,114 101,113 100,114 99,114 98,110 97,114 96,113 95,114 94,115 93,114 92,114 91,113 90,113 89,109 88,114 87,110 86,114 85,114 84,120 83,115 82,117 81,114 80,112 79,116 78,116 77,117 76,120 75,114 74,113 73,114 72,112 71,112 70,111 69,113 68,110 67,112 66,114 65,112 64,110 63,115 62,117 61,116 60,113 59,114 58,120 57,112 56,110 55,113 54,117 53,112 52,111 51,110 50,110 49,111 48,113 47,113 " />
	<!-- ApparentWindSpeed -->
	<polyline style="fill:none;stroke:blue" points="47,99 48,107 49,103 50,103 51,104 52,105 53,107 54,108 55,104 56,104 57,103 58,112 59,103 60,102 61,100 62,106 63,109 64,104 65,102 66,107 67,107 68,106 69,106 70,107 71,103 72,106 73,107 74,108 75,110 76,113 77,105 78,101 79,96 80,89 81,102 82,103 83,109 84,112 85,105 86,98 87,92 88,96 89,94 90,94 91,99 92,97 93,95 94,99 95,99 96,102 97,97 98,98 99,104 100,105 101,104 102,104 103,103 104,108 105,107 106,111 107,103 108,110 109,109 110,106 111,99 112,100 113,108 114,105 115,106 116,105 117,99 118,101 119,99 120,102 121,100 122,103 123,100 124,97 125,104 126,104 127,101 128,108 129,103 130,103 131,100 132,104 133,102 134,101 135,103 136,103 137,97 138,103 139,103 140,105 141,100 142,102 143,105 144,105 145,100 146,105 147,109 148,103 149,101 150,107 151,101 152,104 153,102 154,106 155,107 156,100 157,107 158,105 159,105 160,106 161,106 162,105 163,108 164,105 165,103 166,101 167,104 168,106 169,109 170,107 171,107 172,106 173,107 174,107 175,101 176,104 177,105 178,104 179,101 180,101 181,102 182,103 183,101 184,105 185,102 186,103 187,101 188,103 189,101 190,101 191,101 192,97 193,93 194,97 195,95 196,101 197,99 198,95 199,91 200,91 201,97 202,93 203,96 204,97 205,92 206,94 207,88 208,91 209,91 210,94 211,93 212,102 213,99 214,100 215,101 216,100 217,96 218,97 219,97 220,101 221,99 222,99 223,96 224,99 225,102 226,105 227,105 228,102 229,103 230,100 231,101 232,95 233,93 234,94 235,94 236,94 237,97 238,98 239,99 240,96 241,94 242,96 243,100 244,93 245,97 246,96 247,94 248,92 249,92 250,83 251,81 252,80 253,82 254,81 255,81 256,84 257,84 258,81 259,81 260,89 261,91 262,87 263,81 264,76 265,80 266,79 267,82 268,82 269,77 270,83 271,86 272,88 273,92 274,86 275,83 276,83 277,75 278,80 279,85 280,87 281,80 282,73 283,61 284,64 285,76 286,77 287,89 288,88 289,89 290,89 291,85 292,83 293,90 294,93 295,91 296,91 297,100 298,102 299,101 300,97 301,95 302,91 303,89 304,97 305,99 306,99 307,101 308,101 309,99 310,94 311,90 312,85 313,85 314,94 315,93 316,89 317,88 318,89 319,96 320,98 321,100 322,98 323,105 324,104 325,101 326,101 327,99 328,95 329,98 330,98 331,94 332,94 333,91 334,104 335,100 336,103 337,102 338,107 339,101 340,99 341,96 342,90 343,95 344,93 345,92 346,93 347,92 348,93 349,87 350,92 351,93 352,94 353,95 354,95 355,97 356,94 357,94 358,96 359,103 360,94 361,97 362,96 363,102 364,102 365,107 366,106 367,104 368,106 369,105 370,106 371,102 372,102 373,105 374,99 375,101 376,103 377,101 378,103 379,103 380,108 381,105 382,105 383,101 384,108 385,108 386,105 387,101 388,100 389,104 390,102 391,101 392,98 393,98 394,103 395,103 396,106 397,103 398,104 399,106 400,103 401,109 402,104 403,101 404,103 405,105 406,100 407,105 408,106 409,111 410,106 411,105 412,108 413,108 414,106 415,107 416,109 417,108 418,107 419,104 420,102 421,105 422,109 423,106 424,107 425,109 426,108 427,110 428,110 429,105 430,107 431,104 432,104 433,105 434,107 435,106 436,108 437,113 438,108 439,109 440,105 441,105 442,105 443,103 444,104 445,105 446,103 447,102 448,103 449,105 450,102 451,103 452,98 453,105 454,104 455,103 456,102 457,102 458,102 459,103 460,102 461,100 462,98 463,92 464,91 465,92 466,95 467,96 468,99 469,97 470,102 471,106 472,105 473,104 474,106 475,106 476,105 477,102 478,103 479,102 480,102 481,101 482,102 483,102 484,102 485,103 " />
</svg>
