<?xml version="1.0" encoding="utf-8" standalone="no"?>
<svg xmlns="http://www.w3.org/2000/svg" xmlns:xlink="http://www.w3.org/1999/xlink" width="500" height="135">
	<!-- Created by: InfluxDBWindSVG Version 2.20231017.3 Built on: Oct 17 2023 at 06:07:10 -->
	<style>
		text { font-family: sans-serif; font-size: 12px; fill: black; }
		line { stroke: black; }
		polygon { fill-opacity: 0.5; }
	</style>
	<rect style="fill-opacity:0;stroke:grey;stroke-width:2" width="500" height="135" />
	<text x="58" y="12">Sola Air Pressure</text>
	<text style="text-anchor:end" x="486" y="12">2023-10-17 06:09:58</text>
	<text style="fill:blue;text-anchor:middle" x="12" y="67" transform="rotate(270 12,67)">Pressure (1022.0 hPa)</text>
	<line x1="56" y1="14" x2="488" y2="14"/>
	<text style="fill:blue;text-anchor:end" x="56" y="19">1022.0</text>
	<line x1="56" y1="121" x2="488" y2="121"/>
	<text style="fill:blue;text-anchor:end" x="56" y="126">1008.0</text>
	<line x1="58" y1="14" x2="58" y2="121"/>
	<line x1="486" y1="14" x2="486" y2="121"/>
	<line style="stroke-dasharray:1" x1="56" y1="40" x2="488" y2="40" />
	<text style="fill:blue;text-anchor:end" x="56" y="44">1018.5</text>
	<line style="stroke-dasharray:1" x1="56" y1="66" x2="488" y2="66" />
	<text style="fill:blue;text-anchor:end" x="56" y="70">1015.0</text>
	<line style="stroke-dasharray:1" x1="56" y1="92" x2="488" y2="92" />
	<text style="fill:blue;text-anchor:end" x="56" y="96">1011.5</text>
	<line style="stroke-dasharray:1" x1="59" y1="14" x2="59" y2="123" />
	<text style="text-anchor:middle" x="59" y="133">6</text>
	<line style="stroke-dasharray:1" x1="71" y1="14" x2="71" y2="123" />
	<line style="stroke-dasharray:1" x1="83" y1="14" x2="83" y2="123" />
	<text style="text-anchor:middle" x="83" y="133">4</text>
	<line style="stroke-dasharray:1" x1="95" y1="14" x2="95" y2="123" />
	<line style="stroke-dasharray:1" x1="107" y1="14" x2="107" y2="123" />
	<text style="text-anchor:middle" x="107" y="133">2</text>
	<line style="stroke-dasharray:1" x1="119" y1="14" x2="119" y2="123" />
	<line style="stroke:red" x1="131" y1="14" x2="131" y2="123" />
	<text style="text-anchor:middle" x="131" y="133">0</text>
	<line style="stroke-dasharray:1" x1="143" y1="14" x2="143" y2="123" />
	<line style="stroke-dasharray:1" x1="155" y1="14" x2="155" y2="123" />
	<text style="text-anchor:middle" x="155" y="133">22</text>
	<line style="stroke-dasharray:1" x1="167" y1="14" x2="167" y2="123" />
	<line style="stroke-dasharray:1" x1="179" y1="14" x2="179" y2="123" />
	<text style="text-anchor:middle" x="179" y="133">20</text>
	<line style="stroke-dasharray:1" x1="191" y1="14" x2="191" y2="123" />
	<line style="stroke-dasharray:1" x1="203" y1="14" x2="203" y2="123" />
	<text style="text-anchor:middle" x="203" y="133">18</text>
	<line style="stroke-dasharray:1" x1="215" y1="14" x2="215" y2="123" />
	<line style="stroke-dasharray:1" x1="227" y1="14" x2="227" y2="123" />
	<text style="text-anchor:middle" x="227" y="133">16</text>
	<line style="stroke-dasharray:1" x1="239" y1="14" x2="239" y2="123" />
	<line style="stroke-dasharray:1" x1="251" y1="14" x2="251" y2="123" />
	<text style="text-anchor:middle" x="251" y="133">14</text>
	<line style="stroke-dasharray:1" x1="263" y1="14" x2="263" y2="123" />
	<line style="stroke-dasharray:1" x1="275" y1="14" x2="275" y2="123" />
	<text style="text-anchor:middle" x="275" y="133">12</text>
	<line style="stroke-dasharray:1" x1="287" y1="14" x2="287" y2="123" />
	<line style="stroke-dasharray:1" x1="299" y1="14" x2="299" y2="123" />
	<text style="text-anchor:middle" x="299" y="133">10</text>
	<line style="stroke-dasharray:1" x1="311" y1="14" x2="311" y2="123" />
	<line style="stroke-dasharray:1" x1="323" y1="14" x2="323" y2="123" />
	<text style="text-anchor:middle" x="323" y="133">8</text>
	<line style="stroke-dasharray:1" x1="335" y1="14" x2="335" y2="123" />
	<line style="stroke-dasharray:1" x1="347" y1="14" x2="347" y2="123" />
	<text style="text-anchor:middle" x="347" y="133">6</text>
	<line style="stroke-dasharray:1" x1="359" y1="14" x2="359" y2="123" />
	<line style="stroke-dasharray:1" x1="371" y1="14" x2="371" y2="123" />
	<text style="text-anchor:middle" x="371" y="133">4</text>
	<line style="stroke-dasharray:1" x1="383" y1="14" x2="383" y2="123" />
	<line style="stroke-dasharray:1" x1="395" y1="14" x2="395" y2="123" />
	<text style="text-anchor:middle" x="395" y="133">2</text>
	<line style="stroke-dasharray:1" x1="407" y1="14" x2="407" y2="123" />
	<line style="stroke:red" x1="419" y1="14" x2="419" y2="123" />
	<text style="text-anchor:middle" x="419" y="133">0</text>
	<line style="stroke-dasharray:1" x1="431" y1="14" x2="431" y2="123" />
	<line style="stroke-dasharray:1" x1="443" y1="14" x2="443" y2="123" />
	<text style="text-anchor:middle" x="443" y="133">22</text>
	<line style="stroke-dasharray:1" x1="455" y1="14" x2="455" y2="123" />
	<line style="stroke-dasharray:1" x1="467" y1="14" x2="467" y2="123" />
	<text style="text-anchor:middle" x="467" y="133">20</text>
	<line style="stroke-dasharray:1" x1="479" y1="14" x2="479" y2="123" />
	<polygon style="fill:red;stroke:red;fill-opacity:1;" points="55,121 61,118 61,124" />
	<!-- OutsidePressure MinMax -->
	<polygon style="fill:blue;stroke:blue" points="59,14 60,14 61,14 62,21 63,21 64,21 65,14 66,21 67,21 68,21 69,21 70,14 71,14 72,14 73,14 74,14 75,14 76,14 77,14 78,14 79,14 80,14 81,21 82,14 83,21 84,21 85,21 86,21 87,21 88,21 89,21 90,21 91,21 92,21 93,21 94,21 95,21 96,21 97,21 98,21 99,21 100,29 101,29 102,29 103,29 104,29 105,29 106,29 107,29 108,29 109,29 110,29 111,29 112,29 113,29 114,29 115,29 116,29 117,29 118,29 119,29 120,29 121,29 122,36 123,36 124,29 125,29 126,29 127,36 128,36 129,36 130,36 131,36 132,36 133,36 134,36 135,36 136,36 137,36 138,36 139,36 140,36 141,36 142,36 143,36 144,36 145,36 146,44 147,44 148,44 149,44 150,44 151,44 152,44 153,44 154,44 155,44 156,44 157,44 158,44 159,44 160,44 161,44 162,52 163,52 164,52 165,52 166,52 167,52 168,52 169,52 170,52 171,52 172,52 173,52 174,52 175,52 176,52 177,52 178,52 179,59 180,59 181,59 182,59 183,59 184,59 185,59 186,59 187,59 188,67 189,67 190,67 191,67 192,67 193,67 194,67 195,67 196,75 197,75 198,75 199,75 200,75 201,75 202,82 203,82 204,82 205,82 206,82 207,82 208,82 209,82 210,82 211,82 212,82 213,82 214,82 215,82 216,90 217,90 218,90 219,90 220,90 221,90 222,90 223,90 224,90 225,90 226,90 227,90 228,90 229,90 230,90 231,90 232,90 233,90 234,90 235,90 236,90 237,90 238,90 239,90 240,90 241,90 242,90 243,90 244,90 245,90 246,90 247,90 248,90 249,90 250,90 251,90 252,90 253,90 254,90 255,90 256,90 257,90 258,90 259,90 260,90 261,90 262,90 263,90 264,90 265,90 266,90 267,90 268,90 269,90 270,90 271,90 272,90 273,90 274,90 275,90 276,90 277,90 278,82 279,90 280,90 281,90 282,90 283,90 284,90 285,90 286,90 287,90 288,90 289,90 290,90 291,90 292,90 293,90 294,90 295,90 296,90 297,90 298,90 299,90 300,90 301,90 302,90 303,90 304,90 305,90 306,90 307,90 308,90 309,98 310,98 311,98 312,98 313,90 314,98 315,98 316,98 317,98 318,98 319,98 320,98 321,105 322,105 323,105 324,105 325,105 326,105 327,105 328,105 329,105 330,105 331,105 332,105 333,113 334,113 335,113 336,113 337,113 338,113 339,113 340,113 341,113 342,113 343,113 344,113 345,105 346,105 347,105 348,105 349,105 350,105 351,105 352,98 353,98 354,98 355,98 356,98 357,98 358,98 359,98 360,98 361,98 362,98 363,98 364,98 365,98 366,98 367,98 368,98 369,98 370,98 371,98 372,98 373,98 374,90 375,98 376,98 377,98 378,90 379,90 380,98 381,90 382,90 383,90 384,90 385,90 386,90 387,90 388,90 389,90 390,90 391,90 392,90 393,90 394,90 395,90 396,82 397,82 398,82 399,82 400,82 401,82 402,82 403,82 404,82 405,82 406,82 407,82 408,82 409,82 410,82 411,82 412,75 413,82 414,75 415,75 416,75 417,75 418,75 419,75 420,75 421,75 422,75 423,75 424,75 425,67 426,67 427,67 428,67 429,67 430,67 431,67 432,67 433,67 434,67 435,67 436,67 437,67 438,67 439,67 440,67 441,67 442,67 443,67 444,67 445,67 446,67 447,67 448,67 449,67 450,67 451,67 452,67 453,67 454,67 455,67 456,67 457,67 458,67 459,67 460,67 461,67 462,67 463,67 464,67 465,67 466,67 467,67 468,67 469,67 470,67 471,59 472,67 473,67 474,67 475,59 476,59 477,59 478,59 479,59 480,59 481,59 482,59 483,59 484,59 485,59 485,59 484,59 483,59 482,59 481,59 480,59 479,59 478,59 477,59 476,67 475,67 474,67 473,67 472,67 471,67 470,67 469,67 468,67 467,67 466,67 465,67 464,67 463,67 462,67 461,67 460,67 459,67 458,67 457,67 456,67 455,67 454,67 453,67 452,67 451,67 450,67 449,67 448,67 447,67 446,67 445,67 444,67 443,67 442,67 441,67 440,67 439,67 438,67 437,67 436,67 435,67 434,67 433,67 432,67 431,67 430,75 429,75 428,75 427,75 426,75 425,75 424,75 423,75 422,75 421,75 420,75 419,75 418,75 417,75 416,75 415,82 414,82 413,82 412,82 411,82 410,82 409,82 408,82 407,82 406,82 405,82 404,82 403,82 402,82 401,82 400,82 399,82 398,82 397,82 396,90 395,90 394,90 393,90 392,90 391,90 390,90 389,90 388,90 387,90 386,90 385,90 384,90 383,98 382,98 381,98 380,98 379,98 378,98 377,98 376,98 375,98 374,98 373,98 372,98 371,98 370,98 369,98 368,98 367,98 366,98 365,98 364,98 363,105 362,105 361,105 360,105 359,105 358,105 357,105 356,105 355,105 354,105 353,105 352,105 351,105 350,105 349,105 348,105 347,105 346,113 345,113 344,113 343,113 342,113 341,113 340,113 339,113 338,113 337,121 336,121 335,121 334,121 333,113 332,113 331,113 330,113 329,105 328,105 327,105 326,105 325,105 324,105 323,105 322,105 321,105 320,105 319,98 318,98 317,98 316,98 315,98 314,98 313,98 312,98 311,98 310,98 309,98 308,98 307,98 306,98 305,90 304,90 303,90 302,90 301,90 300,90 299,90 298,90 297,90 296,90 295,90 294,90 293,90 292,90 291,90 290,90 289,90 288,90 287,90 286,90 285,90 284,90 283,90 282,90 281,90 280,90 279,90 278,90 277,90 276,90 275,90 274,90 273,90 272,90 271,90 270,90 269,90 268,90 267,90 266,90 265,90 264,90 263,90 262,90 261,90 260,90 259,90 258,90 257,90 256,90 255,90 254,90 253,90 252,90 251,90 250,90 249,90 248,98 247,98 246,90 245,90 244,90 243,90 242,90 241,90 240,98 239,90 238,90 237,90 236,90 235,90 234,90 233,90 232,90 231,90 230,90 229,90 228,90 227,90 226,90 225,90 224,90 223,90 222,90 221,90 220,90 219,90 218,90 217,90 216,90 215,90 214,90 213,82 212,82 211,82 210,82 209,82 208,82 207,82 206,82 205,82 204,82 203,82 202,82 201,82 200,75 199,75 198,75 197,75 196,75 195,75 194,75 193,67 192,67 191,67 190,67 189,67 188,67 187,67 186,67 185,67 184,67 183,59 182,59 181,59 180,59 179,59 178,59 177,59 176,52 175,52 174,52 173,52 172,52 171,52 170,52 169,52 168,52 167,52 166,52 165,52 164,52 163,52 162,52 161,52 160,52 159,44 158,44 157,44 156,44 155,44 154,44 153,44 152,44 151,44 150,44 149,44 148,44 147,44 146,44 145,44 144,44 143,44 142,44 141,44 140,36 139,36 138,36 137,36 136,36 135,36 134,36 133,36 132,36 131,36 130,36 129,36 128,36 127,36 126,36 125,36 124,36 123,36 122,36 121,36 120,36 119,36 118,36 117,36 116,36 115,36 114,29 113,36 112,29 111,29 110,29 109,29 108,29 107,29 106,29 105,29 104,29 103,29 102,29 101,29 100,29 99,29 98,21 97,29 96,29 95,21 94,21 93,21 92,21 91,21 90,21 89,21 88,21 87,21 86,21 85,21 84,21 83,21 82,21 81,21 80,21 79,21 78,21 77,21 76,21 75,21 74,21 73,14 72,14 71,21 70,21 69,21 68,21 67,21 66,21 65,21 64,21 63,21 62,21 61,21 60,21 59,14 " />
	<!-- OutsidePressure -->
	<polyline style="fill:none;stroke:blue" points="59,14 60,17 61,21 62,21 63,21 64,21 65,21 66,21 67,21 68,21 69,21 70,21 71,14 72,14 73,14 74,14 75,20 76,20 77,15 78,14 79,21 80,21 81,21 82,21 83,21 84,21 85,21 86,21 87,21 88,21 89,21 90,21 91,21 92,21 93,21 94,21 95,21 96,22 97,21 98,21 99,26 100,29 101,29 102,29 103,29 104,29 105,29 106,29 107,29 108,29 109,29 110,29 111,29 112,29 113,29 114,29 115,31 116,34 117,32 118,35 119,31 120,30 121,36 122,36 123,36 124,36 125,36 126,36 127,36 128,36 129,36 130,36 131,36 132,36 133,36 134,36 135,36 136,36 137,36 138,36 139,36 140,36 141,37 142,38 143,38 144,40 145,44 146,44 147,44 148,44 149,44 150,44 151,44 152,44 153,44 154,44 155,44 156,44 157,44 158,44 159,44 160,44 161,49 162,52 163,52 164,52 165,52 166,52 167,52 168,52 169,52 170,52 171,52 172,52 173,52 174,52 175,52 176,52 177,52 178,59 179,59 180,59 181,59 182,59 183,59 184,60 185,64 186,67 187,67 188,67 189,67 190,67 191,67 192,67 193,67 194,67 195,73 196,75 197,75 198,75 199,75 200,75 201,78 202,82 203,82 204,82 205,82 206,82 207,82 208,82 209,82 210,82 211,82 212,82 213,82 214,83 215,89 216,90 217,90 218,90 219,90 220,90 221,90 222,90 223,90 224,90 225,90 226,90 227,90 228,90 229,90 230,90 231,90 232,90 233,90 234,90 235,90 236,90 237,90 238,90 239,90 240,90 241,90 242,90 243,90 244,90 245,90 246,90 247,90 248,91 249,90 250,90 251,90 252,90 253,90 254,90 255,90 256,90 257,90 258,90 259,90 260,90 261,90 262,90 263,90 264,90 265,90 266,90 267,90 268,90 269,90 270,90 271,90 272,90 273,90 274,90 275,90 276,90 277,90 278,90 279,90 280,90 281,90 282,90 283,90 284,90 285,90 286,90 287,90 288,90 289,90 290,90 291,90 292,90 293,90 294,90 295,90 296,90 297,90 298,90 299,90 300,90 301,90 302,90 303,90 304,90 305,90 306,90 307,90 308,97 309,98 310,98 311,98 312,98 313,98 314,98 315,98 316,98 317,98 318,98 319,98 320,102 321,105 322,105 323,105 324,105 325,105 326,105 327,105 328,105 329,105 330,106 331,105 332,113 333,113 334,114 335,118 336,113 337,115 338,113 339,113 340,113 341,113 342,113 343,113 344,113 345,110 346,105 347,105 348,105 349,105 350,105 351,105 352,105 353,105 354,103 355,99 356,101 357,105 358,105 359,104 360,100 361,104 362,105 363,99 364,98 365,98 366,98 367,98 368,98 369,98 370,98 371,98 372,98 373,98 374,96 375,98 376,98 377,98 378,94 379,93 380,98 381,95 382,96 383,91 384,90 385,90 386,90 387,90 388,90 389,90 390,90 391,90 392,90 393,90 394,90 395,90 396,87 397,82 398,82 399,82 400,82 401,82 402,82 403,82 404,82 405,82 406,82 407,82 408,82 409,82 410,82 411,82 412,82 413,82 414,82 415,77 416,75 417,75 418,75 419,75 420,75 421,75 422,75 423,75 424,75 425,75 426,74 427,69 428,67 429,68 430,72 431,67 432,67 433,67 434,67 435,67 436,67 437,67 438,67 439,67 440,67 441,67 442,67 443,67 444,67 445,67 446,67 447,67 448,67 449,67 450,67 451,67 452,67 453,67 454,67 455,67 456,67 457,67 458,67 459,67 460,67 461,67 462,67 463,67 464,67 465,67 466,67 467,67 468,67 469,67 470,67 471,67 472,67 473,67 474,67 475,62 476,60 477,59 478,59 479,59 480,59 481,59 482,59 483,59 484,59 485,59 " />
</svg>
