<?xml version="1.0" encoding="utf-8" standalone="no"?>
<svg xmlns="http://www.w3.org/2000/svg" xmlns:xlink="http://www.w3.org/1999/xlink" width="500" height="135">
	<!-- Created by: InfluxDBWindSVG Version 2.20240112.0 Built on: Jan 12 2024 at 08:33:44 -->
	<clipPath id="GraphRegion"><polygon points="58,14 486,14 486,121 58,121" /></clipPath>
	<style>
		text { font-family: sans-serif; font-size: 12px; fill: black; }
		line { stroke: black; }
		polygon { fill-opacity: 0.5; }
	</style>
	<rect style="fill-opacity:0;stroke:grey;stroke-width:2" width="500" height="135" />
	<text x="58" y="12">Sola Apparent Wind Speed</text>
	<text style="text-anchor:end" x="486" y="12">2024-01-12 10:54:52</text>
	<text style="fill:blue;text-anchor:middle" x="12" y="50%" transform="rotate(270 12,67)">Wind Speed (13.6 kn)</text>
	<text style="fill:blue;text-anchor:middle" x="24" y="50%" transform="rotate(270 24,67)">Wind Gust (20.5 kn)</text>
	<line x1="56" y1="14" x2="488" y2="14"/>
	<text style="fill:blue;text-anchor:end;dominant-baseline:middle" x="56" y="14">31.5</text>
	<line x1="56" y1="121" x2="488" y2="121"/>
	<text style="fill:blue;text-anchor:end;dominant-baseline:middle" x="56" y="121">0.0</text>
	<line x1="58" y1="14" x2="58" y2="121"/>
	<line x1="486" y1="14" x2="486" y2="121"/>
	<line style="stroke-dasharray:1" x1="56" y1="40" x2="488" y2="40" />
	<text style="fill:blue;text-anchor:end;dominant-baseline:middle" x="56" y="40">23.6</text>
	<line style="stroke-dasharray:1" x1="56" y1="66" x2="488" y2="66" />
	<text style="fill:blue;text-anchor:end;dominant-baseline:middle" x="56" y="66">15.8</text>
	<line style="stroke-dasharray:1" x1="56" y1="92" x2="488" y2="92" />
	<text style="fill:blue;text-anchor:end;dominant-baseline:middle" x="56" y="92">7.9</text>
	<line style="stroke-dasharray:1" x1="68" y1="14" x2="68" y2="123" />
	<text style="text-anchor:middle" x="68" y="133">10</text>
	<line style="stroke-dasharray:1" x1="80" y1="14" x2="80" y2="123" />
	<line style="stroke-dasharray:1" x1="92" y1="14" x2="92" y2="123" />
	<text style="text-anchor:middle" x="92" y="133">8</text>
	<line style="stroke-dasharray:1" x1="104" y1="14" x2="104" y2="123" />
	<line style="stroke-dasharray:1" x1="116" y1="14" x2="116" y2="123" />
	<text style="text-anchor:middle" x="116" y="133">6</text>
	<line style="stroke-dasharray:1" x1="128" y1="14" x2="128" y2="123" />
	<line style="stroke-dasharray:1" x1="140" y1="14" x2="140" y2="123" />
	<text style="text-anchor:middle" x="140" y="133">4</text>
	<line style="stroke-dasharray:1" x1="152" y1="14" x2="152" y2="123" />
	<line style="stroke-dasharray:1" x1="164" y1="14" x2="164" y2="123" />
	<text style="text-anchor:middle" x="164" y="133">2</text>
	<line style="stroke-dasharray:1" x1="176" y1="14" x2="176" y2="123" />
	<line style="stroke:red" x1="188" y1="14" x2="188" y2="123" />
	<text style="text-anchor:middle" x="188" y="133">0</text>
	<line style="stroke-dasharray:1" x1="200" y1="14" x2="200" y2="123" />
	<line style="stroke-dasharray:1" x1="212" y1="14" x2="212" y2="123" />
	<text style="text-anchor:middle" x="212" y="133">22</text>
	<line style="stroke-dasharray:1" x1="224" y1="14" x2="224" y2="123" />
	<line style="stroke-dasharray:1" x1="236" y1="14" x2="236" y2="123" />
	<text style="text-anchor:middle" x="236" y="133">20</text>
	<line style="stroke-dasharray:1" x1="248" y1="14" x2="248" y2="123" />
	<line style="stroke-dasharray:1" x1="260" y1="14" x2="260" y2="123" />
	<text style="text-anchor:middle" x="260" y="133">18</text>
	<line style="stroke-dasharray:1" x1="272" y1="14" x2="272" y2="123" />
	<line style="stroke-dasharray:1" x1="284" y1="14" x2="284" y2="123" />
	<text style="text-anchor:middle" x="284" y="133">16</text>
	<line style="stroke-dasharray:1" x1="296" y1="14" x2="296" y2="123" />
	<line style="stroke-dasharray:1" x1="308" y1="14" x2="308" y2="123" />
	<text style="text-anchor:middle" x="308" y="133">14</text>
	<line style="stroke-dasharray:1" x1="320" y1="14" x2="320" y2="123" />
	<line style="stroke-dasharray:1" x1="332" y1="14" x2="332" y2="123" />
	<text style="text-anchor:middle" x="332" y="133">12</text>
	<line style="stroke-dasharray:1" x1="344" y1="14" x2="344" y2="123" />
	<line style="stroke-dasharray:1" x1="356" y1="14" x2="356" y2="123" />
	<text style="text-anchor:middle" x="356" y="133">10</text>
	<line style="stroke-dasharray:1" x1="368" y1="14" x2="368" y2="123" />
	<line style="stroke-dasharray:1" x1="380" y1="14" x2="380" y2="123" />
	<text style="text-anchor:middle" x="380" y="133">8</text>
	<line style="stroke-dasharray:1" x1="392" y1="14" x2="392" y2="123" />
	<line style="stroke-dasharray:1" x1="404" y1="14" x2="404" y2="123" />
	<text style="text-anchor:middle" x="404" y="133">6</text>
	<line style="stroke-dasharray:1" x1="416" y1="14" x2="416" y2="123" />
	<line style="stroke-dasharray:1" x1="428" y1="14" x2="428" y2="123" />
	<text style="text-anchor:middle" x="428" y="133">4</text>
	<line style="stroke-dasharray:1" x1="440" y1="14" x2="440" y2="123" />
	<line style="stroke-dasharray:1" x1="452" y1="14" x2="452" y2="123" />
	<text style="text-anchor:middle" x="452" y="133">2</text>
	<line style="stroke-dasharray:1" x1="464" y1="14" x2="464" y2="123" />
	<line style="stroke:red" x1="476" y1="14" x2="476" y2="123" />
	<text style="text-anchor:middle" x="476" y="133">0</text>
	<polygon style="fill:red;stroke:red;fill-opacity:1;" points="55,121 61,118 61,124" />
	<!-- ApparentWindSpeed MinMax -->
	<polygon style="fill:blue;stroke:blue;clip-path:url(#GraphRegion)" points="59,38 60,39 61,43 62,40 63,40 64,23 65,27 66,29 67,29 68,37 69,32 70,41 71,29 72,33 73,39 74,26 75,34 76,33 77,29 78,33 79,35 80,38 81,29 82,39 83,39 84,40 85,40 86,41 87,40 88,44 89,39 90,37 91,47 92,34 93,44 94,40 95,46 96,47 97,41 98,42 99,37 100,45 101,53 102,51 103,56 104,46 105,42 106,50 107,51 108,43 109,48 110,41 111,41 112,41 113,42 114,38 115,43 116,33 117,40 118,34 119,46 120,48 121,41 122,38 123,41 124,41 125,38 126,37 127,45 128,44 129,48 130,39 131,39 132,47 133,46 134,39 135,46 136,42 137,39 138,39 139,37 140,40 141,45 142,39 143,37 144,37 145,38 146,42 147,38 148,41 149,37 150,42 151,33 152,46 153,29 154,37 155,39 156,40 157,44 158,34 159,42 160,32 161,41 162,31 163,37 164,38 165,34 166,38 167,33 168,43 169,38 170,35 171,41 172,33 173,28 174,35 175,38 176,41 177,37 178,43 179,43 180,33 181,43 182,43 183,42 184,38 185,26 186,40 187,40 188,29 189,37 190,24 191,29 192,32 193,38 194,45 195,51 196,47 197,49 198,50 199,37 200,41 201,50 202,34 203,42 204,37 205,45 206,54 207,45 208,43 209,48 210,41 211,37 212,32 213,43 214,42 215,45 216,48 217,47 218,53 219,50 220,52 221,53 222,55 223,54 224,54 225,56 226,54 227,54 228,58 229,53 230,59 231,61 232,55 233,55 234,61 235,49 236,51 237,52 238,53 239,48 240,45 241,54 242,50 243,59 244,53 245,56 246,52 247,54 248,54 249,51 250,44 251,51 252,57 253,46 254,49 255,46 256,46 257,45 258,47 259,44 260,45 261,43 262,45 263,41 264,50 265,50 266,53 267,47 268,37 269,38 270,41 271,43 272,51 273,46 274,42 275,33 276,38 277,37 278,40 279,24 280,33 281,32 282,26 283,17 284,24 285,14 286,29 287,28 288,32 289,32 290,34 291,35 292,37 293,46 294,46 295,55 296,56 297,53 298,50 299,78 300,104 301,103 302,104 303,105 304,106 305,105 306,107 307,98 308,97 309,91 310,95 311,92 312,93 313,98 314,100 315,103 316,99 317,92 318,94 319,90 320,84 321,89 322,88 323,84 324,80 325,83 326,90 327,87 328,79 329,82 330,72 331,78 332,75 333,70 334,78 335,83 336,81 337,78 338,85 339,83 340,87 341,97 342,79 343,76 344,87 345,86 346,83 347,84 348,84 349,89 350,85 351,74 352,82 353,87 354,94 355,93 356,97 357,103 358,94 359,89 360,88 361,84 362,84 363,102 364,94 365,98 366,98 367,99 368,102 369,98 370,94 371,96 372,103 373,102 374,102 375,98 376,99 377,97 378,98 379,108 380,103 381,98 382,105 383,109 384,113 385,111 386,108 387,109 388,100 389,103 390,104 391,104 392,106 393,107 394,99 395,110 396,104 397,102 398,98 399,99 400,96 401,98 402,104 403,108 404,108 405,105 406,101 407,94 408,113 409,107 410,110 411,107 412,107 413,108 414,106 415,104 416,110 417,111 418,113 419,107 420,109 421,109 422,104 423,102 424,104 425,104 426,105 427,105 428,107 429,108 430,110 431,107 432,107 433,110 434,102 435,97 436,99 437,98 438,95 439,108 440,101 441,97 442,90 443,84 444,80 445,95 446,87 447,84 448,86 449,89 450,81 451,73 452,77 453,76 454,87 455,71 456,91 457,89 458,83 459,75 460,70 461,70 462,68 463,72 464,77 465,72 466,77 467,64 468,63 469,63 470,60 471,61 472,55 473,70 474,63 475,71 476,67 477,77 478,79 479,81 480,81 481,74 482,86 483,84 484,87 485,85 485,111 484,110 483,106 482,108 481,109 480,106 479,105 478,109 477,106 476,102 475,103 474,102 473,103 472,103 471,106 470,110 469,102 468,101 467,110 466,112 465,109 464,113 463,108 462,112 461,112 460,111 459,113 458,114 457,115 456,111 455,107 454,114 453,113 452,99 451,106 450,107 449,109 448,113 447,105 446,116 445,115 444,109 443,115 442,116 441,113 440,117 439,117 438,117 437,113 436,114 435,116 434,117 433,121 432,117 431,114 430,116 429,115 428,115 427,113 426,113 425,111 424,112 423,113 422,115 421,117 420,115 419,121 418,121 417,117 416,121 415,116 414,114 413,115 412,118 411,114 410,118 409,121 408,121 407,117 406,117 405,118 404,118 403,116 402,113 401,110 400,108 399,117 398,117 397,116 396,117 395,115 394,115 393,117 392,114 391,114 390,114 389,116 388,113 387,121 386,121 385,117 384,118 383,117 382,114 381,112 380,116 379,116 378,117 377,114 376,114 375,113 374,121 373,118 372,114 371,113 370,114 369,110 368,112 367,115 366,113 365,115 364,112 363,117 362,111 361,111 360,106 359,107 358,113 357,114 356,115 355,110 354,110 353,109 352,109 351,105 350,113 349,110 348,106 347,114 346,114 345,111 344,116 343,108 342,107 341,114 340,109 339,108 338,111 337,112 336,113 335,117 334,111 333,112 332,117 331,109 330,104 329,109 328,108 327,104 326,110 325,109 324,110 323,116 322,111 321,113 320,111 319,110 318,117 317,115 316,118 315,117 314,116 313,111 312,111 311,112 310,111 309,110 308,114 307,111 306,118 305,117 304,113 303,115 302,114 301,114 300,114 299,112 298,99 297,91 296,95 295,99 294,100 293,96 292,91 291,86 290,90 289,85 288,86 287,119 286,91 285,119 284,82 283,119 282,119 281,83 280,119 279,87 278,119 277,119 276,119 275,92 274,90 273,91 272,97 271,119 270,119 269,93 268,90 267,97 266,93 265,95 264,119 263,119 262,87 261,119 260,119 259,95 258,119 257,91 256,100 255,101 254,94 253,119 252,106 251,98 250,95 249,103 248,99 247,102 246,119 245,100 244,105 243,105 242,100 241,97 240,96 239,99 238,104 237,99 236,100 235,99 234,101 233,99 232,98 231,99 230,101 229,100 228,104 227,96 226,100 225,99 224,99 223,104 222,101 221,119 220,100 219,98 218,105 217,100 216,97 215,99 214,97 213,100 212,94 211,93 210,99 209,94 208,99 207,97 206,104 205,99 204,119 203,119 202,98 201,119 200,119 199,95 198,104 197,103 196,99 195,100 194,99 193,103 192,89 191,119 190,119 189,98 188,92 187,93 186,91 185,96 184,119 183,97 182,95 181,96 180,119 179,95 178,98 177,119 176,92 175,119 174,119 173,119 172,97 171,95 170,99 169,119 168,97 167,97 166,93 165,119 164,92 163,93 162,89 161,119 160,119 159,93 158,90 157,93 156,95 155,91 154,119 153,119 152,90 151,119 150,97 149,119 148,119 147,98 146,90 145,96 144,101 143,119 142,97 141,95 140,119 139,95 138,119 137,94 136,95 135,95 134,97 133,92 132,119 131,96 130,119 129,93 128,94 127,97 126,95 125,119 124,119 123,119 122,94 121,97 120,92 119,119 118,88 117,119 116,94 115,91 114,95 113,119 112,119 111,119 110,97 109,99 108,94 107,102 106,119 105,119 104,94 103,94 102,93 101,98 100,119 99,94 98,102 97,102 96,100 95,98 94,119 93,119 92,100 91,97 90,94 89,94 88,90 87,99 86,88 85,86 84,97 83,119 82,119 81,119 80,119 79,98 78,89 77,119 76,119 75,92 74,119 73,119 72,119 71,119 70,119 69,93 68,94 67,94 66,119 65,90 64,95 63,119 62,89 61,119 60,92 59,92 " />
	<!-- ApparentWindSpeed -->
	<polyline style="fill:none;stroke:blue;clip-path:url(#GraphRegion)" points="59,68 60,67 61,66 62,66 63,64 64,58 65,62 66,62 67,61 68,65 69,65 70,65 71,60 72,66 73,70 74,62 75,61 76,66 77,63 78,63 79,69 80,66 81,63 82,62 83,66 84,67 85,63 86,63 87,69 88,68 89,67 90,72 91,72 92,67 93,69 94,66 95,76 96,77 97,70 98,67 99,70 100,68 101,76 102,71 103,74 104,74 105,74 106,75 107,79 108,71 109,75 110,66 111,63 112,70 113,68 114,70 115,68 116,66 117,64 118,63 119,70 120,69 121,69 122,70 123,65 124,64 125,65 126,64 127,71 128,72 129,70 130,71 131,69 132,70 133,70 134,72 135,68 136,68 137,65 138,74 139,66 140,72 141,67 142,64 143,69 144,69 145,69 146,64 147,70 148,66 149,66 150,70 151,58 152,67 153,62 154,68 155,67 156,69 157,68 158,64 159,67 160,62 161,72 162,61 163,63 164,68 165,65 166,64 167,66 168,69 169,65 170,64 171,67 172,68 173,65 174,66 175,66 176,69 177,69 178,71 179,74 180,68 181,71 182,69 183,70 184,64 185,69 186,64 187,66 188,63 189,68 190,66 191,65 192,61 193,73 194,74 195,72 196,72 197,75 198,78 199,70 200,72 201,77 202,73 203,71 204,68 205,73 206,77 207,73 208,70 209,72 210,72 211,65 212,67 213,74 214,73 215,73 216,74 217,75 218,82 219,78 220,78 221,78 222,80 223,78 224,78 225,81 226,74 227,74 228,78 229,76 230,80 231,78 232,78 233,81 234,83 235,76 236,77 237,72 238,81 239,75 240,75 241,77 242,77 243,84 244,80 245,79 246,74 247,78 248,80 249,73 250,75 251,74 252,79 253,73 254,70 255,78 256,73 257,69 258,68 259,70 260,69 261,65 262,67 263,72 264,76 265,72 266,74 267,72 268,66 269,67 270,64 271,68 272,71 273,64 274,68 275,67 276,64 277,59 278,60 279,59 280,63 281,59 282,60 283,50 284,55 285,51 286,56 287,61 288,61 289,58 290,63 291,60 292,67 293,68 294,79 295,80 296,77 297,74 298,74 299,104 300,109 301,109 302,109 303,110 304,111 305,110 306,113 307,105 308,104 309,101 310,104 311,105 312,101 313,105 314,110 315,111 316,108 317,105 318,106 319,98 320,98 321,101 322,101 323,100 324,93 325,99 326,101 327,95 328,93 329,94 330,88 331,94 332,94 333,89 334,92 335,98 336,95 337,95 338,96 339,99 340,97 341,104 342,93 343,93 344,104 345,98 346,101 347,99 348,94 349,101 350,99 351,95 352,96 353,97 354,101 355,103 356,108 357,109 358,105 359,100 360,97 361,99 362,102 363,109 364,103 365,108 366,107 367,109 368,107 369,105 370,105 371,106 372,109 373,110 374,114 375,106 376,108 377,108 378,109 379,111 380,110 381,105 382,110 383,112 384,116 385,115 386,114 387,115 388,106 389,111 390,110 391,111 392,112 393,111 394,106 395,113 396,111 397,111 398,110 399,109 400,101 401,105 402,109 403,111 404,114 405,112 406,108 407,109 408,117 409,112 410,114 411,110 412,112 413,112 414,111 415,109 416,116 417,114 418,116 419,114 420,112 421,113 422,109 423,106 424,107 425,108 426,109 427,108 428,110 429,112 430,114 431,111 432,112 433,114 434,110 435,108 436,107 437,104 438,105 439,112 440,109 441,106 442,105 443,97 444,93 445,105 446,100 447,97 448,103 449,100 450,96 451,92 452,89 453,100 454,100 455,94 456,101 457,103 458,98 459,97 460,94 461,89 462,93 463,90 464,96 465,94 466,95 467,88 468,88 469,84 470,89 471,88 472,82 473,89 474,85 475,87 476,89 477,94 478,94 479,95 480,96 481,95 482,98 483,95 484,99 485,101 " />
</svg>
