<?xml version="1.0" encoding="utf-8" standalone="no"?>
<svg xmlns="http://www.w3.org/2000/svg" xmlns:xlink="http://www.w3.org/1999/xlink" width="500" height="135">
	<!-- Created by: InfluxDBWindSVG Version 2.20240112.0 Built on: Jan 12 2024 at 08:33:44 -->
	<clipPath id="GraphRegion"><polygon points="58,14 486,14 486,121 58,121" /></clipPath>
	<style>
		text { font-family: sans-serif; font-size: 12px; fill: black; }
		line { stroke: black; }
		polygon { fill-opacity: 0.5; }
		.barometer-label { font-family: Georgia, serif; font-style: italic; font-size: 59px; opacity: 0.5; clip-path: url(#GraphRegion); text-anchor: middle; dominant-baseline: middle; }
	</style>
	<rect style="fill-opacity:0;stroke:grey;stroke-width:2" width="500" height="135" />
	<text x="58" y="12">Sola Air Pressure</text>
	<text style="text-anchor:end" x="486" y="12">2024-01-12 10:54:52</text>
	<text style="fill:blue;text-anchor:middle" x="12" y="50%" transform="rotate(270 12,67)">Pressure (1025.0 hPa)</text>
	<line x1="56" y1="14" x2="488" y2="14"/>
	<text style="fill:blue;text-anchor:end;dominant-baseline:middle" x="56" y="14">1025.0</text>
	<line x1="56" y1="121" x2="488" y2="121"/>
	<text style="fill:blue;text-anchor:end;dominant-baseline:middle" x="56" y="121">1007.0</text>
	<line x1="58" y1="14" x2="58" y2="121"/>
	<line x1="486" y1="14" x2="486" y2="121"/>
	<line style="stroke-dasharray:1" x1="56" y1="40" x2="488" y2="40" />
	<text style="fill:blue;text-anchor:end;dominant-baseline:middle" x="56" y="40">1020.5</text>
	<line style="stroke-dasharray:1" x1="56" y1="66" x2="488" y2="66" />
	<text style="fill:blue;text-anchor:end;dominant-baseline:middle" x="56" y="66">1016.0</text>
	<line style="stroke-dasharray:1" x1="56" y1="92" x2="488" y2="92" />
	<text style="fill:blue;text-anchor:end;dominant-baseline:middle" x="56" y="92">1011.5</text>
	<line style="stroke-dasharray:1" x1="68" y1="14" x2="68" y2="123" />
	<text style="text-anchor:middle" x="68" y="133">10</text>
	<line style="stroke-dasharray:1" x1="80" y1="14" x2="80" y2="123" />
	<line style="stroke-dasharray:1" x1="92" y1="14" x2="92" y2="123" />
	<text style="text-anchor:middle" x="92" y="133">8</text>
	<line style="stroke-dasharray:1" x1="104" y1="14" x2="104" y2="123" />
	<line style="stroke-dasharray:1" x1="116" y1="14" x2="116" y2="123" />
	<text style="text-anchor:middle" x="116" y="133">6</text>
	<line style="stroke-dasharray:1" x1="128" y1="14" x2="128" y2="123" />
	<line style="stroke-dasharray:1" x1="140" y1="14" x2="140" y2="123" />
	<text style="text-anchor:middle" x="140" y="133">4</text>
	<line style="stroke-dasharray:1" x1="152" y1="14" x2="152" y2="123" />
	<line style="stroke-dasharray:1" x1="164" y1="14" x2="164" y2="123" />
	<text style="text-anchor:middle" x="164" y="133">2</text>
	<line style="stroke-dasharray:1" x1="176" y1="14" x2="176" y2="123" />
	<line style="stroke:red" x1="188" y1="14" x2="188" y2="123" />
	<text style="text-anchor:middle" x="188" y="133">0</text>
	<line style="stroke-dasharray:1" x1="200" y1="14" x2="200" y2="123" />
	<line style="stroke-dasharray:1" x1="212" y1="14" x2="212" y2="123" />
	<text style="text-anchor:middle" x="212" y="133">22</text>
	<line style="stroke-dasharray:1" x1="224" y1="14" x2="224" y2="123" />
	<line style="stroke-dasharray:1" x1="236" y1="14" x2="236" y2="123" />
	<text style="text-anchor:middle" x="236" y="133">20</text>
	<line style="stroke-dasharray:1" x1="248" y1="14" x2="248" y2="123" />
	<line style="stroke-dasharray:1" x1="260" y1="14" x2="260" y2="123" />
	<text style="text-anchor:middle" x="260" y="133">18</text>
	<line style="stroke-dasharray:1" x1="272" y1="14" x2="272" y2="123" />
	<line style="stroke-dasharray:1" x1="284" y1="14" x2="284" y2="123" />
	<text style="text-anchor:middle" x="284" y="133">16</text>
	<line style="stroke-dasharray:1" x1="296" y1="14" x2="296" y2="123" />
	<line style="stroke-dasharray:1" x1="308" y1="14" x2="308" y2="123" />
	<text style="text-anchor:middle" x="308" y="133">14</text>
	<line style="stroke-dasharray:1" x1="320" y1="14" x2="320" y2="123" />
	<line style="stroke-dasharray:1" x1="332" y1="14" x2="332" y2="123" />
	<text style="text-anchor:middle" x="332" y="133">12</text>
	<line style="stroke-dasharray:1" x1="344" y1="14" x2="344" y2="123" />
	<line style="stroke-dasharray:1" x1="356" y1="14" x2="356" y2="123" />
	<text style="text-anchor:middle" x="356" y="133">10</text>
	<line style="stroke-dasharray:1" x1="368" y1="14" x2="368" y2="123" />
	<line style="stroke-dasharray:1" x1="380" y1="14" x2="380" y2="123" />
	<text style="text-anchor:middle" x="380" y="133">8</text>
	<line style="stroke-dasharray:1" x1="392" y1="14" x2="392" y2="123" />
	<line style="stroke-dasharray:1" x1="404" y1="14" x2="404" y2="123" />
	<text style="text-anchor:middle" x="404" y="133">6</text>
	<line style="stroke-dasharray:1" x1="416" y1="14" x2="416" y2="123" />
	<line style="stroke-dasharray:1" x1="428" y1="14" x2="428" y2="123" />
	<text style="text-anchor:middle" x="428" y="133">4</text>
	<line style="stroke-dasharray:1" x1="440" y1="14" x2="440" y2="123" />
	<line style="stroke-dasharray:1" x1="452" y1="14" x2="452" y2="123" />
	<text style="text-anchor:middle" x="452" y="133">2</text>
	<line style="stroke-dasharray:1" x1="464" y1="14" x2="464" y2="123" />
	<line style="stroke:red" x1="476" y1="14" x2="476" y2="123" />
	<text style="text-anchor:middle" x="476" y="133">0</text>
	<polygon style="fill:red;stroke:red;fill-opacity:1;" points="55,121 61,118 61,124" />
	<!-- OutsidePressure MinMax -->
	<polygon style="fill:blue;stroke:blue;clip-path:url(#GraphRegion)" points="59,14 60,14 61,14 62,14 63,14 64,14 65,14 66,14 67,14 68,14 69,14 70,19 71,19 72,19 73,19 74,19 75,19 76,19 77,19 78,19 79,19 80,19 81,19 82,19 83,19 84,19 85,19 86,19 87,25 88,25 89,25 90,25 91,25 92,25 93,25 94,25 95,25 96,25 97,25 98,25 99,31 100,31 101,31 102,31 103,31 104,31 105,31 106,31 107,31 108,31 109,31 110,31 111,31 112,37 113,37 114,37 115,37 116,37 117,37 118,37 119,37 120,37 121,37 122,37 123,37 124,37 125,37 126,37 127,37 128,37 129,37 130,37 131,37 132,37 133,43 134,43 135,43 136,43 137,43 138,43 139,43 140,43 141,43 142,43 143,43 144,43 145,43 146,43 147,43 148,43 149,43 150,43 151,49 152,49 153,49 154,49 155,49 156,49 157,49 158,49 159,49 160,55 161,55 162,55 163,55 164,55 165,55 166,55 167,55 168,55 169,55 170,55 171,55 172,55 173,55 174,55 175,55 176,55 177,55 178,55 179,55 180,55 181,61 182,61 183,61 184,61 185,61 186,61 187,61 188,61 189,61 190,61 191,61 192,61 193,61 194,67 195,67 196,67 197,67 198,67 199,67 200,67 201,67 202,67 203,67 204,67 205,67 206,67 207,67 208,67 209,67 210,67 211,67 212,67 213,67 214,73 215,73 216,73 217,73 218,73 219,73 220,73 221,73 222,73 223,73 224,73 225,73 226,73 227,73 228,79 229,79 230,79 231,79 232,79 233,79 234,79 235,79 236,79 237,79 238,79 239,79 240,79 241,79 242,85 243,85 244,85 245,85 246,85 247,85 248,85 249,85 250,85 251,85 252,91 253,91 254,91 255,91 256,91 257,91 258,91 259,91 260,91 261,91 262,97 263,97 264,97 265,97 266,97 267,97 268,97 269,97 270,97 271,97 272,103 273,103 274,103 275,103 276,103 277,103 278,103 279,103 280,103 281,109 282,109 283,109 284,109 285,109 286,109 287,109 288,109 289,109 290,109 291,109 292,109 293,115 294,115 295,115 296,115 297,115 298,115 299,115 300,115 301,121 302,121 303,121 304,121 305,121 306,115 307,115 308,115 309,115 310,115 311,115 312,115 313,115 314,115 315,115 316,115 317,115 318,115 319,115 320,115 321,115 322,115 323,115 324,115 325,115 326,115 327,115 328,115 329,109 330,109 331,109 332,109 333,109 334,109 335,109 336,109 337,109 338,109 339,109 340,109 341,109 342,109 343,109 344,109 345,109 346,103 347,103 348,103 349,103 350,103 351,103 352,103 353,103 354,103 355,103 356,103 357,103 358,103 359,103 360,103 361,103 362,103 363,103 364,103 365,103 366,103 367,103 368,103 369,103 370,103 371,103 372,103 373,103 374,103 375,103 376,103 377,103 378,103 379,103 380,103 381,103 382,103 383,103 384,103 385,103 386,103 387,103 388,103 389,103 390,103 391,103 392,103 393,103 394,103 395,103 396,103 397,103 398,103 399,103 400,103 401,103 402,103 403,103 404,103 405,103 406,103 407,103 408,103 409,103 410,103 411,103 412,103 413,103 414,103 415,103 416,103 417,103 418,103 419,103 420,103 421,103 422,103 423,103 424,103 425,103 426,103 427,103 428,103 429,103 430,103 431,103 432,103 433,103 434,103 435,103 436,103 437,103 438,103 439,103 440,103 441,109 442,109 443,109 444,109 445,103 446,109 447,109 448,109 449,109 450,109 451,109 452,103 453,103 454,103 455,103 456,103 457,103 458,103 459,103 460,103 461,103 462,103 463,103 464,103 465,103 466,103 467,103 468,103 469,103 470,103 471,103 472,97 473,103 474,97 475,97 476,97 477,97 478,97 479,97 480,97 481,97 482,97 483,97 484,97 485,97 485,97 484,97 483,97 482,97 481,103 480,103 479,103 478,103 477,97 476,103 475,103 474,103 473,103 472,103 471,103 470,103 469,103 468,103 467,103 466,103 465,103 464,103 463,103 462,103 461,103 460,103 459,103 458,103 457,103 456,103 455,109 454,103 453,109 452,109 451,109 450,109 449,109 448,109 447,109 446,109 445,109 444,109 443,109 442,109 441,109 440,109 439,109 438,103 437,109 436,109 435,109 434,109 433,103 432,103 431,103 430,103 429,103 428,103 427,103 426,103 425,103 424,103 423,103 422,103 421,103 420,103 419,103 418,103 417,103 416,103 415,103 414,103 413,103 412,103 411,103 410,103 409,103 408,103 407,109 406,103 405,103 404,103 403,103 402,103 401,103 400,103 399,103 398,103 397,103 396,103 395,103 394,103 393,103 392,103 391,103 390,103 389,103 388,103 387,103 386,103 385,103 384,103 383,103 382,103 381,103 380,103 379,103 378,103 377,103 376,103 375,103 374,103 373,103 372,103 371,103 370,103 369,103 368,103 367,103 366,103 365,103 364,103 363,103 362,103 361,103 360,103 359,103 358,103 357,103 356,103 355,103 354,103 353,103 352,103 351,103 350,103 349,109 348,109 347,109 346,109 345,109 344,109 343,109 342,109 341,109 340,109 339,109 338,109 337,109 336,109 335,109 334,109 333,109 332,109 331,109 330,109 329,115 328,115 327,115 326,115 325,115 324,115 323,115 322,115 321,115 320,115 319,115 318,115 317,115 316,115 315,115 314,115 313,121 312,115 311,121 310,121 309,121 308,121 307,121 306,121 305,121 304,121 303,121 302,121 301,121 300,121 299,121 298,121 297,115 296,115 295,115 294,115 293,115 292,115 291,115 290,115 289,115 288,115 287,109 286,109 285,109 284,109 283,109 282,109 281,109 280,109 279,109 278,109 277,103 276,103 275,103 274,103 273,103 272,103 271,103 270,103 269,103 268,97 267,97 266,97 265,97 264,97 263,97 262,97 261,97 260,97 259,97 258,91 257,91 256,91 255,91 254,91 253,91 252,91 251,91 250,91 249,85 248,85 247,85 246,85 245,85 244,85 243,85 242,85 241,85 240,85 239,85 238,85 237,79 236,79 235,79 234,79 233,79 232,79 231,79 230,79 229,79 228,79 227,79 226,79 225,79 224,79 223,73 222,73 221,73 220,73 219,73 218,73 217,73 216,73 215,73 214,73 213,73 212,73 211,73 210,73 209,73 208,67 207,67 206,67 205,67 204,67 203,67 202,67 201,67 200,67 199,67 198,67 197,67 196,67 195,67 194,67 193,67 192,67 191,67 190,67 189,61 188,61 187,61 186,61 185,61 184,61 183,61 182,61 181,61 180,61 179,61 178,61 177,61 176,61 175,61 174,61 173,55 172,55 171,55 170,55 169,55 168,55 167,55 166,55 165,55 164,55 163,55 162,55 161,55 160,55 159,55 158,55 157,49 156,49 155,49 154,49 153,49 152,49 151,49 150,49 149,49 148,49 147,49 146,43 145,43 144,43 143,43 142,43 141,43 140,43 139,43 138,43 137,43 136,43 135,43 134,43 133,43 132,43 131,43 130,43 129,43 128,37 127,37 126,37 125,37 124,37 123,37 122,37 121,37 120,37 119,37 118,37 117,37 116,37 115,37 114,37 113,37 112,37 111,37 110,37 109,31 108,31 107,31 106,31 105,31 104,31 103,31 102,31 101,31 100,31 99,31 98,31 97,31 96,31 95,25 94,25 93,25 92,25 91,25 90,25 89,25 88,25 87,25 86,25 85,25 84,25 83,19 82,25 81,19 80,19 79,19 78,19 77,19 76,19 75,19 74,19 73,19 72,19 71,19 70,19 69,19 68,19 67,14 66,14 65,14 64,14 63,14 62,14 61,14 60,14 59,14 " />
	<!-- OutsidePressure -->
	<polyline style="fill:none;stroke:blue;clip-path:url(#GraphRegion)" points="59,14 60,14 61,14 62,14 63,14 64,14 65,14 66,14 67,14 68,14 69,17 70,19 71,19 72,19 73,19 74,19 75,19 76,19 77,19 78,19 79,19 80,19 81,19 82,19 83,19 84,20 85,25 86,25 87,25 88,25 89,25 90,25 91,25 92,25 93,25 94,25 95,25 96,27 97,30 98,31 99,31 100,31 101,31 102,31 103,31 104,31 105,31 106,31 107,31 108,31 109,31 110,32 111,36 112,37 113,37 114,37 115,37 116,37 117,37 118,37 119,37 120,37 121,37 122,37 123,37 124,37 125,37 126,37 127,37 128,37 129,37 130,38 131,41 132,43 133,43 134,43 135,43 136,43 137,43 138,43 139,43 140,43 141,43 142,43 143,43 144,43 145,43 146,43 147,44 148,44 149,49 150,49 151,49 152,49 153,49 154,49 155,49 156,49 157,49 158,50 159,55 160,55 161,55 162,55 163,55 164,55 165,55 166,55 167,55 168,55 169,55 170,55 171,55 172,55 173,55 174,55 175,57 176,58 177,55 178,58 179,60 180,61 181,61 182,61 183,61 184,61 185,61 186,61 187,61 188,61 189,61 190,62 191,64 192,67 193,67 194,67 195,67 196,67 197,67 198,67 199,67 200,67 201,67 202,67 203,67 204,67 205,67 206,67 207,67 208,67 209,67 210,67 211,68 212,72 213,73 214,73 215,73 216,73 217,73 218,73 219,73 220,73 221,73 222,73 223,73 224,73 225,73 226,75 227,78 228,79 229,79 230,79 231,79 232,79 233,79 234,79 235,79 236,79 237,79 238,79 239,80 240,81 241,85 242,85 243,85 244,85 245,85 246,85 247,85 248,85 249,85 250,87 251,91 252,91 253,91 254,91 255,91 256,91 257,91 258,91 259,92 260,96 261,95 262,97 263,97 264,97 265,97 266,97 267,97 268,97 269,97 270,99 271,102 272,103 273,103 274,103 275,103 276,103 277,103 278,103 279,105 280,109 281,109 282,109 283,109 284,109 285,109 286,109 287,109 288,109 289,111 290,111 291,113 292,114 293,115 294,115 295,115 296,115 297,115 298,115 299,120 300,120 301,121 302,121 303,121 304,121 305,121 306,120 307,115 308,118 309,115 310,117 311,117 312,115 313,115 314,115 315,115 316,115 317,115 318,115 319,115 320,115 321,115 322,115 323,115 324,115 325,115 326,115 327,115 328,115 329,113 330,109 331,109 332,109 333,109 334,109 335,109 336,109 337,109 338,109 339,109 340,109 341,109 342,109 343,109 344,109 345,109 346,105 347,104 348,109 349,103 350,103 351,103 352,103 353,103 354,103 355,103 356,103 357,103 358,103 359,103 360,103 361,103 362,103 363,103 364,103 365,103 366,103 367,103 368,103 369,103 370,103 371,103 372,103 373,103 374,103 375,103 376,103 377,103 378,103 379,103 380,103 381,103 382,103 383,103 384,103 385,103 386,103 387,103 388,103 389,103 390,103 391,103 392,103 393,103 394,103 395,103 396,103 397,103 398,103 399,103 400,103 401,103 402,103 403,103 404,103 405,103 406,103 407,103 408,103 409,103 410,103 411,103 412,103 413,103 414,103 415,103 416,103 417,103 418,103 419,103 420,103 421,103 422,103 423,103 424,103 425,103 426,103 427,103 428,103 429,103 430,103 431,103 432,103 433,103 434,104 435,104 436,104 437,103 438,103 439,103 440,108 441,109 442,109 443,109 444,109 445,108 446,109 447,109 448,109 449,109 450,109 451,109 452,108 453,103 454,103 455,103 456,103 457,103 458,103 459,103 460,103 461,103 462,103 463,103 464,103 465,103 466,103 467,103 468,103 469,103 470,103 471,103 472,103 473,103 474,100 475,97 476,97 477,97 478,97 479,97 480,97 481,97 482,97 483,97 484,97 485,97 " />
	<text class="barometer-label" x="50%" y="317">Rain</text>
	<text class="barometer-label" x="50%" y="168">Change</text>
	<text class="barometer-label" x="50%" y="19">Fair</text>
</svg>
