<?xml version="1.0" encoding="utf-8" standalone="no"?>
<svg xmlns="http://www.w3.org/2000/svg" xmlns:xlink="http://www.w3.org/1999/xlink" width="500" height="135">
	<!-- Created by: InfluxDBWindSVG Version 2.20231017.3 Built on: Oct 17 2023 at 06:07:10 -->
	<style>
		text { font-family: sans-serif; font-size: 12px; fill: black; }
		line { stroke: black; }
		polygon { fill-opacity: 0.5; }
	</style>
	<rect style="fill-opacity:0;stroke:grey;stroke-width:2" width="500" height="135" />
	<text x="58" y="12">Sola Apparent Wind Speed</text>
	<text style="text-anchor:end" x="486" y="12">2023-10-17 06:09:57</text>
	<text style="fill:blue;text-anchor:middle" x="12" y="67" transform="rotate(270 12,67)">Wind Speed (4.8 kn)</text>
	<line x1="56" y1="14" x2="488" y2="14"/>
	<text style="fill:blue;text-anchor:end" x="56" y="19">26.1</text>
	<line x1="56" y1="121" x2="488" y2="121"/>
	<text style="fill:blue;text-anchor:end" x="56" y="126">0.0</text>
	<line x1="58" y1="14" x2="58" y2="121"/>
	<line x1="486" y1="14" x2="486" y2="121"/>
	<line style="stroke-dasharray:1" x1="56" y1="40" x2="488" y2="40" />
	<text style="fill:blue;text-anchor:end" x="56" y="44">19.6</text>
	<line style="stroke-dasharray:1" x1="56" y1="66" x2="488" y2="66" />
	<text style="fill:blue;text-anchor:end" x="56" y="70">13.1</text>
	<line style="stroke-dasharray:1" x1="56" y1="92" x2="488" y2="92" />
	<text style="fill:blue;text-anchor:end" x="56" y="96">6.5</text>
	<line style="stroke-dasharray:1" x1="59" y1="14" x2="59" y2="123" />
	<text style="text-anchor:middle" x="59" y="133">6</text>
	<line style="stroke-dasharray:1" x1="71" y1="14" x2="71" y2="123" />
	<line style="stroke-dasharray:1" x1="83" y1="14" x2="83" y2="123" />
	<text style="text-anchor:middle" x="83" y="133">4</text>
	<line style="stroke-dasharray:1" x1="95" y1="14" x2="95" y2="123" />
	<line style="stroke-dasharray:1" x1="107" y1="14" x2="107" y2="123" />
	<text style="text-anchor:middle" x="107" y="133">2</text>
	<line style="stroke-dasharray:1" x1="119" y1="14" x2="119" y2="123" />
	<line style="stroke:red" x1="131" y1="14" x2="131" y2="123" />
	<text style="text-anchor:middle" x="131" y="133">0</text>
	<line style="stroke-dasharray:1" x1="143" y1="14" x2="143" y2="123" />
	<line style="stroke-dasharray:1" x1="155" y1="14" x2="155" y2="123" />
	<text style="text-anchor:middle" x="155" y="133">22</text>
	<line style="stroke-dasharray:1" x1="167" y1="14" x2="167" y2="123" />
	<line style="stroke-dasharray:1" x1="179" y1="14" x2="179" y2="123" />
	<text style="text-anchor:middle" x="179" y="133">20</text>
	<line style="stroke-dasharray:1" x1="191" y1="14" x2="191" y2="123" />
	<line style="stroke-dasharray:1" x1="203" y1="14" x2="203" y2="123" />
	<text style="text-anchor:middle" x="203" y="133">18</text>
	<line style="stroke-dasharray:1" x1="215" y1="14" x2="215" y2="123" />
	<line style="stroke-dasharray:1" x1="227" y1="14" x2="227" y2="123" />
	<text style="text-anchor:middle" x="227" y="133">16</text>
	<line style="stroke-dasharray:1" x1="239" y1="14" x2="239" y2="123" />
	<line style="stroke-dasharray:1" x1="251" y1="14" x2="251" y2="123" />
	<text style="text-anchor:middle" x="251" y="133">14</text>
	<line style="stroke-dasharray:1" x1="263" y1="14" x2="263" y2="123" />
	<line style="stroke-dasharray:1" x1="275" y1="14" x2="275" y2="123" />
	<text style="text-anchor:middle" x="275" y="133">12</text>
	<line style="stroke-dasharray:1" x1="287" y1="14" x2="287" y2="123" />
	<line style="stroke-dasharray:1" x1="299" y1="14" x2="299" y2="123" />
	<text style="text-anchor:middle" x="299" y="133">10</text>
	<line style="stroke-dasharray:1" x1="311" y1="14" x2="311" y2="123" />
	<line style="stroke-dasharray:1" x1="323" y1="14" x2="323" y2="123" />
	<text style="text-anchor:middle" x="323" y="133">8</text>
	<line style="stroke-dasharray:1" x1="335" y1="14" x2="335" y2="123" />
	<line style="stroke-dasharray:1" x1="347" y1="14" x2="347" y2="123" />
	<text style="text-anchor:middle" x="347" y="133">6</text>
	<line style="stroke-dasharray:1" x1="359" y1="14" x2="359" y2="123" />
	<line style="stroke-dasharray:1" x1="371" y1="14" x2="371" y2="123" />
	<text style="text-anchor:middle" x="371" y="133">4</text>
	<line style="stroke-dasharray:1" x1="383" y1="14" x2="383" y2="123" />
	<line style="stroke-dasharray:1" x1="395" y1="14" x2="395" y2="123" />
	<text style="text-anchor:middle" x="395" y="133">2</text>
	<line style="stroke-dasharray:1" x1="407" y1="14" x2="407" y2="123" />
	<line style="stroke:red" x1="419" y1="14" x2="419" y2="123" />
	<text style="text-anchor:middle" x="419" y="133">0</text>
	<line style="stroke-dasharray:1" x1="431" y1="14" x2="431" y2="123" />
	<line style="stroke-dasharray:1" x1="443" y1="14" x2="443" y2="123" />
	<text style="text-anchor:middle" x="443" y="133">22</text>
	<line style="stroke-dasharray:1" x1="455" y1="14" x2="455" y2="123" />
	<line style="stroke-dasharray:1" x1="467" y1="14" x2="467" y2="123" />
	<text style="text-anchor:middle" x="467" y="133">20</text>
	<line style="stroke-dasharray:1" x1="479" y1="14" x2="479" y2="123" />
	<polygon style="fill:red;stroke:red;fill-opacity:1;" points="55,121 61,118 61,124" />
	<!-- ApparentWindSpeed MinMax -->
	<polygon style="fill:blue;stroke:blue" points="59,87 60,95 61,98 62,88 63,96 64,94 65,90 66,88 67,90 68,87 69,95 70,94 71,96 72,100 73,101 74,97 75,100 76,105 77,92 78,105 79,98 80,94 81,96 82,96 83,82 84,80 85,78 86,72 87,90 88,84 89,86 90,88 91,100 92,92 93,96 94,99 95,98 96,87 97,90 98,94 99,91 100,91 101,88 102,85 103,79 104,78 105,79 106,69 107,76 108,68 109,69 110,71 111,66 112,56 113,63 114,65 115,71 116,66 117,69 118,76 119,84 120,79 121,75 122,74 123,64 124,65 125,73 126,69 127,73 128,82 129,82 130,75 131,85 132,76 133,73 134,80 135,68 136,69 137,69 138,71 139,71 140,80 141,71 142,80 143,66 144,70 145,66 146,55 147,56 148,69 149,59 150,53 151,54 152,56 153,59 154,55 155,64 156,75 157,64 158,63 159,60 160,37 161,39 162,38 163,37 164,30 165,41 166,50 167,38 168,58 169,64 170,63 171,70 172,63 173,42 174,64 175,50 176,46 177,54 178,52 179,46 180,46 181,31 182,35 183,32 184,33 185,19 186,42 187,41 188,64 189,59 190,68 191,74 192,66 193,59 194,66 195,58 196,55 197,54 198,48 199,44 200,44 201,48 202,50 203,72 204,60 205,55 206,62 207,67 208,57 209,52 210,48 211,39 212,48 213,48 214,33 215,39 216,36 217,44 218,55 219,41 220,48 221,39 222,52 223,55 224,47 225,57 226,59 227,52 228,46 229,48 230,55 231,54 232,50 233,51 234,48 235,45 236,50 237,46 238,62 239,37 240,39 241,20 242,37 243,35 244,42 245,28 246,48 247,48 248,33 249,35 250,40 251,44 252,35 253,42 254,37 255,44 256,40 257,29 258,28 259,21 260,31 261,41 262,14 263,34 264,35 265,30 266,30 267,32 268,38 269,36 270,44 271,48 272,56 273,54 274,63 275,55 276,56 277,62 278,60 279,66 280,62 281,63 282,57 283,70 284,69 285,66 286,74 287,86 288,82 289,79 290,79 291,71 292,77 293,84 294,79 295,88 296,83 297,89 298,83 299,81 300,79 301,81 302,87 303,84 304,81 305,71 306,55 307,62 308,63 309,46 310,48 311,63 312,38 313,38 314,27 315,58 316,59 317,75 318,73 319,48 320,64 321,79 322,82 323,82 324,85 325,86 326,95 327,79 328,77 329,65 330,62 331,30 332,82 333,83 334,89 335,87 336,90 337,79 338,73 339,82 340,85 341,84 342,83 343,71 344,79 345,87 346,81 347,80 348,79 349,83 350,87 351,72 352,85 353,84 354,89 355,91 356,95 357,93 358,98 359,91 360,93 361,89 362,85 363,93 364,86 365,86 366,93 367,95 368,93 369,95 370,100 371,100 372,98 373,99 374,94 375,97 376,100 377,100 378,102 379,97 380,109 381,109 382,115 383,111 384,106 385,107 386,106 387,109 388,109 389,92 390,92 391,109 392,116 393,106 394,111 395,109 396,109 397,112 398,115 399,117 400,115 401,114 402,113 403,115 404,109 405,109 406,113 407,116 408,116 409,117 410,121 411,117 412,113 413,112 414,115 415,116 416,115 417,118 418,117 419,121 420,121 421,118 422,121 423,116 424,115 425,117 426,118 427,114 428,114 429,103 430,112 431,115 432,115 433,115 434,109 435,109 436,109 437,106 438,114 439,110 440,110 441,81 442,97 443,94 444,103 445,99 446,95 447,95 448,96 449,88 450,90 451,93 452,93 453,95 454,97 455,95 456,98 457,93 458,93 459,94 460,104 461,107 462,108 463,100 464,101 465,99 466,98 467,96 468,96 469,94 470,99 471,97 472,96 473,85 474,97 475,99 476,103 477,107 478,104 479,103 480,97 481,96 482,100 483,101 484,102 485,109 485,121 484,111 483,112 482,111 481,112 480,110 479,113 478,113 477,114 476,111 475,114 474,111 473,109 472,109 471,109 470,109 469,107 468,106 467,111 466,109 465,113 464,110 463,114 462,116 461,114 460,114 459,117 458,112 457,108 456,108 455,109 454,109 453,112 452,108 451,107 450,107 449,107 448,108 447,110 446,112 445,111 444,114 443,116 442,113 441,121 440,121 439,117 438,121 437,121 436,114 435,113 434,116 433,121 432,121 431,121 430,121 429,121 428,121 427,121 426,121 425,121 424,121 423,121 422,121 421,121 420,121 419,121 418,121 417,121 416,118 415,121 414,117 413,116 412,121 411,121 410,121 409,121 408,121 407,121 406,121 405,116 404,121 403,121 402,117 401,121 400,121 399,121 398,121 397,121 396,121 395,121 394,121 393,121 392,121 391,117 390,118 389,117 388,121 387,121 386,121 385,121 384,121 383,121 382,121 381,121 380,121 379,113 378,113 377,111 376,108 375,111 374,109 373,110 372,111 371,113 370,112 369,114 368,109 367,116 366,121 365,116 364,113 363,118 362,115 361,115 360,113 359,109 358,112 357,112 356,112 355,112 354,110 353,113 352,104 351,106 350,111 349,112 348,105 347,109 346,106 345,111 344,116 343,110 342,115 341,116 340,113 339,113 338,104 337,111 336,111 335,113 334,112 333,109 332,111 331,101 330,103 329,104 328,109 327,113 326,117 325,111 324,112 323,108 322,107 321,110 320,103 319,97 318,107 317,107 316,103 315,101 314,93 313,100 312,104 311,102 310,98 309,98 308,103 307,98 306,98 305,105 304,107 303,112 302,113 301,114 300,110 299,108 298,108 297,112 296,111 295,111 294,111 293,111 292,112 291,107 290,106 289,110 288,113 287,112 286,104 285,111 284,106 283,104 282,102 281,103 280,102 279,109 278,102 277,99 276,98 275,104 274,103 273,94 272,93 271,97 270,104 269,93 268,88 267,91 266,92 265,92 264,118 263,89 262,118 261,87 260,88 259,83 258,100 257,118 256,88 255,103 254,84 253,94 252,95 251,96 250,100 249,100 248,96 247,98 246,118 245,91 244,118 243,97 242,96 241,118 240,103 239,100 238,94 237,92 236,94 235,94 234,95 233,102 232,93 231,95 230,93 229,105 228,98 227,100 226,118 225,96 224,93 223,93 222,100 221,91 220,93 219,95 218,103 217,91 216,91 215,106 214,90 213,96 212,100 211,91 210,100 209,99 208,99 207,107 206,105 205,103 204,107 203,106 202,96 201,96 200,98 199,92 198,100 197,105 196,103 195,99 194,104 193,106 192,103 191,107 190,105 189,103 188,98 187,97 186,95 185,92 184,93 183,89 182,94 181,93 180,97 179,105 178,102 177,98 176,101 175,96 174,96 173,100 172,104 171,101 170,108 169,101 168,103 167,105 166,99 165,104 164,100 163,95 162,98 161,95 160,94 159,102 158,112 157,109 156,107 155,103 154,98 153,103 152,102 151,98 150,96 149,99 148,100 147,98 146,100 145,103 144,104 143,103 142,103 141,103 140,108 139,106 138,105 137,102 136,109 135,100 134,107 133,99 132,107 131,113 130,104 129,106 128,107 127,103 126,105 125,105 124,103 123,100 122,100 121,100 120,103 119,108 118,107 117,107 116,103 115,106 114,102 113,109 112,101 111,100 110,102 109,106 108,105 107,103 106,107 105,113 104,109 103,112 102,113 101,113 100,112 99,112 98,108 97,112 96,113 95,114 94,113 93,113 92,114 91,116 90,113 89,109 88,112 87,110 86,110 85,108 84,108 83,110 82,110 81,112 80,114 79,116 78,121 77,112 76,118 75,111 74,112 73,114 72,112 71,113 70,110 69,112 68,113 67,109 66,110 65,112 64,111 63,117 62,115 61,113 60,112 59,106 " />
	<!-- ApparentWindSpeed -->
	<polyline style="fill:none;stroke:blue" points="59,98 60,104 61,105 62,104 63,109 64,103 65,101 66,101 67,101 68,102 69,103 70,102 71,107 72,107 73,108 74,106 75,106 76,112 77,105 78,114 79,108 80,105 81,103 82,103 83,98 84,97 85,90 86,93 87,100 88,104 89,98 90,99 91,106 92,103 93,104 94,107 95,104 96,103 97,105 98,102 99,103 100,103 101,103 102,102 103,98 104,96 105,97 106,92 107,94 108,89 109,91 110,87 111,83 112,87 113,89 114,90 115,89 116,90 117,87 118,94 119,95 120,94 121,91 122,90 123,86 124,88 125,91 126,87 127,92 128,96 129,96 130,91 131,100 132,93 133,89 134,94 135,88 136,91 137,88 138,88 139,91 140,96 141,89 142,92 143,84 144,87 145,85 146,80 147,81 148,87 149,84 150,80 151,78 152,84 153,83 154,82 155,86 156,94 157,89 158,90 159,81 160,74 161,74 162,73 163,73 164,71 165,78 166,78 167,80 168,82 169,90 170,90 171,88 172,87 173,83 174,83 175,78 176,78 177,80 178,79 179,75 180,71 181,70 182,66 183,64 184,69 185,67 186,67 187,70 188,81 189,86 190,89 191,90 192,88 193,87 194,87 195,82 196,78 197,85 198,78 199,73 200,76 201,77 202,77 203,89 204,89 205,82 206,88 207,86 208,83 209,82 210,81 211,74 212,78 213,72 214,68 215,72 216,66 217,71 218,75 219,74 220,74 221,70 222,78 223,79 224,76 225,78 226,79 227,81 228,77 229,77 230,76 231,77 232,72 233,74 234,74 235,75 236,75 237,74 238,81 239,74 240,69 241,57 242,70 243,70 244,71 245,66 246,74 247,75 248,74 249,69 250,72 251,71 252,72 253,75 254,66 255,69 256,67 257,68 258,69 259,59 260,63 261,67 262,61 263,64 264,61 265,67 266,68 267,66 268,64 269,70 270,76 271,75 272,75 273,79 274,82 275,83 276,78 277,82 278,83 279,88 280,84 281,86 282,85 283,90 284,93 285,93 286,92 287,99 288,99 289,97 290,95 291,92 292,95 293,98 294,101 295,101 296,102 297,102 298,96 299,99 300,99 301,101 302,101 303,98 304,95 305,91 306,80 307,84 308,87 309,80 310,79 311,86 312,80 313,70 314,70 315,80 316,87 317,90 318,93 319,72 320,88 321,98 322,96 323,96 324,102 325,103 326,107 327,100 328,96 329,87 330,84 331,70 332,96 333,100 334,100 335,101 336,101 337,95 338,93 339,99 340,101 341,101 342,104 343,91 344,99 345,100 346,95 347,96 348,95 349,100 350,99 351,94 352,96 353,101 354,100 355,103 356,103 357,105 358,105 359,101 360,103 361,106 362,102 363,108 364,102 365,103 366,110 367,107 368,101 369,105 370,106 371,106 372,105 373,104 374,103 375,105 376,103 377,107 378,108 379,105 380,115 381,114 382,118 383,120 384,114 385,115 386,113 387,116 388,114 389,110 390,109 391,113 392,120 393,112 394,115 395,115 396,115 397,119 398,118 399,120 400,119 401,118 402,115 403,119 404,116 405,112 406,117 407,120 408,117 409,119 410,121 411,120 412,116 413,114 414,116 415,119 416,117 417,120 418,120 419,121 420,121 421,120 422,121 423,120 424,117 425,119 426,120 427,117 428,115 429,112 430,115 431,119 432,117 433,118 434,113 435,111 436,112 437,116 438,117 439,114 440,116 441,113 442,107 443,108 444,109 445,105 446,107 447,101 448,102 449,99 450,99 451,101 452,102 453,104 454,103 455,104 456,103 457,101 458,104 459,109 460,109 461,110 462,112 463,110 464,106 465,107 466,105 467,105 468,102 469,102 470,104 471,102 472,104 473,101 474,104 475,108 476,108 477,111 478,109 479,108 480,104 481,105 482,105 483,107 484,106 485,115 " />
</svg>
